<?xml version="1.0" encoding="UTF-8"?><svg id="Layer_1" xmlns="http://www.w3.org/2000/svg" viewBox="0 0 70 130"><defs><style>.cls-1{fill:#fff;stroke:#fff;}.cls-1,.cls-2,.cls-3,.cls-4{stroke-miterlimit:10;}.cls-2{fill:#cec803;stroke:#cec803;}.cls-3{fill:#665303;}.cls-3,.cls-4{stroke:#665303;}.cls-4{fill:none;}</style></defs><path class="cls-3" d="m44,43.5c-5.66,2.31-14.3,5.83-22,2-4.95-2.46-7.24-6.83-11-14C6.15,22.26,3.51,12.2,5,11.5c1.76-.83,8.03,12.08,11,11,3.22-1.17-.42-17.69,1-18,1.6-.35,6.75,20.38,9,20,2.31-.39-.06-22.69,2-23,1.99-.3,5.46,20.23,9,20,3.28-.21,4.97-18.12,6-18,.89.11-1.81,13.31,3,16,4.03,2.26,11.08-4.14,12-3,1.26,1.56-12.2,13.37-11,15,1.38,1.88,20.39-11.96,22-10,1.36,1.66-8.98,15.47-25,22Z"/><path class="cls-3" d="m30.34,122.54c-.36.31.26,1.38.86,2.04.97,1.06,2.93,2.2,4.71,1.81,1.94-.43,2.74-2.48,2.19-3-.46-.44-1.57.51-3.85.23-2.18-.27-3.48-1.43-3.91-1.07Z"/><rect class="cls-2" x="3" y="36.5" width="64" height="87" rx="12" ry="12"/><polyline class="cls-4" points="10 45.5 13 49.5 15.94 45.5"/><polyline class="cls-4" points="53.34 50.36 56.34 54.36 59.27 50.36"/><polyline class="cls-4" points="53.34 66.36 56.34 70.36 59.27 66.36"/><polyline class="cls-4" points="39.34 45.36 42.34 49.36 45.27 45.36"/><polyline class="cls-4" points="24.34 50.36 27.34 54.36 30.27 50.36"/><polyline class="cls-4" points="39.5 60.14 42.5 64.14 45.44 60.14"/><polyline class="cls-4" points="39.5 73.14 42.5 77.14 45.44 73.14"/><polyline class="cls-4" points="24.5 64.14 27.5 68.14 30.44 64.14"/><polyline class="cls-4" points="24.5 90.14 27.5 94.14 30.44 90.14"/><polyline class="cls-4" points="9.5 73.14 12.5 77.14 15.44 73.14"/><polyline class="cls-4" points="24.5 103.27 27.5 107.27 30.43 103.27"/><polyline class="cls-4" points="53.5 79.27 56.5 83.27 59.43 79.27"/><polyline class="cls-4" points="10.5 86.27 13.5 90.27 16.43 86.27"/><polyline class="cls-4" points="39.5 98.27 42.5 102.27 45.43 98.27"/><polyline class="cls-4" points="11.5 99.27 14.5 103.27 17.43 99.27"/><polyline class="cls-4" points="53.5 90.27 56.5 94.27 59.43 90.27"/><polyline class="cls-4" points="39.5 86.27 42.5 90.27 45.43 86.27"/><polyline class="cls-4" points="53.5 104.27 56.5 108.27 59.43 104.27"/><polyline class="cls-4" points="24.5 77.27 27.5 81.27 30.43 77.27"/><polyline class="cls-4" points="9.83 60.2 12.83 64.2 15.77 60.2"/><polyline class="cls-4" points="39.78 110.68 42.78 114.68 45.71 110.68"/><polyline class="cls-4" points="17.78 112.68 20.78 116.68 23.71 112.68"/><path class="cls-1" d="m6.29,105.97c-.4.13,1.16,7.25,6.35,10.91,2.36,1.67,5.04,2.31,5.17,1.91.14-.42-2.74-1.77-5.87-4.91-4.13-4.14-5.34-8.01-5.64-7.91Z"/></svg>