<?xml version="1.0" encoding="UTF-8"?><svg id="Layer_1" xmlns="http://www.w3.org/2000/svg" viewBox="0 0 90 90"><defs><style>.cls-1{fill:#fff;stroke:#fff;}.cls-1,.cls-2,.cls-3{stroke-miterlimit:10;}.cls-2{fill:#e29300;stroke:#e29300;}.cls-3{stroke:#665303;}.cls-3,.cls-4{fill:#665303;}.cls-4{stroke-width:0px;}</style></defs><path class="cls-3" d="m35.7,9.02c-.39-.27.12-1.36.65-2.05.85-1.1,2.67-2.36,4.47-2.09,1.95.29,2.94,2.24,2.44,2.79-.42.47-1.59-.4-3.82.04-2.12.42-3.29,1.64-3.75,1.32Z"/><path class="cls-2" d="m15.43,18.98c3.94-3.13,12.13-8.73,23.78-10.44,4.51-.66,21.98-3.23,35.67,8.95,10.17,9.04,16.88,24.99,11.89,40.27-6.28,19.23-26.81,24.27-31.21,25.35-3,.74-22.49,5.18-38.64-7.46-3.08-2.41-12.99-10.17-14.86-23.86C-.5,33.1,14.19,20.05,15.43,18.98Z"/><path class="cls-4" d="m66.96,21.23c.48,0,.48-.75,0-.75s-.48.75,0,.75h0Z"/><path class="cls-4" d="m53.78,22.36c.48,0,.48-.75,0-.75s-.48.75,0,.75h0Z"/><path class="cls-4" d="m58.86,47.4c.48,0,.48-.75,0-.75s-.48.75,0,.75h0Z"/><path class="cls-4" d="m72.98,35.35c.48,0,.48-.75,0-.75s-.48.75,0,.75h0Z"/><path class="cls-4" d="m24.79,25.56c.48,0,.48-.75,0-.75s-.48.75,0,.75h0Z"/><path class="cls-4" d="m37.21,14.83c.48,0,.48-.75,0-.75s-.48.75,0,.75h0Z"/><path class="cls-4" d="m40.04,45.52c.48,0,.48-.75,0-.75s-.48.75,0,.75h0Z"/><path class="cls-4" d="m38.72,29.89c.48,0,.48-.75,0-.75s-.48.75,0,.75h0Z"/><path class="cls-4" d="m55.47,33.28c.48,0,.48-.75,0-.75s-.48.75,0,.75h0Z"/><path class="cls-4" d="m75.24,52.48c.48,0,.48-.75,0-.75s-.48.75,0,.75h0Z"/><path class="cls-4" d="m56.04,78.84c.48,0,.48-.75,0-.75s-.48.75,0,.75h0Z"/><path class="cls-4" d="m41.35,55.49c.48,0,.48-.75,0-.75s-.48.75,0,.75h0Z"/><path class="cls-4" d="m60.37,59.82c.48,0,.48-.75,0-.75s-.48.75,0,.75h0Z"/><path class="cls-4" d="m67.14,70.56c.48,0,.48-.75,0-.75s-.48.75,0,.75h0Z"/><path class="cls-4" d="m38.34,73.76c.48,0,.48-.75,0-.75s-.48.75,0,.75h0Z"/><path class="cls-4" d="m23.85,53.42c.48,0,.48-.75,0-.75s-.48.75,0,.75h0Z"/><path class="cls-4" d="m31.38,38.93c.48,0,.48-.75,0-.75s-.48.75,0,.75h0Z"/><path class="cls-4" d="m12.93,35.54c.48,0,.48-.75,0-.75s-.48.75,0,.75h0Z"/><path class="cls-4" d="m15.19,49.09c.48,0,.48-.75,0-.75s-.48.75,0,.75h0Z"/><path class="cls-4" d="m35.52,65.47c.48,0,.48-.75,0-.75s-.48.75,0,.75h0Z"/><path class="cls-4" d="m51.71,37.8c.48,0,.48-.75,0-.75s-.48.75,0,.75h0Z"/><path class="cls-4" d="m50.39,67.92c.48,0,.48-.75,0-.75s-.48.75,0,.75h0Z"/><path class="cls-4" d="m75.24,62.27c.48,0,.48-.75,0-.75s-.48.75,0,.75h0Z"/><path class="cls-4" d="m85.4,39.87c.48,0,.48-.75,0-.75s-.48.75,0,.75h0Z"/><path class="cls-4" d="m11.42,57c.48,0,.48-.75,0-.75s-.48.75,0,.75h0Z"/><path class="cls-4" d="m27.42,71.87c.48,0,.48-.75,0-.75s-.48.75,0,.75h0Z"/><path class="cls-4" d="m32.88,50.41c.48,0,.48-.75,0-.75s-.48.75,0,.75h0Z"/><path class="cls-4" d="m21.96,40.43c.48,0,.48-.75,0-.75s-.48.75,0,.75h0Z"/><path class="cls-4" d="m52.84,14.27c.48,0,.48-.75,0-.75s-.48.75,0,.75h0Z"/><path class="cls-4" d="m69.4,44.95c.48,0,.48-.75,0-.75s-.48.75,0,.75h0Z"/><path class="cls-4" d="m25.16,17.09c.48,0,.48-.75,0-.75s-.48.75,0,.75h0Z"/><path class="cls-4" d="m51.52,53.8c.48,0,.48-.75,0-.75s-.48.75,0,.75h0Z"/><path class="cls-4" d="m83.71,51.35c.48,0,.48-.75,0-.75s-.48.75,0,.75h0Z"/><path class="cls-1" d="m15.02,62.93c-.61.19-.14,8.48,6.47,12.31,3.01,1.75,6.74,2.25,7.03,1.77.3-.51-3.53-1.83-7.3-5.25-4.96-4.51-5.74-8.98-6.2-8.84Z"/></svg>