<?xml version="1.0" encoding="UTF-8"?><svg id="Layer_1" xmlns="http://www.w3.org/2000/svg" width="1366" height="768" viewBox="0 0 1366 768"><defs><style>.cls-1{opacity:.7;}.cls-1,.cls-2,.cls-3,.cls-4,.cls-5,.cls-6{stroke-miterlimit:10;}.cls-1,.cls-6{fill:#a6e2e2;stroke:#2c7c7a;}.cls-2{fill:#eff275;stroke:#dbe00a;}.cls-3{fill:#8bd68d;stroke:#1aa83b;}.cls-4{fill:#2dad30;stroke:#0e680e;}.cls-5{fill:#4dc44d;stroke:#4dc44d;}.cls-6{opacity:.6;}.cls-7{fill:#ace4f9;stroke-width:0px;}</style></defs><rect class="cls-5" x=".5" y="319.5" width="1366" height="447"/><rect class="cls-7" y="0" width="1365" height="319"/><path class="cls-2" d="m153.5-29.5c29.62,7.2,42.35,21.39,48,30,28.46,43.33-11.93,112.9-43,147C122.82,186.67,48.63,234.81.5,207.5-44.75,181.82-63,91.7-14.5.5"/><polygon class="cls-4" points="699.13 685.5 613.37 685.5 572 627.27 617.51 646.47 595.79 590.6 646.46 657.01 635.57 584 670.25 657.01 679.56 584 690.94 657.01 748.85 590.6 699.13 685.5"/><path class="cls-1" d="m638.93,85.61c11.23,72.24,122.56,107.94,179.29,117.66,97.81,16.74,127.92-27.58,247.38-11.45,72.97,9.85,71.13,27.65,145.25,37.48,68.47,9.08,213.62,12.93,243.98-48.94,24.97-50.9-39.66-122-66.95-152.01-21.52-23.67-100.8-110.89-208.8-109.33-91.52,1.32-103.18,64.96-197.45,67.68-98.25,2.84-123.93-65.17-204.26-52.06-74.25,12.12-148.55,85.93-138.44,150.97Z"/><path class="cls-6" d="m157.1,130.06c27.45,67.76,143.99,77.06,201.45,73.54,99.05-6.06,118.22-56.1,238.21-67.71,73.28-7.1,75.57,10.66,149.97,3.28,68.73-6.82,210.92-36.25,226.32-103.43,12.67-55.26-66.51-109.69-99.94-132.68-26.36-18.12-123.49-84.9-228.27-58.69-88.8,22.22-85.59,86.83-176.75,111.03-94.99,25.23-135.55-35.1-210.75-3.98-69.52,28.77-124.97,117.62-100.25,178.63Z"/><polygon class="cls-4" points="433.56 769.5 324.12 769.5 271.33 691.63 329.4 717.3 301.69 642.59 366.35 731.4 352.44 633.76 396.7 731.4 408.58 633.76 423.1 731.4 497 642.59 433.56 769.5"/><polygon class="cls-4" points="1302.42 769.5 1193 769.5 1140.22 691.63 1198.28 717.3 1170.57 642.59 1235.22 731.4 1221.32 633.76 1265.57 731.4 1277.45 633.76 1291.96 731.4 1365.85 642.59 1302.42 769.5"/><polygon class="cls-4" points="999.42 714.5 890 714.5 837.22 636.63 895.28 662.3 867.57 587.59 932.22 676.4 918.32 578.76 962.57 676.4 974.45 578.76 988.96 676.4 1062.85 587.59 999.42 714.5"/><path class="cls-3" d="m769.5,314.5c-126.79-47.64-237.35-64.1-314.1-70.01-144.63-11.14-246.69,2.02-335.19,27.76C14.36,303.04.48,309.9.11,318.97c-.91,22.1,67.62,41.69,126.39,58.53,57.3,16.42,79.09,17.28,179,35,135.47,24.02,164.59,30.11,212,17,10.68-2.95,11.91-4.05,80-36,104.6-49.08,156.9-73.62,172-79,9.61-3.43,17.43-5.68,25.41-7.09,98.45-17.36,183.48-3.94,215.59,2.09,185.73,34.86,337.05-63,362-14,9.18,18.03-10.22,33.42-7,103,1.45,31.4,6.33,39.98,0,51-20.88,36.32-101.66,25.88-137,22-243.07-26.67-262.37,45.8-525,2-44.59-7.44-109.12-20.38-186-44"/><polygon class="cls-4" points="399.26 569.5 334.16 569.5 302.75 526.76 337.3 540.85 320.81 499.84 359.28 548.59 351.01 495 377.34 548.59 384.4 495 393.04 548.59 437 499.84 399.26 569.5"/><polygon class="cls-4" points="834.33 562.5 770.02 562.5 739 523.2 773.12 536.16 756.84 498.45 794.84 543.27 786.66 494 812.67 543.27 819.65 494 828.18 543.27 871.61 498.45 834.33 562.5"/></svg>