<?xml version="1.0" encoding="UTF-8"?><svg id="Layer_1" xmlns="http://www.w3.org/2000/svg" viewBox="0 0 80 120"><defs><style>.cls-1{fill:#fff;stroke:#fff;}.cls-1,.cls-2,.cls-3{stroke-miterlimit:10;}.cls-2{fill:#eada4b;stroke:#eada4b;}.cls-3{fill:#665303;stroke:#665303;}</style></defs><path class="cls-2" d="m14.58,6.65c-7.09.33-19.74,36.05-1.92,66.07,17.4,29.32,58.45,44.06,63.31,39.95,3.86-3.27-16.86-17-36.45-50.71C19.8,28.03,20.14,6.39,14.58,6.65Z"/><path class="cls-1" d="m30.47,87.23c-.29.35,6.25,8.08,13.85,9.8,3.46.79,6.5.18,6.34-.35-.17-.57-3.89-.71-9.14-2.87-6.92-2.84-10.83-6.85-11.05-6.58Z"/><path class="cls-3" d="m8.92,12.88c-.88-.35-.7-2.21-.21-3.43.79-1.96,3.21-4.39,6.6-4.39,3.68,0,6.76,2.89,6.25,3.88-.43.84-3.12-.26-6.81.95-3.53,1.16-4.79,3.39-5.83,2.98Z"/><path class="cls-3" d="m77.41,110.66c.43.21.11,1.37-.3,2.13-.66,1.23-2.25,2.77-4.06,2.8-1.97.04-3.27-1.72-2.87-2.35.33-.53,1.64.13,3.76-.67,2.03-.76,2.97-2.16,3.48-1.92Z"/></svg>