<?xml version="1.0" encoding="UTF-8"?><svg id="Layer_1" xmlns="http://www.w3.org/2000/svg" width="820" height="425" viewBox="0 0 820 425"><defs><style>.cls-1,.cls-2,.cls-3,.cls-4,.cls-5,.cls-6,.cls-7,.cls-8,.cls-9,.cls-10,.cls-11,.cls-12{stroke-miterlimit:10;}.cls-1,.cls-2,.cls-3,.cls-4,.cls-5,.cls-6,.cls-7,.cls-8,.cls-9,.cls-10,.cls-13{opacity:.5;}.cls-1,.cls-3{stroke:#665303;}.cls-1,.cls-12{fill:none;}.cls-2{fill:#9de034;stroke:#9de034;}.cls-3,.cls-14{fill:#665303;}.cls-4{fill:#eada4b;stroke:#eada4b;}.cls-5{fill:#fff;stroke:#fff;}.cls-6{fill:#f20c0c;stroke:#f20c0c;}.cls-7{stroke:#89775b;}.cls-7,.cls-15{fill:#89775b;}.cls-8{fill:#0a4719;stroke:#0a4719;}.cls-9{fill:#e29300;stroke:#e29300;}.cls-10{fill:#cec803;stroke:#cec803;}.cls-11{fill:#a6b2a8;}.cls-11,.cls-12{stroke:#7e847f;}.cls-16,.cls-15,.cls-17,.cls-14,.cls-18{stroke-width:0px;}.cls-17{fill:#e2e0c5;}.cls-18{fill:red;}</style></defs><rect class="cls-17" x="-.5" y="1.5" width="819" height="423"/><path class="cls-16" d="m818,2v422H0V2h818m1-1H-1v424h820V1h0Z"/><path class="cls-18" d="m216.67,153.24c-3.1-1.87-5.54-4.56-7.32-8.09-1.78-3.52-2.66-7.72-2.66-12.57,0-6.04,1.27-11.76,3.81-17.15,2.54-5.39,6.13-9.74,10.78-13.06,4.65-3.32,9.96-4.98,15.94-4.98,3.5,0,6.34.58,8.54,1.73s3.3,2.8,3.3,4.93c0,1.6-.58,3.14-1.73,4.62-1.16,1.48-2.41,2.22-3.76,2.22-.56,0-1.01-.15-1.35-.44-2.93-2.07-6.26-3.11-9.98-3.11s-7.12.93-9.85,2.8c-2.74,1.87-4.81,4.39-6.22,7.55-1.41,3.17-2.11,6.62-2.11,10.35,0,5.51,1.48,9.89,4.44,13.15,2.96,3.26,6.92,4.89,11.88,4.89,3.38,0,6.29-.74,8.71-2.22,2.42-1.48,3.64-3.52,3.64-6.13,0-2.43-.96-4.15-2.88-5.15-1.92-1.01-4.57-1.63-7.95-1.87-1.58-.12-2.64-.31-3.17-.58-.54-.27-.8-.96-.8-2.09,0-1.42.41-2.61,1.23-3.55.82-.95,1.87-1.48,3.17-1.6,4.74-.41,11.64-.62,20.72-.62.79,0,1.37.15,1.73.44.37.3.55.83.55,1.6,0,1.66-.48,3.33-1.44,5.02-.96,1.69-2.11,2.53-3.47,2.53h-1.35c.45,1.54.68,3.05.68,4.53,0,3.44-1.03,6.66-3.09,9.69-2.06,3.02-4.82,5.44-8.29,7.24s-7.18,2.71-11.12,2.71-7.47-.93-10.57-2.8Z"/><path class="cls-18" d="m296.12,153.55c-1.21-1.54-2.38-4.15-3.51-7.82-1.13-3.67-1.86-7.05-2.2-10.13-.73,1.19-1.4,1.97-1.99,2.35-.59.39-1.45.58-2.58.58-4.96,0-10.66-.12-17.08-.36-.28,2.37-.42,4.53-.42,6.49,0,1.36.11,3.23.34,5.6.17,1.66-.44,2.99-1.82,4-1.38,1.01-3.14,1.51-5.29,1.51-.96,0-1.65-.19-2.07-.58s-.63-1.02-.63-1.91c0-1.01.25-2.52.76-4.53.62-2.78.93-4.74.93-5.87,0-1.66-.48-2.78-1.44-3.38-.79-.47-1.18-1.1-1.18-1.87,0-1.07.34-2.4,1.01-4,.68-1.6,1.38-2.67,2.11-3.2.85-.47,2.03-.8,3.55-.98,3.33-10.13,7.23-18.05,11.71-23.77,4.48-5.72,9.12-8.58,13.91-8.58,1.97,0,3.41.71,4.31,2.13.9,1.42,1.35,3.73,1.35,6.93v4c0,5.75.41,11.15,1.23,16.22.82,5.07,1.87,9.26,3.17,12.57,1.24,3.32,2.96,6.04,5.16,8.18.68.59,1.13,1.1,1.35,1.51.22.42.34.89.34,1.42,0,1.36-.71,2.67-2.11,3.91-1.41,1.24-2.9,1.87-4.48,1.87-1.75,0-3.23-.77-4.44-2.31Zm-12.3-25.06h5.92c-.28-3.67-.42-7.35-.42-11.02v-5.15c0-1.66-.18-2.78-.55-3.38-.37-.59-1.06-.89-2.07-.89-2.76,0-5.53,1.9-8.29,5.69-2.76,3.79-5.13,8.86-7.1,15.2,6.09-.3,10.26-.44,12.52-.44Z"/><path class="cls-18" d="m309.86,152.67c0-6.69,1.21-15.61,3.64-26.75,1.52-6.81,3.5-13.33,5.92-19.55,1.24-3.14,2.68-5.51,4.31-7.11,1.63-1.6,3.5-2.4,5.58-2.4,1.75,0,3.2.59,4.36,1.78,1.15,1.19,1.85,3.11,2.07,5.78.51,5.63,1.17,10.93,1.99,15.91.82,4.98,1.65,8.53,2.49,10.66.28.77.59,1.3.93,1.6.34.3.76.44,1.27.44.62,0,1.13-.16,1.52-.49.39-.33.82-.87,1.27-1.64,1.52-2.72,3.86-9.18,7.02-19.37,1.41-4.5,2.96-8.09,4.65-10.75,1.69-2.67,4-4,6.93-4,2.03,0,3.48.71,4.36,2.13.87,1.42,1.31,3.73,1.31,6.93,0,2.43-.08,4.98-.25,7.64-.23,4.15-.34,7.41-.34,9.78,0,11.49,1.78,19.28,5.33,23.37,1.18,1.13,1.78,2.19,1.78,3.2,0,1.48-.75,2.83-2.24,4.04-1.49,1.21-3.2,1.82-5.12,1.82-1.64,0-2.89-.55-3.76-1.64-.87-1.1-1.59-2.74-2.16-4.93-1.02-4.62-1.52-10.04-1.52-16.26,0-3.38.2-8.03.59-13.95.22-3.2.34-5.12.34-5.78,0-1.01-.1-1.72-.3-2.13-.2-.41-.61-.62-1.23-.62-1.47,0-2.57,1.39-3.3,4.18-1.52,5.15-2.95,9.69-4.27,13.6-1.33,3.91-2.72,7.26-4.19,10.04-1.24,2.31-2.58,3.94-4.02,4.89-1.44.95-3,1.42-4.69,1.42-3.89,0-6.57-2.52-8.03-7.55-.79-2.72-1.49-6.18-2.11-10.35-.62-4.18-1.04-8.69-1.27-13.55-.11-2.19-.79-3.29-2.03-3.29-1.35,0-2.42,1.07-3.21,3.2-1.13,3.44-2.07,7.51-2.83,12.22s-1.14,9.2-1.14,13.46c0,2.07.11,4.53.34,7.38.17,1.66.25,3.2.25,4.62,0,1.66-.83,2.93-2.49,3.82-1.66.89-3.31,1.33-4.95,1.33-1.86,0-2.79-1.04-2.79-3.11Z"/><path class="cls-18" d="m386.01,153.24c-2.45-1.87-3.68-5.23-3.68-10.09,0-2.07.28-5.01.85-8.8.51-3.02.86-5.66,1.06-7.91.2-2.25.29-4.71.29-7.38,0-3.73-.2-7.02-.59-9.86l-1.69.27c-.45,0-.76-.1-.93-.31-.17-.21-.25-.61-.25-1.2,0-1.24.14-2.47.42-3.69.28-1.21.68-2.21,1.18-2.98.96-1.42,2.42-2.25,4.4-2.49,2.31-.3,5.34-.55,9.09-.76,3.75-.21,6.98-.31,9.68-.31,5.19,0,8.26.12,9.22.36.79.12,1.35.37,1.69.76.34.39.51.96.51,1.73,0,1.78-.59,3.41-1.78,4.89-.68.95-1.33,1.6-1.95,1.95-.62.36-1.47.5-2.54.44-4.17-.3-7.64-.44-10.4-.44-2.99,0-5.72.12-8.2.36,0,4.03-.31,8.74-.93,14.13,5.13-.36,10.96-.53,17.51-.53,1.18,0,1.97.13,2.37.4s.59.88.59,1.82c0,1.01-.24,2.09-.72,3.24-.48,1.16-1.11,2.12-1.9,2.89-.39.42-.79.71-1.18.89-.4.18-.9.24-1.52.18-3.66-.18-7.84-.27-12.52-.27h-3.8c-.45,2.96-.68,5.21-.68,6.75,0,3.2.79,5.46,2.37,6.8,1.58,1.33,4.17,2,7.78,2,2.31,0,4.48-.22,6.51-.67s4.09-1.2,6.17-2.27c.79-.47,1.38-.71,1.78-.71.62,0,1.23.46,1.82,1.38.59.92.89,1.91.89,2.98,0,1.3-.45,2.52-1.35,3.64-.9,1.13-2.14,2.13-3.72,3.02-1.69.83-3.75,1.47-6.17,1.91s-4.96.67-7.61.67c-5.58,0-9.6-.93-12.05-2.8Z"/><path class="cls-18" d="m452.23,150.58c-3.41-3.64-5.12-8.9-5.12-15.77s1.78-13.6,5.33-19.82c-1.07,1.01-2.09,1.51-3.04,1.51-1.64,0-2.45-1.36-2.45-4.09,0-1.72.32-3.15.97-4.31.65-1.16,1.48-2.24,2.5-3.24,2.25-2.07,5.09-3.84,8.5-5.29,3.41-1.45,7.31-2.18,11.71-2.18,7.44,0,13.09,2.21,16.96,6.62,3.86,4.41,5.79,10.65,5.79,18.71,0,6.22-1.14,11.86-3.42,16.93-2.28,5.07-5.48,9.06-9.6,12-4.12,2.93-8.82,4.4-14.12,4.4-5.92,0-10.58-1.82-14-5.47Zm25.5-6.62c2.71-1.42,4.92-3.66,6.64-6.71,1.72-3.05,2.58-6.86,2.58-11.42,0-4.27-.78-7.78-2.33-10.53-1.55-2.75-3.58-4.77-6.09-6.04-2.51-1.27-5.23-1.91-8.16-1.91-3.33,0-6.68.89-10.06,2.67-1.75,2.79-3.2,5.87-4.35,9.24-1.16,3.38-1.73,6.78-1.73,10.22,0,5.45,1.44,9.58,4.31,12.4,2.88,2.81,6.43,4.22,10.66,4.22,2.99,0,5.83-.71,8.54-2.13Z"/><path class="cls-18" d="m510.96,154.26c-1.02-1.36-1.61-3.67-1.78-6.93-.28-7.46-1.13-14.19-2.54-20.17-1.07-4.8-2.42-8.98-4.06-12.53-1.64-3.55-3.78-6.46-6.43-8.71-.51-.47-.89-.9-1.14-1.29-.25-.38-.38-.84-.38-1.38,0-1.3.65-2.55,1.95-3.73,1.3-1.18,2.76-1.78,4.4-1.78,1.86,0,3.51.83,4.95,2.49,1.44,1.66,2.75,4.09,3.93,7.29,1.8,4.62,3.17,9.88,4.1,15.77.93,5.9,1.45,11.86,1.56,17.91.06,1.6.28,2.7.68,3.29.39.59,1.07.89,2.03.89,2.65,0,5.26-1.44,7.82-4.31,2.57-2.87,4.67-6.65,6.3-11.33,1.63-4.68,2.45-9.57,2.45-14.66,0-3.97-.51-7.14-1.52-9.51-.51-1.12-.76-2.07-.76-2.84,0-1.24.79-2.41,2.37-3.51,1.58-1.1,3.04-1.64,4.4-1.64,1.46,0,2.45.79,2.96,2.35.51,1.57.76,3.63.76,6.18,0,6.93-1.24,14.35-3.72,22.26-2.48,7.91-5.85,14.54-10.11,19.91-4.26,5.36-8.84,8.04-13.74,8.04-1.97,0-3.47-.68-4.48-2.04Z"/><path class="cls-18" d="m554.3,153.24c-2.45-1.87-3.68-5.23-3.68-10.09,0-2.07.28-5.01.85-8.8.51-3.02.86-5.66,1.06-7.91.2-2.25.3-4.71.3-7.38,0-3.73-.2-7.02-.59-9.86l-1.69.27c-.45,0-.76-.1-.93-.31-.17-.21-.25-.61-.25-1.2,0-1.24.14-2.47.42-3.69.28-1.21.68-2.21,1.18-2.98.96-1.42,2.42-2.25,4.4-2.49,2.31-.3,5.34-.55,9.09-.76,3.75-.21,6.98-.31,9.68-.31,5.19,0,8.26.12,9.22.36.79.12,1.35.37,1.69.76.34.39.51.96.51,1.73,0,1.78-.59,3.41-1.78,4.89-.68.95-1.33,1.6-1.95,1.95-.62.36-1.47.5-2.54.44-4.17-.3-7.64-.44-10.4-.44-2.99,0-5.72.12-8.2.36,0,4.03-.31,8.74-.93,14.13,5.13-.36,10.96-.53,17.51-.53,1.18,0,1.97.13,2.37.4s.59.88.59,1.82c0,1.01-.24,2.09-.72,3.24-.48,1.16-1.11,2.12-1.9,2.89-.39.42-.79.71-1.18.89-.4.18-.9.24-1.52.18-3.67-.18-7.84-.27-12.52-.27h-3.81c-.45,2.96-.68,5.21-.68,6.75,0,3.2.79,5.46,2.37,6.8,1.58,1.33,4.17,2,7.78,2,2.31,0,4.48-.22,6.51-.67,2.03-.44,4.09-1.2,6.17-2.27.79-.47,1.38-.71,1.78-.71.62,0,1.23.46,1.82,1.38.59.92.89,1.91.89,2.98,0,1.3-.45,2.52-1.35,3.64-.9,1.13-2.14,2.13-3.72,3.02-1.69.83-3.75,1.47-6.17,1.91s-4.96.67-7.61.67c-5.58,0-9.6-.93-12.05-2.8Z"/><path class="cls-18" d="m593.03,154.58c-.82-.8-1.23-2.44-1.23-4.93s.31-5.72.93-10.04c1.18-8.35,1.78-15.14,1.78-20.35,0-3.14-.14-5.75-.42-7.82-.9.48-1.64.71-2.2.71-.96,0-1.44-1.04-1.44-3.11,0-1.84.41-3.33,1.23-4.49s2.16-2.24,4.02-3.24c2.25-1.3,4.68-2.28,7.27-2.93,2.59-.65,5.13-.98,7.61-.98,5.3,0,9.61,1.45,12.94,4.35,3.33,2.9,4.99,6.78,4.99,11.64,0,3.26-.76,6.25-2.28,8.98-1.52,2.73-3.47,4.95-5.83,6.67-2.37,1.72-4.85,2.84-7.44,3.38,2.14,3.5,4.17,6.31,6.09,8.44,3.21,3.5,6.48,5.24,9.81,5.24.9,0,1.69-.06,2.37-.18h.17c.73,0,1.1.77,1.1,2.31,0,1.96-.59,3.69-1.78,5.2-1.18,1.51-3.04,2.27-5.58,2.27-3.95,0-7.6-2.34-10.95-7.02-3.35-4.68-6.27-10.07-8.75-16.17-.56-1.36-.85-2.61-.85-3.73,0-1.01.31-1.84.93-2.49.45-.47,1.08-.8,1.9-.98s2.02-.27,3.59-.27c2.99,0,5.41-.86,7.27-2.58,1.86-1.72,2.79-3.94,2.79-6.67s-1.01-4.98-3.04-6.4c-2.03-1.42-4.65-2.13-7.86-2.13-2.48,0-5.07.42-7.78,1.24-.17,3.85-.56,8.26-1.18,13.24-.84,7.46-1.27,13.03-1.27,16.71,0,2.31.2,4.21.59,5.69.39,1.48,1.13,2.75,2.2,3.82.79.83,1.18,1.72,1.18,2.67,0,1.36-.72,2.56-2.16,3.6-1.44,1.04-3.26,1.56-5.45,1.56-1.35,0-2.44-.4-3.26-1.2Z"/><path class="cls-3" d="m119.45,176.1c.6.07.65,1.19.45,1.98-.33,1.27-1.67,3.05-3.85,3.54-2.37.54-4.61-.7-4.37-1.36.2-.56,2.03-.31,4.29-1.56,2.16-1.2,2.77-2.69,3.48-2.61Z"/><path class="cls-3" d="m62.44,105.54c-.38-.41.34-1.39,1.01-1.94,1.09-.88,3.24-1.61,5.14-.76,2.06.93,2.83,3.28,2.22,3.7-.52.36-1.66-.93-4.13-1.18-2.36-.24-3.8.67-4.24.18Z"/><path class="cls-2" d="m90.01,98.81c3.61.87,6.66,3.85,12.76,9.82,6.03,5.9,5.95,7.1,9.58,9.51,5.77,3.84,8.85,2.74,14.05,5.15,8.45,3.93,15.07,13.73,14.38,24.23-.68,10.32-8.2,17.69-12.49,21.91-2.54,2.49-12.5,12-27.92,14.17-4.6.65-14.15,1.99-22.79-3.16-9.07-5.4-12.63-15.28-12.38-23.3.2-6.15,2.48-6.12,2.66-12.03.39-12.75-10.13-15.05-8.85-25.17,1.14-9.03,10.53-15.35,12.34-16.51,1.67-1.08,10.28-6.62,18.67-4.61Z"/><path class="cls-5" d="m81,171.6c-.42.57,5.32,6.41,13.67,4.6,3.8-.82,7.44-3.08,7.38-3.64-.06-.59-4.31,1.13-9.86,1.24-7.3.14-10.88-2.63-11.19-2.21Z"/><path class="cls-8" d="m167.89,260.34c-.58-2.58-6.1-3.05-11.34-3.49-3.56-.3-5.35-.45-5.69.17-1.04,1.9,9.22,10.42,14.47,7.66,1.65-.87,2.89-2.89,2.56-4.34Z"/><path class="cls-6" d="m146.28,280.95c1.71-3.38,5.55-9.84,13.07-15.18,2.91-2.07,14.18-10.08,27.66-7.63,10.01,1.82,19.87,9.16,21.41,20.4,1.93,14.15-10.65,24.81-13.35,27.1-1.84,1.56-13.9,11.47-29.23,9.65-2.93-.35-12.33-1.47-18.11-9.21-7.88-10.56-1.96-24-1.45-25.12Z"/><path class="cls-5" d="m159.56,305.05c-.3.44,4.98,5.75,11.72,4.91,3.07-.39,5.88-1.98,5.78-2.44-.1-.5-3.47.6-8.05.25-6.03-.46-9.23-3.05-9.45-2.72Z"/><path class="cls-4" d="m222.29,369.73c-4.81,2.82-1.9,29.46,20.27,41.36,21.65,11.63,54.93,5.58,56.96,1.26,1.61-3.44-17.25-4.25-41.85-17.77-24.77-13.62-31.6-27.06-35.38-24.85Z"/><path class="cls-3" d="m220.4,375.65c-.72.11-1.21-1.1-1.27-2.03-.1-1.5.79-3.89,3.15-5.13,2.56-1.35,5.63-.71,5.6.09-.02.68-2.25.99-4.41,3.1-2.07,2.01-2.21,3.85-3.07,3.98Z"/><path class="cls-3" d="m299.86,410.59c.36-.03.52.8.49,1.42-.05,1-.65,2.53-1.9,3.22-1.35.75-2.83.14-2.76-.39.06-.45,1.18-.52,2.39-1.8,1.16-1.22,1.35-2.42,1.78-2.46Z"/><path class="cls-3" d="m251.8,39.02c-.36-.03-.36-.88-.22-1.5.23-.99,1.08-2.44,2.41-2.93,1.45-.54,2.77.3,2.61.82-.14.44-1.23.34-2.63,1.43-1.34,1.04-1.74,2.22-2.17,2.19Z"/><path class="cls-9" d="m241,52.61c1.71-3.38,5.55-9.84,13.07-15.18,2.91-2.07,14.18-10.08,27.66-7.63,10.01,1.82,19.87,9.16,21.41,20.4,1.93,14.15-10.65,24.81-13.35,27.1-1.84,1.56-13.9,11.47-29.23,9.65-2.93-.35-12.33-1.47-18.11-9.21-7.88-10.56-1.96-24-1.45-25.12Z"/><g class="cls-13"><path class="cls-14" d="m277.34,35.16c.48,0,.48-.75,0-.75s-.48.75,0,.75h0Z"/></g><g class="cls-13"><path class="cls-14" d="m268.57,40.71c.48,0,.48-.75,0-.75s-.48.75,0,.75h0Z"/></g><g class="cls-13"><path class="cls-14" d="m280.28,54.25c.48,0,.48-.75,0-.75s-.48.75,0,.75h0Z"/></g><g class="cls-13"><path class="cls-14" d="m286.13,41.63c.48,0,.48-.75,0-.75s-.48.75,0,.75h0Z"/></g><g class="cls-13"><path class="cls-14" d="m249.52,53.36c.48,0,.48-.75,0-.75s-.48.75,0,.75h0Z"/></g><g class="cls-13"><path class="cls-14" d="m254.63,42.18c.48,0,.48-.75,0-.75s-.48.75,0,.75h0Z"/></g><g class="cls-13"><path class="cls-14" d="m266.61,60.02c.48,0,.48-.75,0-.75s-.48.75,0,.75h0Z"/></g><g class="cls-13"><path class="cls-14" d="m260.59,50.89c.48,0,.48-.75,0-.75s-.48.75,0,.75h0Z"/></g><g class="cls-13"><path class="cls-14" d="m273.32,46.81c.48,0,.48-.75,0-.75s-.48.75,0,.75h0Z"/></g><g class="cls-13"><path class="cls-14" d="m293.3,51.34c.48,0,.48-.75,0-.75s-.48.75,0,.75h0Z"/></g><g class="cls-13"><path class="cls-14" d="m288.6,74.63c.48,0,.48-.75,0-.75s-.48.75,0,.75h0Z"/></g><g class="cls-13"><path class="cls-14" d="m270.79,65.68c.48,0,.48-.75,0-.75s-.48.75,0,.75h0Z"/></g><g class="cls-13"><path class="cls-14" d="m285.39,61.34c.48,0,.48-.75,0-.75s-.48.75,0,.75h0Z"/></g><g class="cls-13"><path class="cls-14" d="m293.6,65.44c.48,0,.48-.75,0-.75s-.48.75,0,.75h0Z"/></g><g class="cls-13"><path class="cls-14" d="m274.67,78.02c.48,0,.48-.75,0-.75s-.48.75,0,.75h0Z"/></g><g class="cls-13"><path class="cls-14" d="m257.97,70.85c.48,0,.48-.75,0-.75s-.48.75,0,.75h0Z"/></g><g class="cls-13"><path class="cls-14" d="m258.46,59.16c.48,0,.48-.75,0-.75s-.48.75,0,.75h0Z"/></g><g class="cls-13"><path class="cls-14" d="m244.56,63.87c.48,0,.48-.75,0-.75s-.48.75,0,.75h0Z"/></g><g class="cls-13"><path class="cls-14" d="m250.56,71.38c.48,0,.48-.75,0-.75s-.48.75,0,.75h0Z"/></g><g class="cls-13"><path class="cls-14" d="m270.01,73.96c.48,0,.48-.75,0-.75s-.48.75,0,.75h0Z"/></g><g class="cls-13"><path class="cls-14" d="m272.18,50.97c.48,0,.48-.75,0-.75s-.48.75,0,.75h0Z"/></g><g class="cls-13"><path class="cls-14" d="m281.12,69.99c.48,0,.48-.75,0-.75s-.48.75,0,.75h0Z"/></g><g class="cls-13"><path class="cls-14" d="m296.5,57.36c.48,0,.48-.75,0-.75s-.48.75,0,.75h0Z"/></g><g class="cls-13"><path class="cls-14" d="m296.22,39.83c.48,0,.48-.75,0-.75s-.48.75,0,.75h0Z"/></g><g class="cls-13"><path class="cls-14" d="m250.53,77.63c.48,0,.48-.75,0-.75s-.48.75,0,.75h0Z"/></g><g class="cls-13"><path class="cls-14" d="m266.49,80.88c.48,0,.48-.75,0-.75s-.48.75,0,.75h0Z"/></g><g class="cls-13"><path class="cls-14" d="m263.26,65.67c.48,0,.48-.75,0-.75s-.48.75,0,.75h0Z"/></g><g class="cls-13"><path class="cls-14" d="m252.42,63.55c.48,0,.48-.75,0-.75s-.48.75,0,.75h0Z"/></g><g class="cls-13"><path class="cls-14" d="m265.27,36.08c.48,0,.48-.75,0-.75s-.48.75,0,.75h0Z"/></g><g class="cls-13"><path class="cls-14" d="m286.79,48.86c.48,0,.48-.75,0-.75s-.48.75,0,.75h0Z"/></g><g class="cls-13"><path class="cls-14" d="m247.01,48.01c.48,0,.48-.75,0-.75s-.48.75,0,.75h0Z"/></g><g class="cls-13"><path class="cls-14" d="m277.28,60.89c.48,0,.48-.75,0-.75s-.48.75,0,.75h0Z"/></g><g class="cls-13"><path class="cls-14" d="m298.8,47.52c.48,0,.48-.75,0-.75s-.48.75,0,.75h0Z"/></g><path class="cls-5" d="m255.09,79.81c-.36.34,2.67,5.27,8.51,5.19,2.66-.03,5.41-1.1,5.45-1.5.04-.43-3.05.18-6.78-.54-4.91-.95-6.92-3.41-7.19-3.15Z"/><path class="cls-3" d="m339.47,203.37c-3.17,3.5-8.01,8.86-14.6,9.33-4.23.31-7.25-1.54-12.2-4.56-6.38-3.9-11.5-9.12-10.7-10.1.95-1.16,9.52,4.48,11.22,2.72,1.85-1.91-6.07-10.73-5.19-11.44.99-.81,11.34,10.06,12.78,8.99,1.47-1.09-7.46-13.94-6.13-14.89,1.28-.91,10.4,10.43,12.78,8.99,2.2-1.34-2.48-12.98-1.72-13.29.65-.26,3.1,8.86,7.31,8.74,3.53-.1,6.33-6.63,7.34-6.27,1.38.5-4.09,12.72-2.72,13.28,1.57.64,10.22-14.87,11.98-14.26,1.49.52-1.17,12.83-10.14,22.75Z"/><path class="cls-3" d="m355.83,257.04c-.15.32.63.75,1.26.94,1.02.3,2.75.28,3.86-.62,1.2-.98,1.09-2.53.54-2.65-.47-.1-.92.89-2.6,1.56-1.6.64-2.88.4-3.06.78Z"/><rect class="cls-10" x="320.04" y="198.84" width="50.25" height="60.62" rx="12" ry="12" transform="translate(-67.16 188.73) rotate(-27.98)"/><polyline class="cls-1" points="316.55 217.13 319.94 218.48 320.66 214.94"/><polyline class="cls-1" points="348.18 204.15 351.57 205.51 352.3 201.97"/><polyline class="cls-1" points="353.41 214 356.8 215.36 357.53 211.81"/><polyline class="cls-1" points="336.84 206.23 340.23 207.59 340.96 204.05"/><polyline class="cls-1" points="328.08 214.84 331.47 216.19 332.19 212.65"/><polyline class="cls-1" points="341.79 215.27 345.18 216.63 345.91 213.08"/><polyline class="cls-1" points="332.7 223.26 336.09 224.61 336.81 221.07"/><polyline class="cls-1" points="341.2 239.26 344.59 240.61 345.31 237.07"/><polyline class="cls-1" points="325.24 234.32 328.63 235.68 329.36 232.13"/><polyline class="cls-1" points="345.49 247.34 348.87 248.69 349.6 245.15"/><polyline class="cls-1" points="330.22 242.03 333.61 243.39 334.34 239.85"/><polyline class="cls-1" points="354.25 238.73 357.64 240.09 358.37 236.55"/><polyline class="cls-1" points="335.17 249.66 338.55 251.02 339.28 247.48"/><polyline class="cls-1" points="361.34 228.66 364.73 230.01 365.46 226.47"/><polyline class="cls-1" points="350.33 231.35 353.72 232.71 354.44 229.16"/><polyline class="cls-1" points="365.92 237.27 369.31 238.63 370.03 235.08"/><polyline class="cls-1" points="321.24 226.23 324.63 227.59 325.35 224.05"/><polyline class="cls-1" points="343.9 255.6 347.29 256.96 348.02 253.41"/><path class="cls-5" d="m333.74,255.71c-.23.22,3.17,4.03,7.97,4.37,2.18.16,4.25-.44,4.21-.73-.04-.31-2.47-.08-5.68-.86-4.22-1.02-6.32-2.96-6.5-2.79Z"/><g class="cls-13"><path class="cls-15" d="m345.25,156.74c-1.33.89-2.46,1.97-2.86,3.57-.36,1.43-.18,2.98.28,4.37s1.24,2.74,1.36,4.22c.11,1.39-.53,2.59-1.57,3.47-.62.52-.54,1.58,0,2.12.61.61,1.5.53,2.12,0,2.53-2.15,2.91-5.43,1.81-8.42-.45-1.23-1.08-2.46-1.18-3.79s.44-2.21,1.55-2.95c1.6-1.06.1-3.66-1.51-2.59h0Z"/></g><g class="cls-13"><path class="cls-15" d="m350.38,160.8c-.63,1.03-.76,2.2-.59,3.38.16,1.05.63,1.96,1,2.94.66,1.75.47,3.44-.58,5.05-.44.68-.14,1.66.54,2.05.73.43,1.61.14,2.05-.54,1.2-1.83,1.66-4.09,1.22-6.24-.21-1.06-.76-2-1.09-3.01-.15-.46-.22-.79-.22-1.18s.05-.57.27-.93c1.01-1.65-1.59-3.16-2.59-1.51h0Z"/></g><g class="cls-13"><path class="cls-15" d="m357.19,157.19c-.5,1.55-.85,3.22-.74,4.85s.73,3.08,1.28,4.62c.47,1.32.68,2.55.27,3.91-.38,1.26-1.16,2.28-2.18,3.08-.64.5-.53,1.6,0,2.12.63.63,1.48.5,2.12,0,2.44-1.92,3.7-5.16,3.16-8.22-.28-1.6-1.11-3.03-1.5-4.61-.4-1.66-.03-3.37.48-4.96.59-1.84-2.31-2.63-2.89-.8h0Z"/></g><g class="cls-13"><path class="cls-15" d="m110.27,94.37c-1.27.93-2.37,2.01-2.71,3.61-.31,1.5-.07,3.07.5,4.48s1.41,2.69,1.59,4.15c.17,1.31-.4,2.53-1.35,3.41-1.42,1.32.71,3.44,2.12,2.12,1.04-.97,1.82-2.28,2.1-3.68.33-1.63,0-3.2-.64-4.7-.52-1.24-1.26-2.47-1.44-3.83s.29-2.21,1.33-2.97c.65-.48.98-1.3.54-2.05-.38-.64-1.4-1.02-2.05-.54h0Z"/></g><g class="cls-13"><path class="cls-15" d="m116.18,102.56c-.58,1.06-.69,2.21-.47,3.38.2,1.09.78,2.05,1.23,3.05.74,1.63.59,3.33-.32,4.87-.98,1.67,1.61,3.18,2.59,1.51,1.1-1.87,1.5-4.15.95-6.26-.27-1.05-.85-1.95-1.26-2.94-.16-.39-.29-.88-.31-1.16-.03-.44,0-.63.18-.94.39-.71.18-1.63-.54-2.05s-1.66-.18-2.05.54h0Z"/></g><g class="cls-13"><path class="cls-15" d="m123.13,99.26c-.45,1.7-.7,3.46-.45,5.21.22,1.58.93,2.93,1.54,4.38,1.05,2.5.53,5.06-1.54,6.85-1.46,1.26.67,3.38,2.12,2.12,2.33-2.01,3.49-5.28,2.81-8.29-.34-1.51-1.19-2.82-1.68-4.27-.58-1.72-.36-3.47.09-5.2.49-1.87-2.4-2.67-2.89-.8h0Z"/></g><g class="cls-13"><path class="cls-15" d="m243.44,358.88c-1.33.89-2.46,1.97-2.86,3.57-.36,1.43-.18,2.98.28,4.37s1.24,2.74,1.36,4.22c.11,1.39-.53,2.59-1.57,3.47-.62.52-.54,1.58,0,2.12.61.61,1.5.53,2.12,0,2.53-2.15,2.91-5.43,1.81-8.42-.45-1.23-1.08-2.46-1.18-3.79s.44-2.21,1.55-2.95c1.6-1.06.1-3.66-1.51-2.59h0Z"/></g><g class="cls-13"><path class="cls-15" d="m247.76,368.1c-.63,1.03-.76,2.2-.59,3.38.16,1.05.63,1.96,1,2.94.66,1.75.47,3.44-.58,5.05-.44.68-.14,1.66.54,2.05.73.43,1.61.14,2.05-.54,1.2-1.83,1.66-4.09,1.22-6.24-.21-1.06-.76-2-1.09-3.01-.15-.46-.22-.79-.22-1.18s.05-.57.27-.93c1.01-1.65-1.59-3.16-2.59-1.51h0Z"/></g><g class="cls-13"><path class="cls-15" d="m255.02,362.87c-.57,1.54-.98,3.19-.95,4.84s.55,3.04,1.02,4.54c.41,1.3.57,2.51.16,3.84-.37,1.17-1.13,2.27-2.13,3-.66.47-.98,1.3-.54,2.05.38.65,1.39,1.02,2.05.54,2.56-1.85,4.22-4.95,3.8-8.16-.22-1.69-1-3.22-1.29-4.89s.18-3.39.76-4.96c.28-.76-.31-1.64-1.05-1.85-.84-.23-1.56.29-1.85,1.05h0Z"/></g><g class="cls-13"><path class="cls-15" d="m178.1,234.21c-1.33.89-2.46,1.97-2.86,3.57-.36,1.43-.18,2.98.28,4.37s1.24,2.74,1.36,4.22c.11,1.39-.53,2.59-1.57,3.47-.62.52-.54,1.58,0,2.12.61.61,1.5.53,2.12,0,2.53-2.15,2.91-5.43,1.81-8.42-.45-1.23-1.08-2.46-1.18-3.79s.44-2.21,1.55-2.95c1.6-1.06.1-3.66-1.51-2.59h0Z"/></g><g class="cls-13"><path class="cls-15" d="m183.23,238.27c-.63,1.03-.76,2.2-.59,3.38.16,1.05.63,1.96,1,2.94.66,1.75.47,3.44-.58,5.05-.44.68-.14,1.66.54,2.05.73.43,1.61.14,2.05-.54,1.2-1.83,1.66-4.09,1.22-6.24-.21-1.06-.76-2-1.09-3.01-.15-.46-.22-.79-.22-1.18s.05-.57.27-.93c1.01-1.65-1.59-3.16-2.59-1.51h0Z"/></g><g class="cls-13"><path class="cls-15" d="m190.03,234.66c-.5,1.55-.85,3.22-.74,4.85s.73,3.08,1.28,4.62c.47,1.32.68,2.55.27,3.91-.38,1.26-1.16,2.28-2.18,3.08-.64.5-.53,1.6,0,2.12.63.63,1.48.5,2.12,0,2.44-1.92,3.7-5.16,3.16-8.22-.28-1.6-1.11-3.03-1.5-4.61-.4-1.66-.03-3.37.48-4.96.59-1.84-2.31-2.63-2.89-.8h0Z"/></g><g class="cls-13"><path class="cls-15" d="m275.76,6.38c-1.33.89-2.46,1.97-2.86,3.57-.36,1.43-.18,2.98.28,4.37s1.24,2.74,1.36,4.22c.11,1.39-.53,2.59-1.57,3.47-.62.52-.54,1.58,0,2.12.61.61,1.5.53,2.12,0,2.53-2.15,2.91-5.43,1.81-8.42-.45-1.23-1.08-2.46-1.18-3.79s.44-2.21,1.55-2.95c1.6-1.06.1-3.66-1.51-2.59h0Z"/></g><g class="cls-13"><path class="cls-15" d="m280.88,10.43c-.63,1.03-.76,2.2-.59,3.38.16,1.05.63,1.96,1,2.94.66,1.75.47,3.44-.58,5.05-.44.68-.14,1.66.54,2.05.73.43,1.61.14,2.05-.54,1.2-1.83,1.66-4.09,1.22-6.24-.21-1.06-.76-2-1.09-3.01-.15-.46-.22-.79-.22-1.18s.05-.57.27-.93c1.01-1.65-1.59-3.16-2.59-1.51h0Z"/></g><g class="cls-13"><path class="cls-15" d="m287.69,6.82c-.5,1.55-.85,3.22-.74,4.85s.73,3.08,1.28,4.62c.47,1.32.68,2.55.27,3.91-.38,1.26-1.16,2.28-2.18,3.08-.64.5-.53,1.6,0,2.12.63.63,1.48.5,2.12,0,2.44-1.92,3.7-5.16,3.16-8.22-.28-1.6-1.11-3.03-1.5-4.61-.4-1.66-.03-3.37.48-4.96.59-1.84-2.31-2.63-2.89-.8h0Z"/></g><path class="cls-7" d="m177.65,258.57c4.39-1.51,10.63-.12,11.94.17.7.15,2.1.49,3.78,1.13,2.34.88,9.03,3.4,12.4,9.8,1.35,2.56,2.87,5.43,1.84,8.49-2.77,8.25-22.32,12.51-26.19,7.6-3.49-4.43,6.36-15.61,3.81-17.4-2.73-1.92-14.25,10.66-17.28,8.78-2.78-1.72,1.4-15.72,9.7-18.56Z"/><path class="cls-7" d="m60.43,114.91c-1.51,3.53-1.55,6.48-1.54,7.13,0,8.22,6.3,10.14,8.46,17.6,2.7,9.31-4.1,16.75-2.15,17.71,3.62,1.79,26.95-23.6,21.97-30.61-2.71-3.82-12.82-.74-13.92-4.44-.61-2.07,2.35-3.65,5.01-8.97,1.94-3.89,4.45-11.26,2.03-12.91-3.14-2.15-15.63,4.58-19.86,14.5Z"/><path class="cls-7" d="m271.65,29.81c4.39-1.51,10.63-.12,11.94.17.7.15,2.1.49,3.78,1.13,2.34.88,9.03,3.4,12.4,9.8,1.35,2.56,2.87,5.43,1.84,8.49-2.77,8.25-22.32,12.51-26.19,7.6-3.49-4.43,6.36-15.61,3.81-17.4-2.73-1.92-14.25,10.66-17.28,8.78-2.78-1.72,1.4-15.72,9.7-18.56Z"/><path class="cls-7" d="m347.58,223.68c4.57-1.2,8.14,2.45,11.94.17,3.12-1.87,2.49-5.38,4.56-5.94,3.26-.89,7.41,7.1,10.95,13.91,4.2,8.08,3.93,10.15,3.48,11.57-1.47,4.57-6.96,8.71-10.81,8.11-3.73-.58-2.85-5.13-6.98-8.13-7.46-5.4-19.22,2.97-22.83-1.12-3.42-3.89,2.54-16.69,9.7-18.56Z"/><polyline class="cls-1" points="336.99 231.34 340.37 232.69 341.1 229.15"/><polyline class="cls-1" points="346.04 223.27 349.43 224.63 350.16 221.08"/><polyline class="cls-1" points="357.75 221.89 361.13 223.24 361.86 219.7"/><polyline class="cls-1" points="358.5 246.27 361.89 247.62 362.62 244.08"/><polyline class="cls-1" points="346.09 235.49 349.48 236.85 350.21 233.3"/><polyline class="cls-1" points="358.45 233.66 361.84 235.01 362.57 231.47"/><polyline class="cls-1" points="367.63 235.88 371.02 237.24 371.75 233.69"/><path class="cls-7" d="m256.9,416.09c-.76.3-2.9-.37-7.14-1.73-4.75-1.52-5.98-2.12-7.1-3.33-.57-.61-1.85-1.99-1.96-3.69-.43-6.26,15.22-12.96,15.7-12.29.23.32-3.01,2.12-3.47,5.31-.08.56-.28,1.93.54,2.56,1.42,1.1,4.12-1.43,5.83-.73,3.03,1.24,2.03,12.16-2.4,13.9Z"/><path class="cls-7" d="m228.46,375.97c1.47,0,1.49,7.35,3.92,7.38.68.01.84-.56,1.79-.67,2.54-.28,4.38,3.43,4.65,3.94.53,1,1.12,2.13.8,3.28-.89,3.13-7.93,4.47-9.41,2.53-1.33-1.75,2.08-5.89,1.13-6.62-.95-.72-4.59,3.75-6.15,3.11-2.37-.96,1.38-12.97,3.27-12.96Z"/><path class="cls-5" d="m263.4,413.83c-.09.33,6.97,2.67,12.81.93,2.66-.79,4.57-2.28,4.28-2.55-.3-.29-2.93,1-7.28,1.61-5.72.8-9.75-.23-9.81.02Z"/><path class="cls-11" d="m791,409h-57c-10,0-20.02-.69-30,0-15.04,1.04-19.26,3.33-23,0-2.53-2.26-3.29-5.71-3-19,.32-14.52,1.55-25.66,2-30,0,0,1.64-15.74,2-33,.24-11.56-.18-20.5-1-38-1.32-28.03-2.39-31.33,1-36,4.87-6.71,15.91-8.14,38-11,22.23-2.88,35.11-1.59,40-1,14.9,1.8,24.14,2.92,29,10,2.73,3.98,1.68,6.34,2,27,0,.05.33,9.37,1,28,.44,12.29.54,13.39,1,26,.64,17.79.97,26.68,1,32,.07,10.78-.42,26.1-3,45Z"/><path class="cls-12" d="m750,250c-.4-1.3-2.47-7.65-9-11-1.14-.59-8.91-4.41-16,0-5.75,3.58-6.84,9.96-7,11"/><path class="cls-12" d="m788.5,250.5c-8.4,2.83-19.58,5.96-33,8-19.51,2.97-34.42,2.21-38,2-9.41-.55-21.82-2.06-36-6"/><path class="cls-12" d="m790.5,257.5c-.08-1.87-.47-4.48-2-7-1.48-2.43-5.18-6.69-22-9-7.25-1-13.41-1.15-21-1-14.35.28-25.19,1.44-30,2-26,3.03-30.53,6.41-33,10-2.24,3.25-2.83,6.74-3,9"/><path class="cls-12" d="m791,257.55c-8.75,2.83-20.39,5.96-34.36,8-20.31,2.97-35.83,2.21-39.56,2-9.8-.55-22.72-2.06-37.48-6"/><path class="cls-12" d="m696.5,277.5c5.29,15.57,7.23,28.79,8,38,1.57,18.68-.59,33.49-3,50-1.89,12.95-4.2,23.59-6,31"/><path class="cls-12" d="m723.5,279.5c3.85,15.31,5.27,28.35,5.82,37.85,1.13,19.86-.97,35.45-3,50-1.79,12.84-4.02,23.49-5.82,31.15"/><path class="cls-12" d="m747.5,278.5c3.56,16.39,4.55,29.81,4.82,38.85.21,7.25.05,14.73-3,50-1.13,13.03-2.12,23.79-2.82,31.15"/><path class="cls-12" d="m772.5,277.5c.12,16.8.07,30.54,0,40-.16,22.38-.52,32.47-.18,49.85.26,13.28.78,24.11,1.18,31.15"/><path class="cls-15" d="m764.62,211.74c-1.33.89-2.46,1.97-2.86,3.57-.36,1.43-.18,2.98.28,4.37s1.24,2.74,1.36,4.22c.11,1.39-.53,2.59-1.57,3.47-.62.52-.54,1.58,0,2.12.61.61,1.5.53,2.12,0,2.53-2.15,2.91-5.43,1.81-8.42-.45-1.23-1.08-2.46-1.18-3.79s.44-2.21,1.55-2.95c1.6-1.06.1-3.66-1.51-2.59h0Z"/><path class="cls-15" d="m773.8,216.92c-1.33.89-2.46,1.97-2.86,3.57-.36,1.43-.18,2.98.28,4.37s1.24,2.74,1.36,4.22c.11,1.39-.53,2.59-1.57,3.47-.62.52-.54,1.58,0,2.12.61.61,1.5.53,2.12,0,2.53-2.15,2.91-5.43,1.81-8.42-.45-1.23-1.08-2.46-1.18-3.79s.44-2.21,1.55-2.95c1.6-1.06.1-3.66-1.51-2.59h0Z"/><path class="cls-15" d="m782.8,211.92c-1.33.89-2.46,1.97-2.86,3.57-.36,1.43-.18,2.98.28,4.37s1.24,2.74,1.36,4.22c.11,1.39-.53,2.59-1.57,3.47-.62.52-.54,1.58,0,2.12.61.61,1.5.53,2.12,0,2.53-2.15,2.91-5.43,1.81-8.42-.45-1.23-1.08-2.46-1.18-3.79s.44-2.21,1.55-2.95c1.6-1.06.1-3.66-1.51-2.59h0Z"/></svg>