<?xml version="1.0" encoding="UTF-8"?><svg id="Layer_1" xmlns="http://www.w3.org/2000/svg" width="277" height="167" viewBox="0 0 277 167"><defs><style>.cls-1{fill:#d4a972;}.cls-1,.cls-2{stroke:#775600;stroke-miterlimit:10;}.cls-2{fill:none;}</style></defs><path class="cls-1" d="m34.52,14.93c-13.45,7.66-4.32,51.67,1.52,71.56,2.22,7.55,19.23,65.11,51.75,73.18,5.06,1.26,16.24,2.78,27.4,3.25,3.99.17,4.22.05,22.83,0,16.8-.04,17.6.13,24.35,0,13.85-.26,23.27-.44,28.92-1.63,27.82-5.83,42.23-52.33,47.19-68.3,7.48-24.13,16.73-70.53,3.04-78.06-8.36-4.6-16.68,10.04-41.1,22.77-33.14,17.27-78.06,21.71-114.16,6.51C55.03,31.05,44.63,9.18,34.52,14.93Z"/><path class="cls-2" d="m29.64,54.14c14.4,7.18,40.71,18.23,76.54,22.32,14.91,1.7,55.38,4.92,99.63-9.38,19.29-6.24,33.46-13.92,42.56-19.6"/><path class="cls-2" d="m41.6,104.58c12.82,7.12,36.27,18.07,68.23,22.01,13.3,1.64,49.4,4.7,88.94-9.77,17.24-6.31,29.91-14.05,38.05-19.77"/><path class="cls-2" d="m52.5,22.5l1.37,106.93c15.82,7.21,38.29,15.01,65.9,17.23,31.52,2.53,55.2-3.39,60.88-4.88,20.3-5.34,36.2-13.45,47.04-20.03"/><line class="cls-2" x1="98.62" y1="48.56" x2="100.93" y2="161.79"/><line class="cls-2" x1="144.32" y1="53.14" x2="148.39" y2="161.79"/><line class="cls-2" x1="190.08" y1="42.52" x2="196.36" y2="159.75"/><line class="cls-2" x1="233.11" y1="15.67" x2="238.49" y2="92.99"/><path class="cls-2" d="m33.91,80.97c13.85,7.16,39.16,18.18,73.63,22.21,14.34,1.68,53.29,4.84,95.89-9.52,18.57-6.26,32.21-13.96,40.98-19.66"/><path class="cls-2" d="m34.6,16.06c-1.6-2.38-5.07-6.81-10.93-9.4-2.55-1.13-12.01-5.3-17.35.25-2.96,3.07-4.09,8.52-2.38,12.44,2.82,6.47,12.4,6.57,16.64,6.61,3.67.04,6.7-.64,8.8-1.27"/><path class="cls-2" d="m241.67,16.13c1.6-2.38,5.07-6.81,10.93-9.4,2.55-1.13,12.01-5.3,17.35.25,2.96,3.07,4.09,8.52,2.38,12.44-2.82,6.47-12.4,6.57-16.64,6.61-3.67.04-6.7-.64-8.8-1.27"/></svg>