<?xml version="1.0" encoding="UTF-8"?><svg id="Layer_1" xmlns="http://www.w3.org/2000/svg" width="820" height="435" viewBox="0 0 820 435"><defs><style>.cls-1{fill:#cec803;stroke:#cec803;}.cls-1,.cls-2,.cls-3,.cls-4,.cls-5,.cls-6,.cls-7,.cls-8,.cls-9,.cls-10,.cls-11,.cls-12,.cls-13,.cls-14,.cls-15,.cls-16,.cls-17,.cls-18,.cls-19,.cls-20,.cls-21{stroke-miterlimit:10;}.cls-1,.cls-2,.cls-3,.cls-4,.cls-5,.cls-6,.cls-7,.cls-8,.cls-9,.cls-20,.cls-22{opacity:.7;}.cls-2{fill:#e29300;stroke:#e29300;}.cls-3{fill:#0a4719;stroke:#0a4719;}.cls-4{fill:#f20c0c;stroke:#f20c0c;}.cls-5{fill:#eada4b;stroke:#eada4b;}.cls-6,.cls-12,.cls-15{fill:#fff;}.cls-6,.cls-15{stroke:#fff;}.cls-7{fill:#ffb4ff;stroke:#ffb4ff;}.cls-8,.cls-20{stroke:#665303;}.cls-8,.cls-23{fill:#665303;}.cls-9{fill:#9de034;stroke:#9de034;}.cls-10,.cls-12,.cls-21{stroke:#000;}.cls-11{fill:#695de9;stroke:#695de9;}.cls-13{fill:#e78cd0;}.cls-13,.cls-14{stroke:#e78cd0;}.cls-14{fill:#edafdd;}.cls-16{fill:#f3dad5;stroke:#edc9c3;}.cls-17{fill:#eee556;stroke:#ead900;}.cls-18{fill:#abf000;stroke:#9ed100;}.cls-19{fill:#c9e8ef;stroke:#80c6cf;}.cls-20,.cls-21{fill:none;}.cls-24,.cls-25,.cls-26,.cls-23{stroke-width:0px;}.cls-25{fill:#39b54a;}.cls-26{fill:#e2e0c5;}</style></defs><rect class="cls-26" x=".5" y="-.5" width="819" height="434"/><path class="cls-24" d="m819,0v433H1V0h818m1-1H0v435h820V-1h0Z"/><path class="cls-25" d="m157.63,173.48c-1.75-1.46-2.63-3.64-2.63-6.52,0-1.3.24-3.5.72-6.62.86-5.28,1.29-9.96,1.29-14.04,0-3.12-.13-5.55-.4-7.31-.26-1.75-.88-3.42-1.84-5-.48-.77-.72-1.32-.72-1.66,0-.58.32-1.18.97-1.8.65-.62,1.46-1.15,2.45-1.58.98-.43,1.91-.65,2.77-.65,1.54,0,2.53.58,2.99,1.73.46,1.15.68,3.07.68,5.76,0,1.44-.38,5.42-1.15,11.95-.77,5.81-1.15,10.1-1.15,12.89,0,1.97.23,3.45.68,4.43.46.98,1.21,1.64,2.27,1.98,1.05.38,2.54.58,4.46.58,4.27,0,8.06-.74,11.38-2.23.58-.19.96-.29,1.15-.29.48,0,.9.28,1.26.83.36.55.54,1.29.54,2.2,0,2.11-1.15,3.77-3.46,4.97-3.07,1.73-7.3,2.59-12.67,2.59-4.66,0-7.86-.73-9.61-2.2Z"/><path class="cls-25" d="m191.4,173.41c-2.09-1.51-3.13-4.24-3.13-8.17,0-1.68.24-4.06.72-7.13.43-2.45.73-4.58.9-6.41.17-1.82.25-3.82.25-5.98,0-3.02-.17-5.69-.5-7.99l-1.44.22c-.38,0-.65-.08-.79-.25-.14-.17-.22-.49-.22-.97,0-1.01.12-2,.36-2.99.24-.98.58-1.79,1.01-2.41.82-1.15,2.06-1.82,3.74-2.02,1.97-.24,4.55-.44,7.74-.61,3.19-.17,5.94-.25,8.24-.25,4.42,0,7.03.1,7.85.29.67.1,1.15.3,1.44.61.29.31.43.78.43,1.4,0,1.44-.5,2.76-1.51,3.96-.58.77-1.13,1.3-1.66,1.58-.53.29-1.25.41-2.16.36-3.55-.24-6.51-.36-8.86-.36-2.54,0-4.87.1-6.98.29,0,3.26-.27,7.08-.79,11.45,4.37-.29,9.34-.43,14.9-.43,1.01,0,1.68.11,2.02.32.34.22.5.71.5,1.48,0,.82-.2,1.69-.61,2.63-.41.94-.95,1.72-1.62,2.34-.34.34-.67.58-1.01.72-.34.14-.77.19-1.3.14-3.12-.14-6.67-.22-10.66-.22h-3.24c-.38,2.4-.58,4.22-.58,5.47,0,2.59.67,4.43,2.02,5.51s3.55,1.62,6.62,1.62c1.97,0,3.82-.18,5.54-.54,1.73-.36,3.48-.97,5.26-1.84.67-.38,1.17-.58,1.51-.58.53,0,1.04.37,1.55,1.12s.76,1.55.76,2.41c0,1.06-.38,2.04-1.15,2.95-.77.91-1.83,1.73-3.17,2.45-1.44.67-3.19,1.19-5.26,1.55-2.06.36-4.22.54-6.48.54-4.75,0-8.17-.76-10.26-2.27Z"/><path class="cls-25" d="m233.92,174.24c-.86-1.1-1.37-2.98-1.51-5.62-.24-6.05-.96-11.5-2.16-16.34-.91-3.89-2.06-7.27-3.46-10.15-1.39-2.88-3.22-5.23-5.47-7.06-.43-.38-.76-.73-.97-1.04-.22-.31-.32-.68-.32-1.12,0-1.06.55-2.06,1.66-3.02,1.1-.96,2.35-1.44,3.74-1.44,1.58,0,2.99.67,4.21,2.02,1.22,1.34,2.34,3.31,3.35,5.9,1.54,3.74,2.7,8,3.49,12.78.79,4.78,1.23,9.61,1.33,14.51.05,1.3.24,2.18.58,2.66.33.48.91.72,1.73.72,2.26,0,4.48-1.16,6.66-3.49,2.18-2.33,3.97-5.39,5.37-9.18,1.39-3.79,2.09-7.75,2.09-11.88,0-3.22-.43-5.78-1.3-7.7-.43-.91-.65-1.68-.65-2.3,0-1.01.67-1.96,2.02-2.84,1.34-.89,2.59-1.33,3.74-1.33,1.25,0,2.09.64,2.52,1.91.43,1.27.65,2.94.65,5,0,5.62-1.06,11.63-3.17,18.04s-4.98,11.78-8.6,16.13c-3.62,4.34-7.52,6.52-11.7,6.52-1.68,0-2.95-.55-3.82-1.66Z"/><path class="cls-25" d="m270.82,173.41c-2.09-1.51-3.13-4.24-3.13-8.17,0-1.68.24-4.06.72-7.13.43-2.45.73-4.58.9-6.41.17-1.82.25-3.82.25-5.98,0-3.02-.17-5.69-.5-7.99l-1.44.22c-.38,0-.65-.08-.79-.25-.14-.17-.22-.49-.22-.97,0-1.01.12-2,.36-2.99.24-.98.58-1.79,1.01-2.41.82-1.15,2.06-1.82,3.74-2.02,1.97-.24,4.55-.44,7.74-.61,3.19-.17,5.94-.25,8.24-.25,4.42,0,7.03.1,7.85.29.67.1,1.15.3,1.44.61.29.31.43.78.43,1.4,0,1.44-.5,2.76-1.51,3.96-.58.77-1.13,1.3-1.66,1.58-.53.29-1.25.41-2.16.36-3.55-.24-6.5-.36-8.86-.36-2.54,0-4.87.1-6.98.29,0,3.26-.26,7.08-.79,11.45,4.37-.29,9.33-.43,14.9-.43,1.01,0,1.68.11,2.02.32.33.22.5.71.5,1.48,0,.82-.2,1.69-.61,2.63-.41.94-.95,1.72-1.62,2.34-.34.34-.67.58-1.01.72-.34.14-.77.19-1.3.14-3.12-.14-6.67-.22-10.66-.22h-3.24c-.38,2.4-.58,4.22-.58,5.47,0,2.59.67,4.43,2.02,5.51,1.34,1.08,3.55,1.62,6.62,1.62,1.97,0,3.82-.18,5.54-.54s3.48-.97,5.26-1.84c.67-.38,1.17-.58,1.51-.58.53,0,1.04.37,1.55,1.12.5.74.76,1.55.76,2.41,0,1.06-.38,2.04-1.15,2.95-.77.91-1.83,1.73-3.17,2.45-1.44.67-3.19,1.19-5.26,1.55-2.06.36-4.22.54-6.48.54-4.75,0-8.17-.76-10.26-2.27Z"/><path class="cls-25" d="m305.59,173.48c-1.75-1.46-2.63-3.64-2.63-6.52,0-1.3.24-3.5.72-6.62.86-5.28,1.3-9.96,1.3-14.04,0-3.12-.13-5.55-.4-7.31-.26-1.75-.88-3.42-1.84-5-.48-.77-.72-1.32-.72-1.66,0-.58.32-1.18.97-1.8.65-.62,1.46-1.15,2.45-1.58.98-.43,1.91-.65,2.77-.65,1.54,0,2.53.58,2.99,1.73.46,1.15.68,3.07.68,5.76,0,1.44-.38,5.42-1.15,11.95-.77,5.81-1.15,10.1-1.15,12.89,0,1.97.23,3.45.68,4.43.46.98,1.21,1.64,2.27,1.98,1.06.38,2.54.58,4.46.58,4.27,0,8.06-.74,11.38-2.23.58-.19.96-.29,1.15-.29.48,0,.9.28,1.26.83.36.55.54,1.29.54,2.2,0,2.11-1.15,3.77-3.46,4.97-3.07,1.73-7.3,2.59-12.67,2.59-4.66,0-7.86-.73-9.61-2.2Z"/><path class="cls-25" d="m360.67,173.38c-2.57-1.54-4.55-3.72-5.94-6.55-1.39-2.83-2.09-6.19-2.09-10.08,0-4.94,1.07-9.61,3.2-14,2.13-4.39,5.16-7.92,9.07-10.58s8.44-4,13.57-4c3.07,0,5.54.47,7.42,1.4,1.87.94,2.81,2.27,2.81,4,0,1.3-.49,2.54-1.48,3.74-.98,1.2-2.05,1.8-3.2,1.8-.48,0-.86-.12-1.15-.36-1.34-.86-2.64-1.5-3.89-1.91-1.25-.41-2.66-.61-4.25-.61-3.31,0-6.16.76-8.53,2.27-2.38,1.51-4.19,3.55-5.44,6.12-1.25,2.57-1.87,5.36-1.87,8.39s.55,5.42,1.66,7.63c1.1,2.21,2.65,3.94,4.64,5.18,1.99,1.25,4.28,1.87,6.88,1.87,2.11,0,4.15-.42,6.12-1.26,1.97-.84,3.74-2,5.33-3.49.67-.62,1.34-.94,2.02-.94.53,0,.92.23,1.19.68.26.46.4.95.4,1.48,0,.86-.25,1.81-.76,2.84-.5,1.03-1.24,2.03-2.2,2.99-1.78,1.78-3.96,3.17-6.55,4.18-2.59,1.01-5.26,1.51-7.99,1.51-3.41,0-6.4-.77-8.96-2.3Z"/><path class="cls-25" d="m397.39,171.25c-2.9-2.95-4.36-7.21-4.36-12.78s1.51-11.02,4.54-16.06c-.91.82-1.78,1.22-2.59,1.22-1.39,0-2.09-1.1-2.09-3.31,0-1.39.28-2.56.83-3.49.55-.94,1.26-1.81,2.12-2.63,1.92-1.68,4.33-3.11,7.24-4.28,2.9-1.18,6.23-1.76,9.97-1.76,6.34,0,11.15,1.79,14.44,5.36,3.29,3.58,4.93,8.63,4.93,15.16,0,5.04-.97,9.61-2.92,13.72-1.94,4.1-4.67,7.34-8.17,9.72-3.5,2.38-7.51,3.56-12.02,3.56-5.04,0-9.01-1.48-11.92-4.43Zm21.71-5.36c2.3-1.15,4.19-2.96,5.65-5.44,1.46-2.47,2.2-5.56,2.2-9.25,0-3.46-.66-6.3-1.98-8.53-1.32-2.23-3.05-3.86-5.18-4.9-2.14-1.03-4.45-1.55-6.95-1.55-2.83,0-5.69.72-8.57,2.16-1.49,2.26-2.72,4.75-3.71,7.49-.98,2.74-1.48,5.5-1.48,8.28,0,4.42,1.22,7.76,3.67,10.04,2.45,2.28,5.47,3.42,9.07,3.42,2.54,0,4.97-.58,7.27-1.73Z"/><path class="cls-25" d="m437.38,172.94c0-5.42,1.03-12.65,3.1-21.67,1.3-5.52,2.98-10.8,5.04-15.84,1.06-2.54,2.28-4.46,3.67-5.76,1.39-1.3,2.98-1.94,4.75-1.94,1.49,0,2.72.48,3.71,1.44.98.96,1.57,2.52,1.76,4.68.43,4.56,1,8.86,1.69,12.89.7,4.03,1.4,6.91,2.12,8.64.24.62.5,1.06.79,1.3.29.24.65.36,1.08.36.53,0,.96-.13,1.3-.4.34-.26.7-.71,1.08-1.33,1.3-2.21,3.29-7.44,5.98-15.7,1.2-3.65,2.52-6.55,3.96-8.71,1.44-2.16,3.41-3.24,5.9-3.24,1.73,0,2.96.58,3.71,1.73.74,1.15,1.12,3.02,1.12,5.62,0,1.97-.07,4.03-.22,6.19-.19,3.36-.29,6-.29,7.92,0,9.31,1.51,15.62,4.54,18.94,1.01.91,1.51,1.78,1.51,2.59,0,1.2-.64,2.29-1.91,3.28-1.27.98-2.73,1.48-4.36,1.48-1.39,0-2.46-.44-3.2-1.33-.75-.89-1.36-2.22-1.84-4-.86-3.74-1.3-8.14-1.3-13.18,0-2.74.17-6.5.5-11.3.19-2.59.29-4.15.29-4.68,0-.82-.08-1.39-.25-1.73-.17-.33-.52-.5-1.04-.5-1.25,0-2.18,1.13-2.81,3.38-1.3,4.18-2.51,7.85-3.64,11.02-1.13,3.17-2.32,5.88-3.56,8.14-1.06,1.87-2.2,3.19-3.42,3.96-1.22.77-2.56,1.15-4,1.15-3.31,0-5.59-2.04-6.84-6.12-.67-2.21-1.27-5-1.8-8.39-.53-3.38-.89-7.04-1.08-10.98-.1-1.78-.67-2.66-1.73-2.66-1.15,0-2.06.86-2.74,2.59-.96,2.79-1.76,6.08-2.41,9.9-.65,3.82-.97,7.45-.97,10.91,0,1.68.1,3.67.29,5.98.14,1.34.22,2.59.22,3.74,0,1.34-.71,2.38-2.12,3.1-1.42.72-2.82,1.08-4.21,1.08-1.58,0-2.38-.84-2.38-2.52Z"/><path class="cls-25" d="m500.21,174.49c-.7-.65-1.04-1.98-1.04-4s.38-5.47,1.15-10.51c.77-5.14,1.15-9.84,1.15-14.11,0-2.5-.12-4.61-.36-6.34-.77.43-1.39.65-1.87.65-.43,0-.75-.19-.94-.58-.19-.38-.29-.98-.29-1.8,0-1.49.34-2.72,1.01-3.71.67-.98,1.85-1.91,3.53-2.77,1.78-.96,3.8-1.73,6.08-2.3,2.28-.58,4.55-.86,6.8-.86,4.66,0,8.39,1.22,11.2,3.67,2.81,2.45,4.21,5.71,4.21,9.79,0,3.22-.85,6.14-2.56,8.78-1.7,2.64-3.85,4.72-6.44,6.23-2.59,1.51-5.14,2.27-7.63,2.27-1.68,0-2.86-.37-3.53-1.12-.67-.74-1.01-1.91-1.01-3.49,0-1.92.46-2.88,1.37-2.88.24,0,.74.1,1.51.29.96.24,1.97.36,3.02.36,2.64,0,4.79-.74,6.44-2.23,1.66-1.49,2.48-3.41,2.48-5.76s-.9-4.31-2.7-5.72c-1.8-1.42-4.16-2.12-7.09-2.12-1.97,0-4.15.31-6.55.94-.14,3.17-.48,6.77-1.01,10.8-.72,6.05-1.08,10.54-1.08,13.46,0,1.87.17,3.41.5,4.61.33,1.2.96,2.23,1.87,3.1.67.67,1.01,1.39,1.01,2.16,0,1.1-.61,2.08-1.84,2.92s-2.77,1.26-4.64,1.26c-1.15,0-2.08-.32-2.77-.97Z"/><path class="cls-25" d="m539.23,173.48c-1.75-1.46-2.63-3.64-2.63-6.52,0-1.3.24-3.5.72-6.62.86-5.28,1.3-9.96,1.3-14.04,0-3.12-.13-5.55-.4-7.31-.26-1.75-.88-3.42-1.84-5-.48-.77-.72-1.32-.72-1.66,0-.58.32-1.18.97-1.8.65-.62,1.46-1.15,2.45-1.58.98-.43,1.91-.65,2.77-.65,1.54,0,2.53.58,2.99,1.73.46,1.15.68,3.07.68,5.76,0,1.44-.38,5.42-1.15,11.95-.77,5.81-1.15,10.1-1.15,12.89,0,1.97.23,3.45.68,4.43.46.98,1.21,1.64,2.27,1.98,1.06.38,2.54.58,4.46.58,4.27,0,8.06-.74,11.38-2.23.58-.19.96-.29,1.15-.29.48,0,.9.28,1.26.83.36.55.54,1.29.54,2.2,0,2.11-1.15,3.77-3.46,4.97-3.07,1.73-7.3,2.59-12.67,2.59-4.66,0-7.86-.73-9.61-2.2Z"/><path class="cls-25" d="m573,173.41c-2.09-1.51-3.13-4.24-3.13-8.17,0-1.68.24-4.06.72-7.13.43-2.45.73-4.58.9-6.41.17-1.82.25-3.82.25-5.98,0-3.02-.17-5.69-.5-7.99l-1.44.22c-.38,0-.65-.08-.79-.25-.14-.17-.22-.49-.22-.97,0-1.01.12-2,.36-2.99.24-.98.58-1.79,1.01-2.41.82-1.15,2.06-1.82,3.74-2.02,1.97-.24,4.55-.44,7.74-.61,3.19-.17,5.94-.25,8.24-.25,4.42,0,7.03.1,7.85.29.67.1,1.15.3,1.44.61.29.31.43.78.43,1.4,0,1.44-.5,2.76-1.51,3.96-.58.77-1.13,1.3-1.66,1.58-.53.29-1.25.41-2.16.36-3.55-.24-6.5-.36-8.86-.36-2.54,0-4.87.1-6.98.29,0,3.26-.26,7.08-.79,11.45,4.37-.29,9.33-.43,14.9-.43,1.01,0,1.68.11,2.02.32.33.22.5.71.5,1.48,0,.82-.21,1.69-.61,2.63-.41.94-.95,1.72-1.62,2.34-.34.34-.67.58-1.01.72-.34.14-.77.19-1.3.14-3.12-.14-6.67-.22-10.66-.22h-3.24c-.38,2.4-.58,4.22-.58,5.47,0,2.59.67,4.43,2.02,5.51s3.55,1.62,6.62,1.62c1.97,0,3.82-.18,5.54-.54,1.73-.36,3.48-.97,5.26-1.84.67-.38,1.18-.58,1.51-.58.53,0,1.04.37,1.55,1.12s.76,1.55.76,2.41c0,1.06-.38,2.04-1.15,2.95s-1.82,1.73-3.17,2.45c-1.44.67-3.19,1.19-5.26,1.55-2.06.36-4.22.54-6.48.54-4.75,0-8.17-.76-10.26-2.27Z"/><path class="cls-25" d="m615.91,174.49c-.7-.65-1.04-1.98-1.04-4s.31-4.97.94-8.86c.91-6,1.37-11.26,1.37-15.77,0-4.27-.38-7.51-1.15-9.72-3.74.1-7.13.53-10.15,1.3-1.15.19-1.83.29-2.02.29-.48,0-.8-.1-.97-.29-.17-.19-.25-.6-.25-1.22,0-.82.13-1.67.4-2.56.26-.89.61-1.64,1.04-2.27.77-1.15,2.04-1.85,3.82-2.09,2.11-.19,4.8-.38,8.06-.58,3.26-.19,6.36-.29,9.29-.29,6.1,0,9.62.1,10.58.29.67.1,1.14.3,1.4.61.26.31.4.8.4,1.48,0,1.3-.58,2.59-1.73,3.89-.58.67-1.12,1.14-1.62,1.4-.5.26-1.16.37-1.98.32-2.11-.19-4.9-.29-8.35-.29-.05,2.83-.43,7.03-1.15,12.6-.67,5.18-1.01,9.41-1.01,12.67,0,1.87.17,3.41.5,4.61.33,1.2.96,2.23,1.87,3.1.67.67,1.01,1.39,1.01,2.16,0,1.1-.61,2.08-1.84,2.92-1.22.84-2.77,1.26-4.64,1.26-1.15,0-2.08-.32-2.77-.97Z"/><path class="cls-25" d="m644.63,173.41c-2.09-1.51-3.13-4.24-3.13-8.17,0-1.68.24-4.06.72-7.13.43-2.45.73-4.58.9-6.41.17-1.82.25-3.82.25-5.98,0-3.02-.17-5.69-.5-7.99l-1.44.22c-.38,0-.65-.08-.79-.25-.14-.17-.22-.49-.22-.97,0-1.01.12-2,.36-2.99.24-.98.58-1.79,1.01-2.41.82-1.15,2.06-1.82,3.74-2.02,1.97-.24,4.55-.44,7.74-.61,3.19-.17,5.94-.25,8.24-.25,4.42,0,7.03.1,7.85.29.67.1,1.15.3,1.44.61.29.31.43.78.43,1.4,0,1.44-.5,2.76-1.51,3.96-.58.77-1.13,1.3-1.66,1.58-.53.29-1.25.41-2.16.36-3.55-.24-6.5-.36-8.86-.36-2.54,0-4.87.1-6.98.29,0,3.26-.26,7.08-.79,11.45,4.37-.29,9.33-.43,14.9-.43,1.01,0,1.68.11,2.02.32.33.22.5.71.5,1.48,0,.82-.21,1.69-.61,2.63-.41.94-.95,1.72-1.62,2.34-.34.34-.67.58-1.01.72-.34.14-.77.19-1.3.14-3.12-.14-6.67-.22-10.66-.22h-3.24c-.38,2.4-.58,4.22-.58,5.47,0,2.59.67,4.43,2.02,5.51s3.55,1.62,6.62,1.62c1.97,0,3.82-.18,5.54-.54,1.73-.36,3.48-.97,5.26-1.84.67-.38,1.18-.58,1.51-.58.53,0,1.04.37,1.55,1.12s.76,1.55.76,2.41c0,1.06-.38,2.04-1.15,2.95s-1.82,1.73-3.17,2.45c-1.44.67-3.19,1.19-5.26,1.55-2.06.36-4.22.54-6.48.54-4.75,0-8.17-.76-10.26-2.27Z"/><path class="cls-19" d="m725.54,385.88c-2.18,0-3.96-1.08-3.96-2.39v-11.47c0-1.31,1.78-2.39,3.96-2.39s3.96,1.08,3.96,2.39v11.47c0,1.31-1.78,2.39-3.96,2.39Z"/><path class="cls-19" d="m709.08,385.95c-2.18,0-3.96-1.08-3.96-2.39v-11.47c0-1.31,1.78-2.39,3.96-2.39s3.96,1.08,3.96,2.39v11.47c0,1.31-1.78,2.39-3.96,2.39Z"/><path class="cls-16" d="m680.73,350.99c-1.73-1.31-2.43-3.28-1.56-4.39l7.57-9.62c.87-1.1,2.99-.93,4.72.38s2.43,3.28,1.56,4.39l-7.57,9.62c-.87,1.1-2.99.93-4.72-.38Z"/><path class="cls-16" d="m753.39,348.63c-1.66,1.13-3.82,1.22-4.79.2l-8.54-8.91c-.98-1.02-.42-2.78,1.24-3.92s3.82-1.22,4.79-.2l8.54,8.91c.98,1.02.42,2.78-1.24,3.92Z"/><path class="cls-19" d="m738.52,367.31c-.25,2.65-3.23,4.83-6.62,4.84l-29.61.09c-3.39.01-5.97-2.15-5.72-4.81s3.23-4.83,6.62-4.84l29.61-.09c3.39-.01,5.97,2.15,5.72,4.81Z"/><path class="cls-18" d="m694.33,321.26c-3.61,6.57-7.22,13.13-10.82,19.7,2.27,1.38,4.54,2.75,6.8,4.13,3.02-2.75,6.05-5.51,9.07-8.26-.7,9.51-1.41,19.03-2.11,28.54h41.38c-.99-9.51-1.99-19.03-2.98-28.54,2.65,2.41,5.29,4.82,7.94,7.23,2.27-1.38,4.54-2.75,6.8-4.13-4.16-6.54-8.32-13.08-12.48-19.62"/><path class="cls-17" d="m514.78,235.08c-3.02-.88-18.37,27.65-23.76,59.71-1.99,11.84-2.14,21.15-1.96,26.92.21,6.76.97,15.97,3.36,26.79,4.67.52,9.33,1.04,14,1.57l1.67-9.86c1.86,3.57,3.71,7.14,5.57,10.71,1.85-2.35,5.04-6.42,9.05-11.48,11.99-15.14,18.7-20.23,16.96-26.09-.61-2.06-1.35-1.23-5.58-7.09-3.7-5.12-4.49-7.64-7.44-12.4-3.84-6.21-7.22-9.79-8.86-11.62-14.28-15.9.09-46.26-3-47.16Z"/><path class="cls-17" d="m599.66,232.16c3.02-.88,18.37,27.65,23.76,59.71,1.99,11.84,2.14,21.15,1.96,26.92-.21,6.76-.97,15.97-3.36,26.79-4.67.52-9.33,1.04-14,1.57l-1.67-9.86c-1.48,3.57-2.96,7.14-4.43,10.71-2.4-2.61-5.97-6.56-10.18-11.48-19.04-22.27-17.63-25.3-16.96-26.09,1.69-2.01,6.71,1.52,10.18-1.04,4.06-3-.11-9.84,2.85-18.45,2.03-5.92,5.97-8.4,8.86-11.62,14.28-15.9-.09-46.26,3-47.16Z"/><path class="cls-16" d="m570.82,386.14c-2.18,0-3.96-1.17-3.96-2.61v-12.52c0-1.43,1.78-2.61,3.96-2.61s3.96,1.17,3.96,2.61v12.52c0,1.43-1.78,2.61-3.96,2.61Z"/><path class="cls-13" d="m567.43,381.96c-.48.1-.91,1.93,0,3.13,1.23,1.63,4.17,1.11,4.52,1.04.69-.12,1.65-.29,2.26-1.04.96-1.17.51-3.03,0-3.13-.49-.1-.71,1.51-2.26,2.09-1.11.41-2.18.03-2.26,0-1.54-.57-1.8-2.18-2.26-2.09Z"/><path class="cls-16" d="m594.28,348.21c-1.94,1.47-4.33,1.76-5.32.65l-8.6-9.69c-.98-1.11-.2-3.22,1.74-4.68s4.33-1.76,5.32-.65l8.6,9.69c.98,1.11.2,3.22-1.74,4.68Z"/><path class="cls-16" d="m529.24,349.21c-2.19-1.13-3.36-3.07-2.6-4.33l6.61-10.94c.76-1.25,3.17-1.36,5.36-.23,2.19,1.13,3.36,3.07,2.6,4.33l-6.61,10.94c-.76,1.25-3.17,1.36-5.36.23Z"/><path class="cls-16" d="m552.17,385.57c-2.18,0-3.96-1.17-3.96-2.61v-12.52c0-1.43,1.78-2.61,3.96-2.61s3.96,1.17,3.96,2.61v12.52c0,1.43-1.78,2.61-3.96,2.61Z"/><path class="cls-14" d="m576.97,316.53c4.92,7.01,9.85,14.02,14.77,21.03-2.64,1.74-5.28,3.48-7.92,5.22-2.64-2.44-5.28-4.87-7.92-7.31,3.73,12.23,7.46,24.46,11.19,36.69-17.89-.06-35.77-.11-53.66-.17l11.57-35.66c-2.14,2.49-4.28,4.99-6.42,7.48-3.02-1.74-6.03-3.48-9.05-5.22,3.77-7.36,7.54-14.72,11.31-22.08"/><path class="cls-16" d="m599.08,230.42c-3.92-3.86-7.83-5.72-11.86-7.65-6.95-3.32-13.16-4.63-16.96-5.22-4.54-.7-7.99-.7-10.75-.7-6.28-.01-15.21-.03-25.25,3.94-8.06,3.19-13.07,7.47-14.33,8.58-.96.84-4.54,4.07-7.96,9.31-2.18,3.33-8.04,12.55-7.87,25.13.13,9.4,3.58,16.39,6.78,22.96,1.08,2.22,2.68,5.44,5.41,9.24,2.66,3.69,8.94,12.19,20.59,17.89,3.93,1.92,15.78,7.52,30.53,5.22,17.97-2.81,28-15.28,31.66-19.83,12.46-15.49,11.86-32.25,11.63-38.71-.05-1.5-.42-9.87-4.27-19.03-1.32-3.14-3.26-7.1-7.36-11.14Z"/><path class="cls-15" d="m558.33,345.77c.45-.15,1.76-.57,2.98,0,1.86.87,2.9,3.75,1.49,5.69-.97,1.34-2.87,1.87-4.48,1.42-1.93-.54-3.34-2.46-2.98-4.27.38-1.93,2.57-2.71,2.98-2.84Z"/><path class="cls-15" d="m559.04,330.08c.38-.13,1.52-.49,2.57,0,1.6.75,2.5,3.24,1.29,4.9-.84,1.15-2.47,1.61-3.86,1.23-1.66-.46-2.88-2.12-2.57-3.68.33-1.67,2.22-2.34,2.57-2.45Z"/><path class="cls-16" d="m607.57,285.38c1.34-.33,3.09.84,3.39,1.04.55.38.92.78,1.13,1.04,1.1,1.36,1.13,2.81,1.13,3.13,0,1.5-.7,2.59-1.13,3.13-1.11,1.39-2.62,1.85-3.39,2.09-.97.3-1.81.31-3.48.35-2.01.04-3.01.07-3.3-.35-.48-.69.84-1.76,2.26-4.17,2.18-3.72,1.8-5.87,3.39-6.26Z"/><path class="cls-21" d="m551.61,302.6c-.03.64-.04,2.22.88,3.77.29.49,1.79,2.9,4.38,2.83,2.08-.06,3.35-1.68,3.5-1.89,1.53-2.04.94-4.48.88-4.72"/><line class="cls-10" x1="539.15" y1="289.11" x2="541.42" y2="292.17"/><line class="cls-10" x1="541.43" y1="287.99" x2="542.83" y2="290.25"/><line class="cls-10" x1="570.2" y1="287.9" x2="568.03" y2="290.12"/><line class="cls-10" x1="572.53" y1="289" x2="570.22" y2="291.1"/><line class="cls-10" x1="543.77" y1="287.75" x2="545.48" y2="290.29"/><line class="cls-10" x1="568.12" y1="287.77" x2="566.36" y2="290.27"/><path class="cls-17" d="m515.98,232.16c8.54-8.9,19.44-12.01,24.88-13.57,4.55-1.3,23.34-6.13,42.97,2.09,4.41,1.85,12.63,5.39,19.22,13.57.96,1.19,5.49,6.94,7.92,16.7,3.7,14.88,1.14,33.51-4.52,34.44-6.94,1.13-9.48-25.75-27.14-30.26-17.37-4.44-37.66,15.78-40.71,12.52-2.25-2.41,9.14-13.18,6.78-15.65-1.79-1.88-11.09,1.47-18.09,7.31-15.11,12.59-13.08,31.38-15.83,31.31-3.82-.11-16.44-36.59,4.52-58.44Z"/><path class="cls-16" d="m512.67,291.42c-1.37-.16-2.95,1.2-3.22,1.43-.49.44-.8.88-.98,1.17-.9,1.48-.73,2.92-.69,3.24.21,1.49,1.06,2.49,1.55,2.97,1.29,1.25,2.86,1.53,3.65,1.67,1.01.18,1.84.1,3.5-.06,2-.19,3-.29,3.23-.74.38-.74-1.08-1.64-2.82-3.87-2.68-3.43-2.59-5.62-4.23-5.81Z"/><path class="cls-13" d="m548.77,381.39c-.48.1-.91,1.93,0,3.13,1.23,1.63,4.17,1.11,4.52,1.04.69-.12,1.65-.29,2.26-1.04.96-1.17.51-3.03,0-3.13-.49-.1-.71,1.51-2.26,2.09-1.11.41-2.18.03-2.26,0-1.54-.57-1.8-2.18-2.26-2.09Z"/><path class="cls-7" d="m534.08,292.99c.99-.85,2.98-.83,4.88-.81,1.5.02,3.01.03,3.69.68.43.41.49,1.03.03,1.47-.43.42-1.11.47-4.88.81-2.74.25-3.22.29-3.67.06-.87-.45-.81-1.54-.04-2.2Z"/><path class="cls-10" d="m540.8,292.07c.58-2.32,3.94-2.61,4.33-2.65.94-.08,2.51-.22,3.47.95.81.99.97,2.64.27,3.52-.37.46-.77.47-2.77.77-3.43.53-3.92.77-4.51.3-.8-.63-1.03-1.94-.79-2.9Z"/><ellipse class="cls-15" cx="542.55" cy="292.17" rx=".8" ry=".74"/><ellipse class="cls-15" cx="544.71" cy="291.27" rx=".1" ry=".15"/><path class="cls-7" d="m576.15,292.69c-.99-.85-2.98-.83-4.88-.81-1.5.02-3.01.03-3.69.68-.43.41-.49,1.03-.03,1.47.43.42,1.11.47,4.88.81,2.74.25,3.22.29,3.67.06.87-.45.81-1.54.04-2.2Z"/><path class="cls-10" d="m562.52,290.94c1.29-2.06,4.6-1.43,4.98-1.36.93.18,2.47.47,3.02,1.85.46,1.16.09,2.79-.86,3.44-.5.34-.89.24-2.9-.01-3.45-.42-3.99-.32-4.41-.93-.56-.82-.37-2.14.16-2.99Z"/><ellipse class="cls-15" cx="564.43" cy="291.83" rx=".8" ry=".74"/><ellipse class="cls-15" cx="566.43" cy="290.69" rx=".1" ry=".15"/><path class="cls-16" d="m753.99,237.39c-3.93-3.82-7.85-5.66-11.9-7.57-6.97-3.28-13.2-4.59-17.01-5.16-4.55-.69-8.02-.69-10.79-.69-6.29-.01-15.26-.03-25.32,3.9-8.09,3.16-13.11,7.39-14.37,8.49-.96.83-4.55,4.03-7.99,9.21-2.19,3.3-8.06,12.42-7.89,24.87.13,9.3,3.59,16.22,6.8,22.72,1.09,2.19,2.68,5.39,5.43,9.15,2.67,3.65,8.96,12.06,20.66,17.71,3.94,1.9,15.82,7.44,30.62,5.16,18.02-2.78,28.09-15.12,31.76-19.62,12.49-15.33,11.9-31.91,11.67-38.31-.05-1.48-.42-9.76-4.28-18.83-1.32-3.11-3.27-7.03-7.38-11.02Z"/><path class="cls-16" d="m665.86,296.04c-1.38-.16-2.96,1.18-3.23,1.42-.5.44-.81.87-.98,1.16-.91,1.46-.73,2.89-.69,3.2.21,1.47,1.06,2.46,1.56,2.94,1.3,1.24,2.87,1.51,3.66,1.65,1.01.18,1.84.1,3.51-.06,2-.19,3.01-.29,3.24-.73.38-.73-1.08-1.62-2.83-3.83-2.69-3.4-2.6-5.56-4.24-5.75Z"/><path class="cls-16" d="m763.61,290.47c1.34-.32,3.1.83,3.4,1.03.55.38.92.77,1.13,1.03,1.1,1.35,1.13,2.78,1.13,3.1,0,1.48-.7,2.57-1.13,3.1-1.11,1.38-2.63,1.83-3.4,2.07-.98.29-1.81.31-3.49.35-2.01.04-3.02.07-3.31-.35-.48-.68.84-1.74,2.27-4.13,2.19-3.68,1.8-5.81,3.4-6.2Z"/><path class="cls-7" d="m691.59,291.72c1-.84,2.99-.82,4.9-.8,1.5.02,3.02.03,3.7.67.43.4.49,1.02.03,1.45-.43.41-1.12.47-4.9.8-2.75.24-3.23.29-3.68.06-.87-.45-.82-1.52-.04-2.18Z"/><path class="cls-7" d="m738.06,290.53c-1-.84-2.99-.82-4.9-.8-1.5.02-3.02.03-3.7.67-.43.4-.49,1.02-.03,1.45.43.41,1.12.47,4.9.8,2.75.24,3.23.29,3.68.06.87-.45.82-1.52.04-2.18Z"/><path class="cls-10" d="m724.41,288.64c1.29-2.04,4.61-1.42,4.99-1.35.93.18,2.48.47,3.03,1.83.47,1.15.09,2.76-.86,3.41-.5.34-.89.23-2.91-.01-3.46-.42-4-.32-4.42-.92-.57-.81-.37-2.11.16-2.95Z"/><path class="cls-10" d="m697.36,290.73c.58-2.3,3.95-2.59,4.34-2.62.95-.08,2.52-.21,3.49.94.82.98.98,2.61.27,3.49-.37.46-.78.46-2.78.77-3.44.52-3.93.76-4.53.3-.8-.63-1.03-1.92-.79-2.87Z"/><ellipse class="cls-15" cx="725.41" cy="289.72" rx=".8" ry=".73"/><ellipse class="cls-15" cx="699.52" cy="291.13" rx=".8" ry=".73"/><ellipse class="cls-15" cx="701.84" cy="289.88" rx=".1" ry=".15"/><ellipse class="cls-15" cx="728.14" cy="288.79" rx=".1" ry=".15"/><path class="cls-17" d="m670.17,238.27c8.57-8.81,19.5-11.89,24.95-13.43,4.56-1.29,23.41-6.07,43.1,2.07,4.43,1.83,12.66,5.34,19.28,13.43.96,1.18,5.5,6.86,7.94,16.52,3.71,14.72,1.15,33.17-4.54,34.08-6.96,1.12-9.51-25.49-27.22-29.95-17.42-4.39-37.78,15.61-40.83,12.39-2.26-2.38,9.17-13.04,6.8-15.49-1.8-1.86-11.12,1.45-18.15,7.23-15.16,12.46-13.12,31.06-15.88,30.98-3.83-.11-16.49-36.21,4.54-57.83Z"/><path class="cls-12" d="m710.91,306.67c.88-.7,1.82,0,5.06,0s4.18-.7,5.06,0c1.16.93.83,3.21,0,4.65-.93,1.6-2.84,2.79-5.06,2.79s-4.13-1.19-5.06-2.79c-.83-1.44-1.16-3.72,0-4.65Z"/><path class="cls-15" d="m715.99,334.41c.38-.11,1.52-.45,2.57,0,1.6.69,2.5,2.96,1.29,4.49-.84,1.06-2.47,1.48-3.86,1.12-1.66-.43-2.88-1.94-2.57-3.37.33-1.53,2.22-2.14,2.57-2.24Z"/><path class="cls-15" d="m716.3,347.17c.45-.13,1.76-.53,2.98,0,1.86.8,2.9,3.44,1.49,5.21-.97,1.22-2.87,1.71-4.48,1.3-1.93-.49-3.34-2.25-2.98-3.91.38-1.77,2.57-2.48,2.98-2.6Z"/><path class="cls-11" d="m705.06,381.23c-.67.33-.64,2.49.62,3.68,1.49,1.4,4.23,1,4.42.97.04,0,.08-.01.1-.02,1.01-.16,1.86-.62,2.26-.96,1.21-1,1.28-3.33.54-3.68-.59-.28-1.3.85-3.4,1.03-.45.04-.84.03-1.13,0-2.1-.19-2.85-1.3-3.4-1.03Z"/><path class="cls-11" d="m721.8,381.53c-.67.33-.64,2.49.62,3.68,1.49,1.4,4.23,1,4.42.97.04,0,.08-.01.1-.02,1.01-.16,1.86-.62,2.26-.96,1.21-1,1.28-3.33.54-3.68-.59-.28-1.3.85-3.4,1.03-.45.04-.84.03-1.13,0-2.1-.19-2.85-1.3-3.4-1.03Z"/><path class="cls-8" d="m305.05,242.28c-.36-.02-.48-.9-.42-1.54.09-1.03.74-2.54,1.99-3.09,1.35-.59,2.77.23,2.68.77-.08.46-1.17.39-2.41,1.55-1.18,1.11-1.42,2.34-1.85,2.32Z"/><path class="cls-8" d="m260.02,103.28c.6.06.8,1.21.7,2.03-.15,1.31-1.24,3.19-3.33,3.76-2.27.62-4.64-.6-4.49-1.28.12-.58,1.96-.37,4.03-1.73,1.97-1.3,2.37-2.85,3.09-2.78Z"/><path class="cls-8" d="m194.35,32.04c-.43-.41.15-1.44.74-2.03.95-.94,2.99-1.75,4.97-.92,2.15.9,3.23,3.31,2.68,3.76-.46.38-1.76-.91-4.23-1.11-2.36-.19-3.66.79-4.16.3Z"/><path class="cls-8" d="m230.51,359.85c-2.66,3.7-6.72,9.35-13.17,10.02-4.14.43-7.36-1.39-12.65-4.38-6.82-3.85-12.56-9.1-11.9-10.13.78-1.22,9.99,4.36,11.44,2.5,1.57-2.02-7.42-10.9-6.65-11.66.87-.86,12.53,10.07,13.81,8.93,1.31-1.16-9.22-14.18-8.04-15.19,1.14-.98,11.65,10.48,13.81,8.93,2-1.44-4.18-13.32-3.47-13.66.61-.29,4.24,9.05,8.38,8.82,3.47-.19,5.36-7.01,6.41-6.66,1.43.48-2.34,13.23-.92,13.77,1.64.62,8.11-15.62,9.93-15.03,1.54.5.55,13.26-6.98,23.74Z"/><path class="cls-8" d="m253.81,414.77c-.11.34.72.76,1.37.93,1.04.28,2.75.21,3.72-.75,1.05-1.04.74-2.64.18-2.75-.47-.09-.79.95-2.35,1.68-1.5.7-2.79.49-2.92.89Z"/><path class="cls-3" d="m63.21,132.67c-.92-2.65-6.42-2.98-11.66-3.29-3.56-.21-5.34-.32-5.59.33-.78,1.99,10.49,10.5,15.3,7.51,1.51-.94,2.47-3.06,1.95-4.55Z"/><path class="cls-4" d="m44.63,154.51c1.24-3.53,4.17-10.3,10.88-16.01,2.6-2.21,12.65-10.78,26.28-8.62,10.12,1.61,20.83,8.91,23.84,20.46,3.79,14.54-7.21,25.88-9.57,28.31-1.61,1.66-12.19,12.21-27.56,10.74-2.94-.28-12.36-1.18-19.09-9.01-9.18-10.68-5.13-24.71-4.78-25.87Z"/><path class="cls-6" d="m60.94,179.02c-.23.46,5.68,5.8,12.22,4.74,2.98-.48,5.54-2.2,5.38-2.68-.17-.51-3.34.71-7.91.48-6.01-.31-9.52-2.89-9.69-2.55Z"/><path class="cls-5" d="m133.07,234.97c-4.37,3.03,2.05,30.43,25.51,42.12,22.92,11.41,54.96,4.28,56.38-.23,1.13-3.59-17.59-3.92-43.67-17.21-26.25-13.38-34.8-27.06-38.22-24.68Z"/><path class="cls-6" d="m175.76,279.08c-.04.34,7.24,2.56,12.76.61,2.52-.89,4.2-2.48,3.89-2.75-.34-.29-2.76,1.11-6.97,1.85-5.54.98-9.65.03-9.68.28Z"/><path class="cls-8" d="m131.99,241.13c-.7.13-1.34-1.1-1.52-2.06-.29-1.54.26-4.03,2.42-5.38,2.34-1.46,5.46-.89,5.54-.06.07.7-2.09,1.08-3.94,3.31-1.77,2.13-1.67,4.03-2.5,4.19Z"/><path class="cls-8" d="m215.06,275.02c.36-.04.62.81.67,1.45.08,1.03-.31,2.63-1.44,3.37-1.24.81-2.77.22-2.77-.32,0-.46,1.09-.57,2.12-1.92.98-1.28,1.01-2.54,1.43-2.59Z"/><path class="cls-1" d="m269.87,405.54l-25.41,15.95c-4.19,2.63-9.81,1.4-12.48-2.73l-25.49-39.43c-2.67-4.13-1.43-9.66,2.77-12.29l25.41-15.95c4.19-2.63,9.81-1.4,12.48,2.73l25.49,39.43c2.67,4.13,1.43,9.66-2.77,12.29Z"/><polyline class="cls-20" points="209.73 374.66 213.25 375.97 213.5 372.29"/><polyline class="cls-20" points="239.22 360.42 242.74 361.73 242.99 358.06"/><polyline class="cls-20" points="245.69 370.44 249.22 371.74 249.46 368.07"/><polyline class="cls-20" points="228.3 362.87 231.83 364.18 232.07 360.51"/><polyline class="cls-20" points="220.8 371.98 224.32 373.29 224.57 369.62"/><polyline class="cls-20" points="234.39 372.06 237.92 373.37 238.16 369.7"/><polyline class="cls-20" points="239.65 380.2 243.17 381.51 243.42 377.83"/><polyline class="cls-20" points="226.48 380.54 230.01 381.85 230.25 378.18"/><polyline class="cls-20" points="237 396.82 240.53 398.13 240.77 394.45"/><polyline class="cls-20" points="220.6 392.16 224.12 393.47 224.36 389.79"/><polyline class="cls-20" points="242.31 405.04 245.83 406.35 246.08 402.67"/><polyline class="cls-20" points="251.02 378.46 254.54 379.76 254.79 376.09"/><polyline class="cls-20" points="226.54 399.98 230.06 401.29 230.31 397.61"/><polyline class="cls-20" points="249.81 395.93 253.34 397.24 253.58 393.56"/><polyline class="cls-20" points="232.43 407.72 235.96 409.02 236.2 405.35"/><polyline class="cls-20" points="255.47 385.34 258.99 386.65 259.24 382.97"/><polyline class="cls-20" points="244.96 388.42 248.48 389.73 248.73 386.05"/><polyline class="cls-20" points="261.13 394.1 264.66 395.41 264.9 391.74"/><polyline class="cls-20" points="231.79 388.76 235.31 390.07 235.56 386.4"/><polyline class="cls-20" points="215.57 383.93 219.09 385.23 219.34 381.56"/><polyline class="cls-20" points="255.01 403.58 258.54 404.89 258.78 401.22"/><polyline class="cls-20" points="241.85 413.61 245.37 414.91 245.62 411.24"/><path class="cls-6" d="m231.84,413.99c-.2.24,3.67,4.07,8.44,4.29,2.18.1,4.14-.57,4.06-.86-.08-.32-2.45-.01-5.72-.73-4.3-.94-6.64-2.88-6.79-2.7Z"/><path class="cls-9" d="m220.67,24.35c3.68.8,7.08,3.79,13.9,9.78,6.74,5.92,6.82,7.16,10.72,9.56,6.2,3.81,9.1,2.58,14.55,4.93,8.86,3.82,16.71,13.76,17.42,24.6.7,10.66-5.74,18.47-9.41,22.93-2.17,2.64-10.74,12.72-25.66,15.37-4.45.79-13.7,2.43-22.92-2.64-9.67-5.33-14.5-15.42-15.32-23.7-.63-6.35,1.63-6.38,1.02-12.48-1.32-13.16-12-15.25-12.09-25.73-.07-9.34,8.35-16.12,9.98-17.37,1.51-1.16,9.26-7.11,17.81-5.26Z"/><path class="cls-6" d="m221.47,99.68c-.34.6,6.11,6.47,14.1,4.38,3.64-.95,6.93-3.38,6.8-3.95-.14-.61-4.11,1.28-9.57,1.54-7.19.34-11.09-2.42-11.34-1.97Z"/><path class="cls-2" d="m296.21,256.59c1.24-3.53,4.17-10.3,10.88-16.01,2.6-2.21,12.65-10.78,26.28-8.62,10.12,1.61,20.83,8.91,23.84,20.46,3.79,14.54-7.21,25.88-9.57,28.31-1.61,1.66-12.19,12.21-27.56,10.74-2.94-.28-12.36-1.18-19.09-9.01-9.18-10.68-5.13-24.71-4.78-25.87Z"/><g class="cls-22"><path class="cls-23" d="m329.7,237.6c.48,0,.48-.75,0-.75s-.48.75,0,.75h0Z"/></g><g class="cls-22"><path class="cls-23" d="m321.78,243.56c.48,0,.48-.75,0-.75s-.48.75,0,.75h0Z"/></g><g class="cls-22"><path class="cls-23" d="m335.14,257.21c.48,0,.48-.75,0-.75s-.48.75,0,.75h0Z"/></g><g class="cls-22"><path class="cls-23" d="m339.23,244.04c.48,0,.48-.75,0-.75s-.48.75,0,.75h0Z"/></g><g class="cls-22"><path class="cls-23" d="m304.66,257.12c.48,0,.48-.75,0-.75s-.48.75,0,.75h0Z"/></g><g class="cls-22"><path class="cls-23" d="m308.21,245.45c.48,0,.48-.75,0-.75s-.48.75,0,.75h0Z"/></g><g class="cls-22"><path class="cls-23" d="m322.42,263.54c.48,0,.48-.75,0-.75s-.48.75,0,.75h0Z"/></g><g class="cls-22"><path class="cls-23" d="m315.26,254.28c.48,0,.48-.75,0-.75s-.48.75,0,.75h0Z"/></g><g class="cls-22"><path class="cls-23" d="m327.28,249.72c.48,0,.48-.75,0-.75s-.48.75,0,.75h0Z"/></g><path class="cls-23" d="m347.6,253.86c.48,0,.48-.75,0-.75s-.48.75,0,.75h0Z"/><path class="cls-23" d="m346.07,278.01c.48,0,.48-.75,0-.75s-.48.75,0,.75h0Z"/><g class="cls-22"><path class="cls-23" d="m327.29,269.25c.48,0,.48-.75,0-.75s-.48.75,0,.75h0Z"/></g><g class="cls-22"><path class="cls-23" d="m341.12,264.38c.48,0,.48-.75,0-.75s-.48.75,0,.75h0Z"/></g><path class="cls-23" d="m349.77,268.4c.48,0,.48-.75,0-.75s-.48.75,0,.75h0Z"/><g class="cls-22"><path class="cls-23" d="m332.77,281.89c.48,0,.48-.75,0-.75s-.48.75,0,.75h0Z"/></g><g class="cls-22"><path class="cls-23" d="m315.34,274.94c.48,0,.48-.75,0-.75s-.48.75,0,.75h0Z"/></g><g class="cls-22"><path class="cls-23" d="m314.25,262.86c.48,0,.48-.75,0-.75s-.48.75,0,.75h0Z"/></g><g class="cls-22"><path class="cls-23" d="m301.16,268.1c.48,0,.48-.75,0-.75s-.48.75,0,.75h0Z"/></g><g class="cls-22"><path class="cls-23" d="m308.08,275.68c.48,0,.48-.75,0-.75s-.48.75,0,.75h0Z"/></g><g class="cls-22"><path class="cls-23" d="m327.62,277.83c.48,0,.48-.75,0-.75s-.48.75,0,.75h0Z"/></g><g class="cls-22"><path class="cls-23" d="m326.71,254.05c.48,0,.48-.75,0-.75s-.48.75,0,.75h0Z"/></g><g class="cls-22"><path class="cls-23" d="m338.06,273.43c.48,0,.48-.75,0-.75s-.48.75,0,.75h0Z"/></g><path class="cls-23" d="m351.56,259.99c.48,0,.48-.75,0-.75s-.48.75,0,.75h0Z"/><path class="cls-23" d="m348.95,241.91c.48,0,.48-.75,0-.75s-.48.75,0,.75h0Z"/><g class="cls-22"><path class="cls-23" d="m308.89,282.13c.48,0,.48-.75,0-.75s-.48.75,0,.75h0Z"/></g><g class="cls-22"><path class="cls-23" d="m325.07,285.06c.48,0,.48-.75,0-.75s-.48.75,0,.75h0Z"/></g><g class="cls-22"><path class="cls-23" d="m319.86,269.45c.48,0,.48-.75,0-.75s-.48.75,0,.75h0Z"/></g><g class="cls-22"><path class="cls-23" d="m308.88,267.56c.48,0,.48-.75,0-.75s-.48.75,0,.75h0Z"/></g><g class="cls-22"><path class="cls-23" d="m317.91,238.87c.48,0,.48-.75,0-.75s-.48.75,0,.75h0Z"/></g><g class="cls-22"><path class="cls-23" d="m340.85,251.47c.48,0,.48-.75,0-.75s-.48.75,0,.75h0Z"/></g><g class="cls-22"><path class="cls-23" d="m301.47,251.67c.48,0,.48-.75,0-.75s-.48.75,0,.75h0Z"/></g><g class="cls-22"><path class="cls-23" d="m333.07,264.14c.48,0,.48-.75,0-.75s-.48.75,0,.75h0Z"/></g><path class="cls-23" d="m352.52,249.78c.48,0,.48-.75,0-.75s-.48.75,0,.75h0Z"/><path class="cls-6" d="m313.73,284.27c-.31.36,3.34,5.36,9.09,5.13,2.62-.11,5.19-1.28,5.18-1.69-.01-.44-2.98.26-6.76-.38-4.97-.84-7.28-3.33-7.51-3.06Z"/></svg>