<?xml version="1.0" encoding="UTF-8"?><svg id="Layer_1" xmlns="http://www.w3.org/2000/svg" width="400" height="260" viewBox="0 0 400 260"><defs><style>.cls-1{fill:#ffb4ff;opacity:.7;stroke:#ffb4ff;}.cls-1,.cls-2,.cls-3,.cls-4,.cls-5,.cls-6,.cls-7,.cls-8,.cls-9,.cls-10,.cls-11,.cls-12{stroke-miterlimit:10;}.cls-2,.cls-4,.cls-12{stroke:#000;}.cls-3{fill:#695de9;stroke:#695de9;}.cls-4,.cls-7{fill:#fff;}.cls-5{fill:#e78cd0;}.cls-5,.cls-6{stroke:#e78cd0;}.cls-6{fill:#edafdd;}.cls-7{stroke:#fff;}.cls-8{fill:#f3dad5;stroke:#edc9c3;}.cls-9{fill:#eee556;stroke:#ead900;}.cls-10{fill:#abf000;stroke:#9ed100;}.cls-11{fill:#c9e8ef;stroke:#80c6cf;}.cls-12{fill:none;}</style></defs><path class="cls-11" d="m335.89,255.69c-3.09,0-5.62-1.58-5.62-3.51v-16.84c0-1.93,2.53-3.51,5.62-3.51s5.62,1.58,5.62,3.51v16.84c0,1.93-2.53,3.51-5.62,3.51Z"/><path class="cls-11" d="m312.52,255.8c-3.09,0-5.62-1.58-5.62-3.51v-16.84c0-1.93,2.53-3.51,5.62-3.51s5.62,1.58,5.62,3.51v16.84c0,1.93-2.53,3.51-5.62,3.51Z"/><path class="cls-8" d="m272.28,204.47c-2.45-1.92-3.45-4.82-2.22-6.44l10.74-14.12c1.23-1.62,4.24-1.37,6.69.56,2.45,1.92,3.45,4.82,2.22,6.44l-10.74,14.12c-1.23,1.62-4.24,1.37-6.69-.56Z"/><path class="cls-8" d="m375.41,201c-2.35,1.66-5.42,1.8-6.8.3l-12.12-13.09c-1.39-1.5-.6-4.09,1.75-5.75s5.42-1.8,6.8-.3l12.12,13.09c1.39,1.5.6,4.09-1.75,5.75Z"/><path class="cls-11" d="m354.3,228.43c-.35,3.9-4.58,7.1-9.39,7.11l-42.02.13c-4.81.02-8.47-3.16-8.12-7.06.35-3.9,4.58-7.1,9.39-7.11l42.02-.13c4.81-.02,8.47,3.16,8.12,7.06Z"/><path class="cls-10" d="m291.59,160.81c-5.12,9.64-10.24,19.29-15.36,28.93,3.22,2.02,6.44,4.04,9.66,6.07,4.29-4.04,8.58-8.09,12.88-12.13-1,13.97-2,27.94-3,41.91h58.73c-1.41-13.97-2.82-27.94-4.23-41.91,3.76,3.54,7.51,7.08,11.27,10.61,3.22-2.02,6.44-4.04,9.66-6.07-5.9-9.6-11.8-19.21-17.71-28.81"/><path class="cls-9" d="m36.76,34.28c-4.29-1.29-26.08,40.6-33.73,87.67C.21,139.33,0,152.99.25,161.46c.29,9.93,1.38,23.45,4.77,39.34,6.62.77,13.24,1.53,19.86,2.3l2.38-14.47c2.63,5.24,5.27,10.49,7.9,15.73,2.62-3.46,7.16-9.43,12.84-16.86,17.02-22.23,26.54-29.71,24.07-38.31-.87-3.02-1.92-1.8-7.93-10.41-5.25-7.52-6.38-11.22-10.56-18.21-5.45-9.11-10.24-14.38-12.57-17.06-20.27-23.35.13-67.92-4.25-69.25Z"/><path class="cls-9" d="m157.22,29.99c4.29-1.29,26.08,40.6,33.73,87.67,2.83,17.39,3.04,31.05,2.79,39.52-.29,9.93-1.38,23.45-4.77,39.34-6.62.77-13.24,1.53-19.86,2.3l-2.38-14.47c-2.1,5.24-4.2,10.49-6.29,15.73-3.4-3.83-8.48-9.64-14.44-16.86-27.02-32.7-25.02-37.15-24.07-38.31,2.4-2.96,9.52,2.23,14.44-1.53,5.77-4.41-.16-14.45,4.04-27.09,2.89-8.69,8.47-12.33,12.57-17.06,20.27-23.35-.13-67.92,4.25-69.25Z"/><path class="cls-8" d="m116.3,256.08c-3.09,0-5.62-1.72-5.62-3.83v-18.39c0-2.11,2.53-3.83,5.62-3.83s5.62,1.72,5.62,3.83v18.39c0,2.11-2.53,3.83-5.62,3.83Z"/><path class="cls-5" d="m111.49,249.95c-.67.14-1.29,2.83,0,4.6,1.74,2.39,5.92,1.62,6.42,1.53.99-.18,2.34-.43,3.21-1.53,1.36-1.72.72-4.45,0-4.6-.69-.14-1.01,2.22-3.21,3.06-1.57.6-3.1.04-3.21,0-2.19-.84-2.55-3.2-3.21-3.06Z"/><path class="cls-8" d="m149.58,200.39c-2.75,2.15-6.15,2.58-7.55.95l-12.2-14.23c-1.4-1.63-.29-4.72,2.46-6.88,2.75-2.15,6.15-2.58,7.55-.95l12.2,14.23c1.4,1.63.29,4.72-2.46,6.88Z"/><path class="cls-8" d="m57.28,201.86c-3.11-1.65-4.77-4.51-3.7-6.35l9.38-16.06c1.07-1.84,4.5-1.99,7.6-.34s4.77,4.51,3.7,6.35l-9.38,16.06c-1.07,1.84-4.5,1.99-7.6.34Z"/><path class="cls-8" d="m89.82,255.24c-3.09,0-5.62-1.72-5.62-3.83v-18.39c0-2.11,2.53-3.83,5.62-3.83s5.62,1.72,5.62,3.83v18.39c0,2.11-2.53,3.83-5.62,3.83Z"/><path class="cls-6" d="m125.03,153.87c6.99,10.29,13.97,20.59,20.96,30.88-3.74,2.55-7.49,5.11-11.23,7.66-3.74-3.58-7.49-7.15-11.23-10.73,5.3,17.96,10.59,35.92,15.89,53.88-25.39-.08-50.77-.16-76.16-.25l16.43-52.36c-3.04,3.66-6.07,7.33-9.11,10.99-4.28-2.55-8.56-5.11-12.84-7.66,5.35-10.8,10.7-21.61,16.05-32.41"/><path class="cls-8" d="m156.4,27.43c-5.56-5.66-11.11-8.4-16.83-11.23-9.86-4.87-18.68-6.8-24.07-7.66-6.44-1.02-11.34-1.02-15.26-1.03-8.91-.02-21.59-.05-35.83,5.78-11.44,4.69-18.54,10.97-20.34,12.6-1.36,1.24-6.44,5.98-11.3,13.67-3.09,4.89-11.41,18.43-11.16,36.9.18,13.8,5.08,24.07,9.63,33.71,1.54,3.26,3.8,7.99,7.68,13.57,3.77,5.42,12.68,17.9,29.23,26.27,5.57,2.82,22.39,11.04,43.33,7.66,25.5-4.12,39.75-22.44,44.94-29.11,17.68-22.74,16.84-47.35,16.51-56.84-.08-2.2-.6-14.49-6.06-27.94-1.87-4.61-4.63-10.43-10.45-16.35Z"/><path class="cls-7" d="m98.57,196.81c.63-.21,2.5-.84,4.24,0,2.64,1.28,4.12,5.51,2.12,8.35-1.38,1.96-4.07,2.75-6.35,2.09-2.74-.79-4.74-3.61-4.24-6.26.54-2.84,3.65-3.98,4.24-4.18Z"/><path class="cls-7" d="m99.58,173.76c.55-.18,2.15-.73,3.65,0,2.27,1.1,3.55,4.75,1.82,7.2-1.19,1.69-3.5,2.37-5.47,1.8-2.36-.68-4.08-3.11-3.65-5.4.46-2.45,3.14-3.43,3.65-3.6Z"/><path class="cls-8" d="m168.46,108.14c1.9-.48,4.39,1.23,4.81,1.53.78.56,1.3,1.15,1.6,1.53,1.56,2,1.6,4.13,1.6,4.6,0,2.2-1,3.81-1.6,4.6-1.58,2.05-3.72,2.72-4.81,3.06-1.38.43-2.57.46-4.94.51-2.85.06-4.28.1-4.69-.51-.68-1.01,1.19-2.58,3.21-6.13,3.1-5.46,2.55-8.63,4.81-9.19Z"/><path class="cls-12" d="m89.03,133.42c-.05.94-.05,3.26,1.24,5.54.41.72,2.54,4.26,6.22,4.16,2.96-.08,4.75-2.47,4.97-2.77,2.18-2.99,1.33-6.58,1.24-6.93"/><line class="cls-2" x1="71.35" y1="113.61" x2="74.57" y2="118.1"/><line class="cls-2" x1="74.58" y1="111.97" x2="76.57" y2="115.29"/><line class="cls-2" x1="115.41" y1="111.83" x2="112.33" y2="115.09"/><line class="cls-2" x1="118.71" y1="113.45" x2="115.45" y2="116.54"/><line class="cls-2" x1="77.91" y1="111.62" x2="80.33" y2="115.35"/><line class="cls-2" x1="112.47" y1="111.64" x2="109.96" y2="115.32"/><path class="cls-9" d="m38.47,29.99c12.12-13.07,27.59-17.64,35.31-19.92,6.45-1.91,33.12-9,60.98,3.06,6.26,2.71,17.92,7.92,27.28,19.92,1.36,1.74,7.79,10.18,11.23,24.52,5.25,21.84,1.62,49.21-6.42,50.57-9.84,1.66-13.46-37.82-38.52-44.44-24.65-6.51-53.46,23.17-57.77,18.39-3.2-3.54,12.97-19.35,9.63-22.98-2.54-2.76-15.74,2.16-25.68,10.73-21.45,18.49-18.57,46.08-22.47,45.97-5.42-.16-23.33-53.73,6.42-85.81Z"/><path class="cls-8" d="m33.77,117c-1.95-.24-4.19,1.76-4.57,2.11-.7.65-1.14,1.3-1.39,1.72-1.28,2.17-1.04,4.29-.98,4.75.29,2.18,1.5,3.66,2.21,4.36,1.84,1.84,4.06,2.25,5.18,2.45,1.43.26,2.61.14,4.97-.09,2.84-.28,4.25-.42,4.58-1.08.54-1.09-1.53-2.41-4-5.69-3.8-5.04-3.68-8.24-6-8.53Z"/><path class="cls-5" d="m85.01,249.11c-.67.14-1.29,2.83,0,4.6,1.74,2.39,5.92,1.62,6.42,1.53.99-.18,2.34-.43,3.21-1.53,1.36-1.72.72-4.45,0-4.6-.69-.14-1.01,2.22-3.21,3.06-1.57.6-3.1.04-3.21,0-2.19-.84-2.55-3.2-3.21-3.06Z"/><path class="cls-1" d="m64.15,119.31c1.41-1.25,4.23-1.22,6.93-1.19,2.13.02,4.27.04,5.23.99.6.6.69,1.51.04,2.16-.61.61-1.58.69-6.93,1.19-3.89.36-4.57.43-5.21.09-1.23-.67-1.16-2.26-.06-3.24Z"/><path class="cls-2" d="m73.69,117.96c.82-3.41,5.59-3.84,6.14-3.89,1.34-.12,3.57-.32,4.93,1.4,1.15,1.45,1.38,3.88.39,5.17-.52.68-1.1.69-3.94,1.14-4.87.77-5.56,1.13-6.4.44-1.13-.93-1.46-2.85-1.12-4.26Z"/><ellipse class="cls-7" cx="76.18" cy="118.1" rx="1.13" ry="1.08"/><ellipse class="cls-7" cx="79.24" cy="116.79" rx=".15" ry=".22"/><path class="cls-1" d="m123.86,118.86c-1.41-1.25-4.23-1.22-6.93-1.19-2.13.02-4.27.04-5.23.99-.6.6-.69,1.51-.04,2.16.61.61,1.58.69,6.93,1.19,3.89.36,4.57.43,5.21.09,1.23-.67,1.16-2.26.06-3.24Z"/><path class="cls-2" d="m104.52,116.31c1.83-3.03,6.52-2.1,7.07-2,1.32.26,3.51.69,4.29,2.71.66,1.71.13,4.09-1.22,5.05-.71.5-1.26.35-4.11-.02-4.89-.62-5.66-.47-6.26-1.37-.8-1.2-.52-3.14.23-4.38Z"/><ellipse class="cls-7" cx="107.23" cy="117.6" rx="1.13" ry="1.08"/><ellipse class="cls-7" cx="110.06" cy="115.93" rx=".15" ry=".22"/><path class="cls-8" d="m376.27,37.67c-5.58-5.6-11.14-8.31-16.88-11.11-9.89-4.82-18.74-6.73-24.14-7.58-6.46-1.01-11.38-1.01-15.31-1.02-8.93-.02-21.66-.05-35.94,5.72-11.48,4.64-18.6,10.85-20.4,12.47-1.36,1.23-6.46,5.91-11.34,13.53-3.1,4.84-11.44,18.24-11.2,36.51.18,13.65,5.09,23.82,9.66,33.36,1.54,3.22,3.81,7.91,7.71,13.43,3.78,5.36,12.72,17.71,29.32,26,5.59,2.79,22.46,10.93,43.46,7.58,25.58-4.08,39.87-22.21,45.07-28.81,17.73-22.5,16.89-46.85,16.56-56.24-.08-2.18-.6-14.34-6.08-27.65-1.88-4.57-4.65-10.32-10.48-16.18Z"/><path class="cls-8" d="m251.18,123.78c-1.96-.24-4.2,1.74-4.58,2.08-.7.64-1.14,1.28-1.39,1.7-1.28,2.15-1.04,4.25-.98,4.71.29,2.16,1.5,3.62,2.21,4.32,1.84,1.82,4.07,2.22,5.2,2.43,1.43.26,2.62.14,4.98-.09,2.84-.28,4.27-.42,4.6-1.07.55-1.08-1.53-2.39-4.01-5.63-3.81-4.99-3.69-8.16-6.02-8.44Z"/><path class="cls-8" d="m389.91,115.61c1.91-.47,4.4,1.22,4.83,1.52.78.55,1.31,1.13,1.61,1.52,1.57,1.98,1.61,4.09,1.61,4.55,0,2.18-1,3.77-1.61,4.55-1.58,2.03-3.74,2.69-4.83,3.03-1.38.43-2.57.46-4.95.51-2.86.06-4.29.1-4.7-.51-.69-1,1.2-2.55,3.22-6.07,3.11-5.4,2.56-8.54,4.83-9.1Z"/><path class="cls-1" d="m287.7,117.45c1.41-1.24,4.24-1.21,6.95-1.18,2.14.02,4.28.04,5.25.98.61.59.69,1.49.04,2.13-.62.61-1.58.69-6.95,1.18-3.9.36-4.59.43-5.23.09-1.23-.66-1.16-2.24-.06-3.2Z"/><path class="cls-1" d="m353.65,115.69c-1.41-1.24-4.24-1.21-6.95-1.18-2.14.02-4.28.04-5.25.98-.61.59-.69,1.49-.04,2.13.62.61,1.58.69,6.95,1.18,3.9.36,4.59.43,5.23.09,1.23-.66,1.16-2.24.06-3.2Z"/><path class="cls-2" d="m334.28,112.92c1.83-3,6.54-2.08,7.09-1.98,1.32.26,3.52.69,4.3,2.69.66,1.69.13,4.05-1.22,5-.71.5-1.27.34-4.13-.01-4.91-.62-5.68-.47-6.28-1.36-.8-1.19-.52-3.1.23-4.34Z"/><path class="cls-2" d="m295.89,115.99c.82-3.37,5.61-3.8,6.16-3.85,1.34-.12,3.58-.32,4.95,1.38,1.16,1.43,1.39,3.84.39,5.12-.52.67-1.1.68-3.95,1.12-4.88.76-5.57,1.12-6.42.43-1.14-.92-1.46-2.82-1.13-4.21Z"/><ellipse class="cls-7" cx="335.7" cy="114.5" rx="1.14" ry="1.07"/><ellipse class="cls-7" cx="298.95" cy="116.58" rx="1.14" ry="1.07"/><ellipse class="cls-7" cx="302.24" cy="114.75" rx=".15" ry=".22"/><ellipse class="cls-7" cx="339.57" cy="113.14" rx=".15" ry=".22"/><path class="cls-9" d="m257.3,38.96c12.16-12.94,27.67-17.46,35.41-19.71,6.47-1.89,33.22-8.91,61.17,3.03,6.28,2.68,17.97,7.84,27.36,19.71,1.37,1.73,7.81,10.08,11.27,24.26,5.27,21.62,1.63,48.7-6.44,50.04-9.87,1.64-13.5-37.42-38.63-43.97-24.73-6.45-53.62,22.92-57.95,18.2-3.21-3.5,13.01-19.15,9.66-22.75-2.55-2.73-15.79,2.14-25.75,10.61-21.52,18.3-18.62,45.6-22.54,45.49-5.43-.16-23.4-53.17,6.44-84.92Z"/><path class="cls-4" d="m315.12,139.4c1.25-1.03,2.58,0,7.18,0s5.93-1.03,7.18,0c1.64,1.36,1.18,4.71,0,6.82-1.31,2.34-4.03,4.09-7.18,4.09s-5.86-1.75-7.18-4.09c-1.18-2.11-1.64-5.46,0-6.82Z"/><path class="cls-7" d="m322.32,180.13c.55-.17,2.15-.66,3.65,0,2.27,1.01,3.55,4.35,1.82,6.59-1.19,1.55-3.5,2.17-5.47,1.65-2.36-.62-4.08-2.85-3.65-4.94.46-2.24,3.14-3.14,3.65-3.3Z"/><path class="cls-7" d="m322.76,198.86c.63-.2,2.5-.77,4.24,0,2.64,1.17,4.12,5.05,2.12,7.65-1.38,1.8-4.07,2.52-6.35,1.91-2.74-.72-4.74-3.3-4.24-5.74.54-2.6,3.65-3.64,4.24-3.82Z"/><path class="cls-3" d="m306.81,248.88c-.94.48-.91,3.66.88,5.41,2.11,2.06,6.01,1.47,6.28,1.43.06,0,.11-.02.14-.02,1.43-.24,2.64-.92,3.21-1.4,1.71-1.47,1.82-4.89.76-5.41-.83-.41-1.84,1.24-4.83,1.52-.63.06-1.19.04-1.61,0-2.98-.27-4.05-1.91-4.83-1.52Z"/><path class="cls-3" d="m330.57,249.32c-.94.48-.91,3.66.88,5.41,2.11,2.06,6.01,1.47,6.28,1.43.06,0,.11-.02.14-.02,1.43-.24,2.64-.92,3.21-1.4,1.71-1.47,1.82-4.89.76-5.41-.83-.41-1.84,1.24-4.83,1.52-.63.06-1.19.04-1.61,0-2.98-.27-4.05-1.91-4.83-1.52Z"/></svg>