<?xml version="1.0" encoding="UTF-8"?><svg id="Layer_1" xmlns="http://www.w3.org/2000/svg" viewBox="0 0 105 140"><defs><style>.cls-1{fill:#fff;stroke:#fff;}.cls-1,.cls-2,.cls-3{stroke-miterlimit:10;}.cls-2{fill:#665303;stroke:#665303;}.cls-3{fill:#9de034;stroke:#9de034;}</style></defs><path class="cls-2" d="m57,132.5c.63.5.02,1.95-.68,2.81-1.12,1.38-3.7,2.74-6.45,1.9-2.99-.91-4.77-3.99-4.1-4.66.56-.57,2.47.98,5.76.91,3.15-.07,4.73-1.55,5.47-.96Z"/><path class="cls-2" d="m35.03,4.69c-.18-.78,1.21-1.54,2.3-1.78,1.75-.39,4.61.14,6.24,2.5,1.76,2.56,1.22,6.07.28,6.18-.8.1-1.31-2.29-3.93-4.28-2.5-1.9-4.67-1.71-4.88-2.63Z"/><path class="cls-3" d="m70.06,14.73c3.54,3.53,5.19,9.36,8.48,21.03,3.26,11.54,2.45,13,5.09,18.51,4.19,8.75,8.32,9.43,12.72,15.99,7.16,10.67,8.75,27.56,1.7,40.38-6.93,12.61-19.8,16.9-27.14,19.35-4.35,1.45-21.23,6.8-39.87-.84-5.56-2.28-17.11-7.01-23.75-19.35-6.98-12.96-5.08-27.88,0-37.86,3.9-7.66,6.44-6.08,10.18-13.46,8.05-15.89-2.4-25.89,5.09-37.86,6.68-10.67,21.02-12.36,23.75-12.62,2.53-.24,15.52-1.47,23.75,6.73Z"/><path class="cls-1" d="m16.43,100.91c-.81.44,2.16,11.71,12.62,15.04,4.77,1.52,10.21,1.1,10.48.36.29-.79-5.53-1.47-11.83-5.07-8.3-4.74-10.66-10.66-11.27-10.33Z"/></svg>