<?xml version="1.0" encoding="UTF-8"?><svg id="Layer_1" xmlns="http://www.w3.org/2000/svg" viewBox="0 0 100 140"><defs><style>.cls-1{fill:#fff;stroke:#fff;}.cls-1,.cls-2,.cls-3,.cls-4,.cls-5{stroke-miterlimit:10;}.cls-2{fill:#cec803;stroke:#cec803;}.cls-3{fill:#665303;}.cls-3,.cls-5{stroke:#665303;}.cls-4{stroke:#89775b;}.cls-4,.cls-6{fill:#89775b;}.cls-5{fill:none;}.cls-6{stroke-width:0px;}</style></defs><path class="cls-3" d="m46,55.5c-5.66,2.31-14.3,5.83-22,2-4.95-2.46-7.24-6.83-11-14-4.85-9.24-7.49-19.3-6-20,1.76-.83,8.03,12.08,11,11,3.22-1.17-.42-17.69,1-18,1.6-.35,6.75,20.38,9,20,2.31-.39-.06-22.69,2-23,1.99-.3,5.46,20.23,9,20,3.28-.21,4.97-18.12,6-18,.89.11-1.81,13.31,3,16,4.03,2.26,11.08-4.14,12-3,1.26,1.56-12.2,13.37-11,15,1.38,1.88,20.39-11.96,22-10,1.36,1.66-8.98,15.47-25,22Z"/><path class="cls-3" d="m32.34,134.54c-.36.31.26,1.38.86,2.04.97,1.06,2.93,2.2,4.71,1.81,1.94-.43,2.74-2.48,2.19-3-.46-.44-1.57.51-3.85.23-2.18-.27-3.48-1.43-3.91-1.07Z"/><rect class="cls-2" x="5" y="48.5" width="64" height="87" rx="12" ry="12"/><polyline class="cls-5" points="12 57.5 15 61.5 17.94 57.5"/><polyline class="cls-5" points="55.34 62.36 58.34 66.36 61.27 62.36"/><polyline class="cls-5" points="55.34 78.36 58.34 82.36 61.27 78.36"/><polyline class="cls-5" points="41.34 57.36 44.34 61.36 47.27 57.36"/><polyline class="cls-5" points="26.34 62.36 29.34 66.36 32.27 62.36"/><polyline class="cls-5" points="41.5 72.14 44.5 76.14 47.44 72.14"/><polyline class="cls-5" points="26.5 76.14 29.5 80.14 32.44 76.14"/><polyline class="cls-5" points="26.5 102.14 29.5 106.14 32.44 102.14"/><polyline class="cls-5" points="11.5 85.14 14.5 89.14 17.44 85.14"/><polyline class="cls-5" points="26.5 115.27 29.5 119.27 32.43 115.27"/><polyline class="cls-5" points="12.5 98.27 15.5 102.27 18.43 98.27"/><polyline class="cls-5" points="41.5 110.27 44.5 114.27 47.43 110.27"/><polyline class="cls-5" points="13.5 111.27 16.5 115.27 19.43 111.27"/><polyline class="cls-5" points="55.5 102.27 58.5 106.27 61.43 102.27"/><polyline class="cls-5" points="41.5 98.27 44.5 102.27 47.43 98.27"/><polyline class="cls-5" points="55.5 116.27 58.5 120.27 61.43 116.27"/><polyline class="cls-5" points="11.83 72.2 14.83 76.2 17.77 72.2"/><polyline class="cls-5" points="19.78 124.68 22.78 128.68 25.71 124.68"/><path class="cls-1" d="m8.29,117.97c-.4.13,1.16,7.25,6.35,10.91,2.36,1.67,5.04,2.31,5.17,1.91.14-.42-2.74-1.77-5.87-4.91-4.13-4.14-5.34-8.01-5.64-7.91Z"/><path class="cls-6" d="m80.45.95c-2.24.25-4.08.96-5.45,2.82-1.11,1.51-1.65,3.4-1.91,5.24-.29,2.07-.27,4.26-1.03,6.24-.68,1.79-2.16,3.14-4.02,3.59s-1.08,3.35.8,2.89c1.97-.48,3.66-1.68,4.87-3.3,1.3-1.75,1.74-3.89,2-6.01.23-1.85.29-3.73.97-5.5s1.85-2.76,3.77-2.98c.8-.09,1.5-.62,1.5-1.5,0-.74-.69-1.59-1.5-1.5h0Z"/><path class="cls-6" d="m83.96,9.42c-2.82,1.86-2.84,5.13-3.19,8.15-.29,2.5-1.64,4.8-3.8,6.13-1.64,1.01-.14,3.61,1.51,2.59,2.39-1.47,4.19-3.86,4.92-6.58.42-1.56.36-3.17.61-4.75.16-1.06.51-2.34,1.46-2.96.68-.45.96-1.33.54-2.05-.39-.67-1.37-.99-2.05-.54h0Z"/><path class="cls-6" d="m93.86,9.32c-1.43,1.56-2.71,3.28-3.56,5.23-.94,2.16-1.13,4.4-1.4,6.71-.23,1.98-.72,3.89-2.03,5.44-1.19,1.42-2.75,2.39-4.57,2.75s-1.09,3.27.8,2.89c4.02-.81,7.27-4.15,8.3-8.07.61-2.34.48-4.8,1.13-7.13.61-2.18,1.94-4.05,3.45-5.7,1.3-1.42-.82-3.55-2.12-2.12h0Z"/><path class="cls-4" d="m42.99,86.7c5.85,1.56,7.69,8.58,13.33,8.26,4.62-.26,6.02-5.14,8.68-4.46,4.2,1.07,4.09,13.99,4,25-.11,13.07-1.64,15.51-3,17-4.38,4.81-13.03,6.35-17,3-3.84-3.25-.14-8.42-3-15-5.17-11.87-23.4-9.17-25.01-16.8-1.53-7.23,12.83-19.44,22-17Z"/><polyline class="cls-5" points="26.5 89.27 29.5 93.27 32.43 89.27"/><polyline class="cls-5" points="41.5 85.14 44.5 89.14 47.44 85.14"/><polyline class="cls-5" points="55.5 91.27 58.5 95.27 61.43 91.27"/><polyline class="cls-5" points="41.78 122.68 44.78 126.68 47.71 122.68"/><polyline class="cls-5" points="34.26 100.67 37.26 104.67 40.19 100.67"/><polyline class="cls-5" points="49.26 106.67 52.26 110.67 55.19 106.67"/><polyline class="cls-5" points="58.26 115.67 61.26 119.67 64.19 115.67"/></svg>