<?xml version="1.0" encoding="UTF-8"?><svg id="Layer_1" xmlns="http://www.w3.org/2000/svg" viewBox="0 0 105 105"><defs><style>.cls-1{fill:#fff;stroke:#fff;}.cls-1,.cls-2,.cls-3,.cls-4{stroke-miterlimit:10;}.cls-2{fill:#e29300;stroke:#e29300;}.cls-3{stroke:#665303;}.cls-3,.cls-5{fill:#665303;}.cls-4{stroke:#89775b;}.cls-4,.cls-6{fill:#89775b;}.cls-6,.cls-5{stroke-width:0px;}</style></defs><path class="cls-3" d="m37.76,26.43c-.41-.28.13-1.39.69-2.08.9-1.12,2.82-2.39,4.71-2.12,2.05.29,3.09,2.27,2.57,2.83-.44.47-1.68-.4-4.02.04-2.24.42-3.46,1.67-3.95,1.34Z"/><path class="cls-2" d="m16.42,36.54c4.15-3.18,12.77-8.86,25.05-10.6,4.75-.67,23.15-3.28,37.57,9.08,10.71,9.18,17.78,25.36,12.52,40.87-6.61,19.52-28.24,24.63-32.88,25.73-3.16.75-23.69,5.26-40.7-7.57-3.25-2.45-13.68-10.32-15.66-24.22C-.36,50.87,15.11,37.63,16.42,36.54Z"/><path class="cls-5" d="m70.69,38.82c.48,0,.48-.75,0-.75s-.48.75,0,.75h0Z"/><path class="cls-5" d="m56.81,39.97c.48,0,.48-.75,0-.75s-.48.75,0,.75h0Z"/><path class="cls-5" d="m62.16,65.38c.48,0,.48-.75,0-.75s-.48.75,0,.75h0Z"/><path class="cls-5" d="m77.04,53.15c.48,0,.48-.75,0-.75s-.48.75,0,.75h0Z"/><path class="cls-5" d="m26.27,43.22c.48,0,.48-.75,0-.75s-.48.75,0,.75h0Z"/><path class="cls-5" d="m39.36,32.33c.48,0,.48-.75,0-.75s-.48.75,0,.75h0Z"/><path class="cls-5" d="m42.33,63.47c.48,0,.48-.75,0-.75s-.48.75,0,.75h0Z"/><path class="cls-5" d="m40.95,47.61c.48,0,.48-.75,0-.75s-.48.75,0,.75h0Z"/><path class="cls-5" d="m58.59,51.05c.48,0,.48-.75,0-.75s-.48.75,0,.75h0Z"/><path class="cls-5" d="m79.42,70.54c.48,0,.48-.75,0-.75s-.48.75,0,.75h0Z"/><path class="cls-5" d="m59.19,97.29c.48,0,.48-.75,0-.75s-.48.75,0,.75h0Z"/><path class="cls-5" d="m43.72,73.6c.48,0,.48-.75,0-.75s-.48.75,0,.75h0Z"/><path class="cls-5" d="m63.75,77.99c.48,0,.48-.75,0-.75s-.48.75,0,.75h0Z"/><path class="cls-5" d="m70.89,88.88c.48,0,.48-.75,0-.75s-.48.75,0,.75h0Z"/><path class="cls-5" d="m40.55,92.13c.48,0,.48-.75,0-.75s-.48.75,0,.75h0Z"/><path class="cls-5" d="m25.28,71.49c.48,0,.48-.75,0-.75s-.48.75,0,.75h0Z"/><path class="cls-5" d="m33.21,56.78c.48,0,.48-.75,0-.75s-.48.75,0,.75h0Z"/><path class="cls-5" d="m13.78,53.34c.48,0,.48-.75,0-.75s-.48.75,0,.75h0Z"/><path class="cls-5" d="m16.16,67.1c.48,0,.48-.75,0-.75s-.48.75,0,.75h0Z"/><path class="cls-5" d="m37.58,83.72c.48,0,.48-.75,0-.75s-.48.75,0,.75h0Z"/><path class="cls-5" d="m54.63,55.64c.48,0,.48-.75,0-.75s-.48.75,0,.75h0Z"/><path class="cls-5" d="m53.24,86.21c.48,0,.48-.75,0-.75s-.48.75,0,.75h0Z"/><path class="cls-5" d="m79.42,80.47c.48,0,.48-.75,0-.75s-.48.75,0,.75h0Z"/><path class="cls-5" d="m90.12,57.74c.48,0,.48-.75,0-.75s-.48.75,0,.75h0Z"/><path class="cls-5" d="m12.19,75.12c.48,0,.48-.75,0-.75s-.48.75,0,.75h0Z"/><path class="cls-5" d="m29.05,90.22c.48,0,.48-.75,0-.75s-.48.75,0,.75h0Z"/><path class="cls-5" d="m34.8,68.44c.48,0,.48-.75,0-.75s-.48.75,0,.75h0Z"/><path class="cls-5" d="m23.3,58.31c.48,0,.48-.75,0-.75s-.48.75,0,.75h0Z"/><path class="cls-5" d="m55.82,31.75c.48,0,.48-.75,0-.75s-.48.75,0,.75h0Z"/><path class="cls-5" d="m73.27,62.9c.48,0,.48-.75,0-.75s-.48.75,0,.75h0Z"/><path class="cls-5" d="m26.67,34.62c.48,0,.48-.75,0-.75s-.48.75,0,.75h0Z"/><path class="cls-5" d="m54.43,71.88c.48,0,.48-.75,0-.75s-.48.75,0,.75h0Z"/><path class="cls-5" d="m88.34,69.39c.48,0,.48-.75,0-.75s-.48.75,0,.75h0Z"/><path class="cls-1" d="m15.98,81.15c-.64.19-.15,8.6,6.82,12.5,3.17,1.77,7.1,2.28,7.4,1.8.32-.52-3.72-1.86-7.69-5.33-5.22-4.57-6.05-9.11-6.53-8.97Z"/><path class="cls-6" d="m86.78,1.5c-2.33.25-4.26.97-5.69,2.89-1.13,1.52-1.71,3.42-1.97,5.28-.31,2.16-.27,4.51-1.17,6.54-.78,1.77-2.33,3.02-4.2,3.45s-1.08,3.33.8,2.89c1.98-.46,3.75-1.62,4.99-3.23,1.4-1.81,1.9-3.98,2.18-6.2.24-1.89.3-3.83,1.03-5.61s2.04-2.8,4.03-3.01c.81-.09,1.5-.63,1.5-1.5,0-.74-.69-1.59-1.5-1.5h0Z"/><path class="cls-6" d="m90.52,10.1c-1.27.81-2.09,2.01-2.59,3.42-.56,1.55-.53,3.22-.72,4.84-.3,2.6-1.79,4.91-4.04,6.25-1.66.99-.15,3.58,1.51,2.59,2.47-1.47,4.37-3.88,5.15-6.66.44-1.58.37-3.22.64-4.82.18-1.12.56-2.38,1.57-3.02,1.62-1.03.12-3.63-1.51-2.59h0Z"/><path class="cls-6" d="m100.96,9.99c-1.53,1.62-2.91,3.41-3.81,5.46-.95,2.18-1.12,4.47-1.41,6.8-.25,1.99-.81,3.89-2.17,5.41-1.29,1.44-2.92,2.4-4.82,2.77s-1.09,3.26.8,2.89c4.13-.79,7.57-4.11,8.67-8.14.64-2.32.52-4.77,1.15-7.09s2.08-4.26,3.7-5.98c1.33-1.4-.79-3.53-2.12-2.12h0Z"/><path class="cls-4" d="m67.08,28.16c6.16,1.06,12.67,7.11,14.04,8.38.73.67,2.17,2.07,3.77,4.03,2.22,2.74,8.55,10.55,8.53,21.08-.01,4.22-.02,8.95-3.16,12.18-8.48,8.72-34.33.84-35.81-8.12-1.34-8.08,17.36-15.72,15.47-19.78-2.02-4.34-23.6,3.97-26.01-.52-2.21-4.11,11.56-19.26,23.17-17.25Z"/></svg>