<?xml version="1.0" encoding="UTF-8"?><svg id="Layer_1" xmlns="http://www.w3.org/2000/svg" viewBox="0 0 120 120"><defs><style>.cls-1{fill:#fff;stroke:#fff;}.cls-1,.cls-2,.cls-3,.cls-4{stroke-miterlimit:10;}.cls-2{fill:#eada4b;stroke:#eada4b;}.cls-3{fill:#665303;stroke:#665303;}.cls-4{stroke:#89775b;}.cls-4,.cls-5{fill:#89775b;}.cls-5{stroke-width:0px;}</style></defs><path class="cls-2" d="m43.39,2.41c-7.09.33-19.74,36.05-1.92,66.07,17.4,29.32,58.45,44.06,63.31,39.95,3.86-3.27-16.86-17-36.45-50.71C48.61,23.8,48.95,2.15,43.39,2.41Z"/><path class="cls-3" d="m37.73,8.64c-.88-.35-.7-2.21-.21-3.43.79-1.96,3.21-4.39,6.6-4.39,3.68,0,6.76,2.89,6.25,3.88-.43.84-3.12-.26-6.81.95-3.53,1.16-4.79,3.39-5.83,2.98Z"/><path class="cls-3" d="m106.22,106.42c.43.21.11,1.37-.3,2.13-.66,1.23-2.25,2.77-4.06,2.8-1.97.04-3.27-1.72-2.87-2.35.33-.53,1.64.13,3.76-.67,2.03-.76,2.97-2.16,3.48-1.92Z"/><path class="cls-5" d="m73.74,3.56c-2.24.25-4.08.96-5.45,2.82-1.11,1.51-1.65,3.4-1.91,5.24-.29,2.07-.27,4.26-1.03,6.24-.68,1.79-2.16,3.14-4.02,3.59s-1.08,3.35.8,2.89c1.97-.48,3.66-1.68,4.87-3.3,1.3-1.75,1.74-3.89,2-6.01.23-1.85.29-3.73.97-5.5s1.85-2.76,3.77-2.98c.8-.09,1.5-.62,1.5-1.5,0-.74-.69-1.59-1.5-1.5h0Z"/><path class="cls-5" d="m73.26,18.03c-2.82,1.86-2.84,5.13-3.19,8.15-.29,2.5-1.64,4.8-3.8,6.13-1.64,1.01-.14,3.61,1.51,2.59,2.39-1.47,4.19-3.86,4.92-6.58.42-1.56.36-3.17.61-4.75.16-1.06.51-2.34,1.46-2.96.68-.45.96-1.33.54-2.05-.39-.67-1.37-.99-2.05-.54h0Z"/><path class="cls-5" d="m84.63,16.18c-1.47,1.47-2.82,3.11-3.74,4.98-1.04,2.13-1.32,4.36-1.71,6.67-.34,2.01-.92,3.9-2.35,5.42-1.26,1.35-2.85,2.2-4.68,2.48-.8.12-1.25,1.13-1.05,1.85.24.86,1.04,1.17,1.85,1.05,4.12-.63,7.49-3.95,8.65-7.88.69-2.32.67-4.79,1.47-7.08.72-2.08,2.15-3.83,3.68-5.37,1.37-1.37-.75-3.49-2.12-2.12h0Z"/><path class="cls-4" d="m54.61,84.48c-1.04-.13-3.04-2.42-7-7-4.44-5.13-5.46-6.72-6-9-.27-1.16-.89-3.77,0-6,3.26-8.22,24.86-6.19,25-5,.06.56-4.65.65-7.08,4.39-.43.66-1.47,2.26-.92,3.61.95,2.35,5.49.96,7,3,2.67,3.61-4.98,16.77-11,16Z"/><path class="cls-4" d="m46.61,14.48c1.65,1-2.72,10.31,0,12,.76.47,1.28-.15,2.42.36,3.03,1.35,2.88,7.3,2.88,8.13,0,1.63,0,3.45-1.07,4.7-2.86,3.36-11.59.32-12.09-3.13-.45-3.12,5.86-6.06,5.22-7.63-.63-1.56-7.41,1.66-8.78-.2-2.09-2.82,9.31-15.5,11.42-14.23Z"/><path class="cls-1" d="m63.28,86c-.29.35,6.25,8.08,13.85,9.8,3.46.79,6.5.18,6.34-.35-.17-.57-3.89-.71-9.14-2.87-6.92-2.84-10.83-6.85-11.05-6.58Z"/></svg>