<?xml version="1.0" encoding="UTF-8"?><svg id="Layer_1" xmlns="http://www.w3.org/2000/svg" viewBox="0 0 115 140"><defs><style>.cls-1{fill:#fff;stroke:#fff;}.cls-1,.cls-2,.cls-3,.cls-4{stroke-miterlimit:10;}.cls-2{fill:#665303;stroke:#665303;}.cls-3{fill:#9de034;stroke:#9de034;}.cls-4{stroke:#89775b;}.cls-4,.cls-5{fill:#89775b;}.cls-5{stroke-width:0px;}</style></defs><path class="cls-2" d="m58.43,132.26c.63.5.02,1.95-.68,2.81-1.12,1.38-3.7,2.74-6.45,1.9-2.99-.91-4.77-3.99-4.1-4.66.56-.57,2.47.98,5.76.91,3.15-.07,4.73-1.55,5.47-.96Z"/><path class="cls-2" d="m36.46,4.45c-.18-.78,1.21-1.54,2.3-1.78,1.75-.39,4.61.14,6.24,2.5,1.76,2.56,1.22,6.07.28,6.18-.8.1-1.31-2.29-3.93-4.28-2.5-1.9-4.67-1.71-4.88-2.63Z"/><path class="cls-3" d="m71.5,14.49c3.54,3.53,5.19,9.36,8.48,21.03,3.26,11.54,2.45,13,5.09,18.51,4.19,8.75,8.32,9.43,12.72,15.99,7.16,10.67,8.75,27.56,1.7,40.38-6.93,12.61-19.8,16.9-27.14,19.35-4.35,1.45-21.23,6.8-39.87-.84-5.56-2.28-17.11-7.01-23.75-19.35-6.98-12.96-5.08-27.88,0-37.86,3.9-7.66,6.44-6.08,10.18-13.46,8.05-15.89-2.4-25.89,5.09-37.86,6.68-10.67,21.02-12.36,23.75-12.62,2.53-.24,15.52-1.47,23.75,6.73Z"/><path class="cls-1" d="m17.86,100.68c-.81.44,2.16,11.71,12.62,15.04,4.77,1.52,10.21,1.1,10.48.36.29-.79-5.53-1.47-11.83-5.07-8.3-4.74-10.66-10.66-11.27-10.33Z"/><path class="cls-5" d="m96.62,23.2c-2.13.35-3.88,1.29-5.05,3.15-1.01,1.61-1.42,3.55-1.59,5.42-.34,3.69-.03,8.55-4.45,9.86-1.85.55-1.06,3.45.8,2.89,1.95-.58,3.58-1.82,4.73-3.5,1.23-1.8,1.58-4,1.73-6.13.13-1.94.11-3.87.74-5.73.24-.72.62-1.44,1.16-1.98.75-.73,1.71-.92,2.71-1.09.8-.13,1.25-1.12,1.05-1.85-.23-.85-1.04-1.18-1.85-1.05h0Z"/><path class="cls-5" d="m98.94,37.39c-2.68,1.97-2.68,5.1-2.83,8.13-.13,2.55-1.28,5.02-3.42,6.49-.67.46-.97,1.32-.54,2.05.39.66,1.38,1,2.05.54,2.33-1.61,4.08-4.08,4.65-6.88.33-1.59.22-3.2.37-4.8.09-.99.38-2.31,1.23-2.94.65-.48.98-1.3.54-2.05-.38-.64-1.4-1.02-2.05-.54h0Z"/><path class="cls-5" d="m108.81,37.78c-1.38,1.68-2.58,3.47-3.37,5.51s-.89,4.38-1.03,6.64c-.13,2.01-.5,3.92-1.72,5.58-1.08,1.47-2.61,2.55-4.38,3-1.87.48-1.08,3.37.8,2.89,3.97-1.01,7.1-4.45,7.93-8.43.48-2.31.25-4.69.73-6.99s1.7-4.3,3.16-6.07c1.22-1.48-.89-3.61-2.12-2.12h0Z"/><path class="cls-4" d="m28.61,14.98c-3.81,3.46-5.61,7.17-6,8-4.91,10.43,1.03,17.1-1,28-2.53,13.62-14.62,18.46-13,21,3,4.7,44.42-11.77,43-24-.77-6.67-13.98-9.57-13-15,.55-3.03,4.83-3.04,11-8,4.51-3.63,11.73-11.27,10-15-2.24-4.84-20.32-4.71-31,5Z"/></svg>