<?xml version="1.0" encoding="UTF-8"?><svg id="Layer_1" xmlns="http://www.w3.org/2000/svg" viewBox="0 0 100 110"><defs><style>.cls-1{fill:#fff;stroke:#fff;}.cls-1,.cls-2,.cls-3,.cls-4{stroke-miterlimit:10;}.cls-2{fill:#f20c0c;stroke:#f20c0c;}.cls-3{fill:#0a4719;stroke:#0a4719;}.cls-4{stroke:#89775b;}.cls-4,.cls-5{fill:#89775b;}.cls-5{stroke-width:0px;}</style></defs><path class="cls-3" d="m53.84,29.02c.89-3.67-5.04-7.97-10.68-12.06-3.83-2.78-5.74-4.17-6.5-3.61-2.31,1.71,4.15,19.41,11.7,19.45,2.37.01,4.98-1.72,5.48-3.78Z"/><path class="cls-2" d="m17.22,40.59c3.94-3.13,12.13-8.73,23.78-10.44,4.51-.66,21.98-3.23,35.67,8.95,10.17,9.04,16.88,24.99,11.89,40.27-6.28,19.23-26.81,24.27-31.21,25.35-3,.74-22.49,5.18-38.64-7.46-3.08-2.41-12.99-10.17-14.86-23.86-2.56-18.69,12.13-31.74,13.38-32.81Z"/><path class="cls-1" d="m17.75,80.08c-.6.36,2.16,10.64,10.25,14.11,3.68,1.58,7.79,1.45,7.96.8.18-.7-4.26-1.57-9.2-5.1-6.51-4.64-8.56-10.08-9.01-9.81Z"/><path class="cls-5" d="m81.02,3.43c-2.24.25-4.08.96-5.45,2.82-1.11,1.51-1.65,3.4-1.91,5.24-.29,2.07-.27,4.26-1.03,6.24-.68,1.79-2.16,3.14-4.02,3.59s-1.08,3.35.8,2.89c1.97-.48,3.66-1.68,4.87-3.3,1.3-1.75,1.74-3.89,2-6.01.23-1.85.29-3.73.97-5.5s1.85-2.76,3.77-2.98c.8-.09,1.5-.62,1.5-1.5,0-.74-.69-1.59-1.5-1.5h0Z"/><path class="cls-5" d="m84.53,11.91c-2.82,1.86-2.84,5.13-3.19,8.15-.29,2.5-1.64,4.8-3.8,6.13-1.64,1.01-.14,3.61,1.51,2.59,2.39-1.47,4.19-3.86,4.92-6.58.42-1.56.36-3.17.61-4.75.16-1.06.51-2.34,1.46-2.96.68-.45.96-1.33.54-2.05-.39-.67-1.37-.99-2.05-.54h0Z"/><path class="cls-5" d="m94.42,11.8c-1.43,1.56-2.71,3.28-3.56,5.23-.94,2.16-1.13,4.4-1.4,6.71-.23,1.98-.72,3.89-2.03,5.44-1.19,1.42-2.75,2.39-4.57,2.75s-1.09,3.27.8,2.89c4.02-.81,7.27-4.15,8.3-8.07.61-2.34.48-4.8,1.13-7.13.61-2.18,1.94-4.05,3.45-5.7,1.3-1.42-.82-3.55-2.12-2.12h0Z"/><path class="cls-4" d="m65.88,33.35c5.84,1.05,12.03,7.01,13.33,8.26.69.66,2.06,2.04,3.58,3.98,2.11,2.7,8.12,10.39,8.1,20.77,0,4.16-.02,8.82-3,12-8.05,8.6-32.59.83-34-8-1.27-7.96,16.48-15.49,14.69-19.49-1.92-4.27-22.4,3.91-24.69-.51-2.1-4.05,10.97-18.98,22-17Z"/></svg>