<?xml version="1.0" encoding="UTF-8"?><svg id="Layer_1" xmlns="http://www.w3.org/2000/svg" width="237" height="90" xmlns:xlink="http://www.w3.org/1999/xlink" viewBox="0 0 237 90"><defs><style>.cls-1{fill:url(#linear-gradient);}.cls-1,.cls-2{stroke-width:0px;}.cls-3{fill:#e8d84c;stroke:#e8d84c;}.cls-3,.cls-4,.cls-5{stroke-miterlimit:10;}.cls-4{fill:#fff;stroke:#fff;}.cls-5{fill:#665302;stroke:#665302;}</style><linearGradient id="linear-gradient" x1="63.28" y1="51.91" x2="174.52" y2="51.91" gradientUnits="userSpaceOnUse"><stop offset="0" stop-color="#fff"/><stop offset="1" stop-color="#000"/></linearGradient></defs><path class="cls-3" d="m5.92,13.48C-.42,25.54,42.7,83.29,106.45,84.8c62.26,1.47,124.8-51.17,123.12-63.45-1.33-9.76-42.64,10.34-113.82,7.96C44.1,26.9,10.89,4.02,5.92,13.48Z"/><path class="cls-4" d="m146.15,70.33c.27.85,18.56-2,28.58-12.78,4.56-4.91,6.56-10.56,5.59-10.85-1.05-.32-4.87,5.7-13.28,12.16-11.08,8.51-21.08,10.84-20.88,11.47Z"/><path class="cls-5" d="m10.1,29.26c-1.39,1.1-4.1-1.12-5.52-3.19-2.28-3.32-3.7-9.84-.41-15.44,3.57-6.08,11.01-8.2,12.06-6.33.89,1.58-3.42,4.89-5.11,12.25-1.61,7.03.63,11.41-1.02,12.71Z"/><path class="cls-5" d="m227.85,16.89c.73-.5,2.22,1.23,3.01,2.7,1.27,2.35,2.12,6.57.42,9.6-1.85,3.29-5.82,3.62-6.41,2.33-.5-1.09,1.78-2.57,2.59-6.9.78-4.14-.48-7.14.39-7.73Z"/><path class="cls-1" d="m72.34,37.96c1.93,0,3.5.65,4.72,1.94v-.43c0-.8.3-1.2.92-1.2.67,0,1,.44,1,1.32v.18s-.03.35-.09.92c-.06.57-.09,1.26-.09,2.06,0,.1.02.43.06.98l.09,1.23c.02.1.03.25.03.43,0,.98-.36,1.48-1.09,1.48-.77,0-1.15-.41-1.15-1.23v-.15l.06-.83c.02-.29.03-.51.03-.68,0-1.23-.4-2.19-1.2-2.89-.8-.7-1.89-1.04-3.29-1.04-1.28,0-2.3.33-3.05.98-.76.66-1.14,1.54-1.14,2.64,0,1.29.56,2.25,1.68,2.86.63.33,1.73.63,3.31.89,2.34.39,3.94.92,4.81,1.6,1.3,1,1.95,2.43,1.95,4.27s-.66,3.5-1.99,4.71c-1.33,1.21-3.04,1.81-5.14,1.81-2.24,0-4.09-.74-5.57-2.21v.46c.08.32.12.54.12.64,0,.75-.36,1.12-1.09,1.12-.79,0-1.18-.43-1.18-1.29,0-.1.03-.18.09-.25l.13-1.6c.07-.8.1-1.31.1-1.54,0-.41-.05-1.02-.16-1.84s-.16-1.43-.16-1.85c0-.92.37-1.38,1.12-1.38s1.15.46,1.15,1.39v1.27c0,1.54.47,2.77,1.41,3.67.94.91,2.22,1.36,3.83,1.36,1.49,0,2.68-.37,3.56-1.11.88-.74,1.32-1.74,1.32-3.01,0-1.95-1.18-3.14-3.54-3.57l-1.68-.31c-1.67-.31-2.97-.67-3.9-1.08-.85-.39-1.52-1-2.02-1.83-.5-.83-.75-1.77-.75-2.81,0-1.8.63-3.27,1.89-4.4,1.26-1.13,2.89-1.69,4.9-1.69Z"/><path class="cls-1" d="m91.52,55.09c0,1.54.5,2.31,1.51,2.31.16,0,.39-.03.71-.08.31-.05.55-.08.71-.08.26,0,.48.1.66.29s.28.43.28.69c0,.72-.44,1.08-1.33,1.08h-.18c-.1-.02-.17-.03-.21-.03l-1.45-.21c-.55-.08-1.17-.12-1.86-.12-.75,0-1.41.04-1.98.12l-1.48.21c-.06,0-.13,0-.21.03h-.21c-.87,0-1.3-.36-1.3-1.08,0-.66.31-.98.94-.98.16,0,.39.03.71.08.31.05.55.08.71.08.98,0,1.48-.77,1.48-2.31v-12.49c0-1.46-.72-2.18-2.15-2.18h-.92c-1.42,0-2.12.72-2.12,2.15,0,.51,0,.86.03,1.04l.12,1.14c.02.18.03.44.03.77,0,1.29-.38,1.94-1.15,1.94-.73,0-1.09-.47-1.09-1.42,0-.27.02-.73.06-1.38.06-.98.09-1.61.09-1.88,0-.51-.02-1.04-.05-1.6-.07-1.09-.1-1.55-.1-1.38,0-.86.37-1.29,1.12-1.29.27,0,.91.03,1.92.09.1,0,.9.04,2.42.12h3.36c.39,0,1.44-.02,3.15-.05.37,0,1.01-.03,1.92-.08.8-.05,1.43-.08,1.89-.08.98,0,1.47.42,1.47,1.26v.06c0,.21-.03.58-.07,1.14s-.1,1.15-.16,1.78v.34c0,.31.03.79.09,1.45.08.86.12,1.39.12,1.6,0,.84-.38,1.26-1.15,1.26s-1.12-.51-1.12-1.54c0-.37.03-.92.09-1.65.06-.73.09-1.28.09-1.65,0-1.42-.78-2.13-2.33-2.13h-.83c-.73,0-1.25.16-1.56.48-.31.32-.49.85-.53,1.58l-.12,2.15v10.46Z"/><path class="cls-1" d="m114.25,55.67l-1.06-3.01c-.12-.33-.24-.53-.37-.62s-.39-.12-.78-.12h-5.25c-.39,0-.66.07-.81.21-.15.14-.34.53-.58,1.17l-.86,2.37c-.08.23-.12.44-.12.65,0,.66.38.98,1.15.98.2,0,.48-.02.84-.06s.63-.06.81-.06c.81,0,1.21.36,1.21,1.08,0,.68-.44,1.01-1.33,1.01-.16,0-.37-.02-.65-.06l-1.48-.19c-.28-.04-.73-.05-1.36-.05-.69,0-1.17.02-1.45.05l-1.24.15c-.55.07-.95.1-1.21.1-.77,0-1.15-.34-1.15-1.01,0-.72.37-1.08,1.12-1.08.16,0,.28.04.35.12h.38c.53,0,.93-.22,1.21-.65.12-.16.31-.65.59-1.45l5.49-15.52c.31-.86.93-1.3,1.86-1.3s1.5.43,1.8,1.29l5.28,15.25c.33.96.64,1.6.92,1.91s.67.46,1.18.46c.16,0,.28-.01.35-.04l.83-.08c.75,0,1.12.34,1.12,1.01,0,.72-.37,1.08-1.12,1.08-.22,0-.5-.02-.86-.07-1.24-.16-2.16-.24-2.77-.24-.73,0-1.91.08-3.54.25-.41.04-.73.06-.94.06-.79,0-1.18-.35-1.18-1.05s.43-1.04,1.3-1.04c.18,0,.44.02.78.06.34.04.6.06.78.06.65,0,.97-.28.97-.83,0-.08-.08-.35-.24-.8Zm-2.12-6.27l-2.66-8.49-2.71,8.49c-.04.12-.06.19-.06.21,0,.18.15.28.44.28h4.69c.24,0,.35-.08.35-.25,0-.04-.02-.12-.06-.25Z"/><path class="cls-1" d="m136.68,47.8c-.57.29-1.3.53-2.18.74,1.15.23,1.94.67,2.38,1.35.44.67.66,1.79.66,3.34v1.78c0,1.47.45,2.21,1.34,2.21s1.37-.87,1.37-2.62v-2.1c0-.59.04-1,.12-1.22.16-.35.46-.52.91-.52.71,0,1.06.43,1.06,1.29,0,.02,0,.25-.03.68v2.24c-.02.12-.03.31-.03.55,0,1.19-.32,2.12-.96,2.78-.64.67-1.53,1-2.67,1-2.32,0-3.48-1.22-3.48-3.66v-2.64c0-1.37-.25-2.28-.75-2.72-.5-.44-1.53-.66-3.1-.66h-2.73c-.63,0-.94.4-.94,1.2v2.37c0,1.52.02,2.38.06,2.58.18,1.03.67,1.54,1.48,1.54.28,0,.48-.01.62-.04.33-.04.59-.06.77-.06.63,0,.94.34.94,1.02,0,.72-.42,1.08-1.27,1.08l-.44-.06-1.59-.21c-.61-.08-1.15-.12-1.62-.12-.59,0-1.28.05-2.07.15l-1.42.18c-.31.04-.46.06-.44.06-.85,0-1.27-.37-1.27-1.11,0-.66.31-.98.92-.98.1,0,.36.02.8.06.22.06.42.09.62.09,1,0,1.51-.77,1.51-2.31v-12.33c0-1.54-.5-2.31-1.51-2.31-.16,0-.39.03-.71.08-.31.05-.55.08-.71.08-.26,0-.47-.1-.65-.29-.18-.2-.27-.43-.27-.69,0-.72.43-1.08,1.3-1.08.08,0,.22.01.41.03l1.5.15c.39.04.89.06,1.48.06s1.29-.02,2.04-.06l2.24-.12c.75-.04,1.44-.06,2.07-.06,4.33,0,6.49,1.72,6.49,5.15,0,2.02-.75,3.4-2.24,4.14Zm-8.18-.25h2.77c1.65,0,2.89-.25,3.72-.74,1-.59,1.51-1.59,1.51-2.98,0-2.34-1.54-3.51-4.62-3.51-1.64,0-2.75.13-3.33.38-.58.26-.88.76-.9,1.52v4.52c0,.35.06.57.18.66.12.09.35.14.68.14Z"/><path class="cls-1" d="m152.26,55.09c0,1.54.5,2.31,1.5,2.31.16,0,.39-.03.71-.08.31-.05.55-.08.71-.08.26,0,.48.1.66.29.19.2.28.43.28.69,0,.72-.44,1.08-1.33,1.08h-.18c-.1-.02-.17-.03-.21-.03l-1.45-.21c-.55-.08-1.17-.12-1.86-.12-.75,0-1.41.04-1.98.12l-1.48.21c-.06,0-.13,0-.21.03h-.21c-.87,0-1.3-.36-1.3-1.08,0-.66.31-.98.94-.98.16,0,.39.03.71.08.31.05.55.08.71.08.98,0,1.48-.77,1.48-2.31v-12.49c0-1.46-.72-2.18-2.15-2.18h-.92c-1.42,0-2.12.72-2.12,2.15,0,.51,0,.86.03,1.04l.12,1.14c.02.18.03.44.03.77,0,1.29-.38,1.94-1.15,1.94-.73,0-1.09-.47-1.09-1.42,0-.27.02-.73.06-1.38.06-.98.09-1.61.09-1.88,0-.51-.02-1.04-.05-1.6-.07-1.09-.1-1.55-.1-1.38,0-.86.37-1.29,1.12-1.29.27,0,.91.03,1.92.09.1,0,.9.04,2.42.12h3.36c.39,0,1.44-.02,3.15-.05.37,0,1.01-.03,1.92-.08.8-.05,1.43-.08,1.89-.08.98,0,1.47.42,1.47,1.26v.06c0,.21-.02.58-.07,1.14-.05.55-.1,1.15-.16,1.78v.34c0,.31.03.79.09,1.45.08.86.12,1.39.12,1.6,0,.84-.38,1.26-1.15,1.26s-1.12-.51-1.12-1.54c0-.37.03-.92.09-1.65.06-.73.09-1.28.09-1.65,0-1.42-.78-2.13-2.33-2.13h-.83c-.73,0-1.25.16-1.56.48-.32.32-.49.85-.53,1.58l-.12,2.15v10.46Z"/><path class="cls-2" d="m72.34,37.96c1.93,0,3.5.65,4.72,1.94v-.43c0-.8.3-1.2.92-1.2.67,0,1,.44,1,1.32v.18s-.03.35-.09.92c-.06.57-.09,1.26-.09,2.06,0,.1.02.43.06.98l.09,1.23c.02.1.03.25.03.43,0,.98-.36,1.48-1.09,1.48-.77,0-1.15-.41-1.15-1.23v-.15l.06-.83c.02-.29.03-.51.03-.68,0-1.23-.4-2.19-1.2-2.89-.8-.7-1.89-1.04-3.29-1.04-1.28,0-2.3.33-3.05.98-.76.66-1.14,1.54-1.14,2.64,0,1.29.56,2.25,1.68,2.86.63.33,1.73.63,3.31.89,2.34.39,3.94.92,4.81,1.6,1.3,1,1.95,2.43,1.95,4.27s-.66,3.5-1.99,4.71c-1.33,1.21-3.04,1.81-5.14,1.81-2.24,0-4.09-.74-5.57-2.21v.46c.08.32.12.54.12.64,0,.75-.36,1.12-1.09,1.12-.79,0-1.18-.43-1.18-1.29,0-.1.03-.18.09-.25l.13-1.6c.07-.8.1-1.31.1-1.54,0-.41-.05-1.02-.16-1.84s-.16-1.43-.16-1.85c0-.92.37-1.38,1.12-1.38s1.15.46,1.15,1.39v1.27c0,1.54.47,2.77,1.41,3.67.94.91,2.22,1.36,3.83,1.36,1.49,0,2.68-.37,3.56-1.11.88-.74,1.32-1.74,1.32-3.01,0-1.95-1.18-3.14-3.54-3.57l-1.68-.31c-1.67-.31-2.97-.67-3.9-1.08-.85-.39-1.52-1-2.02-1.83-.5-.83-.75-1.77-.75-2.81,0-1.8.63-3.27,1.89-4.4,1.26-1.13,2.89-1.69,4.9-1.69Z"/><path class="cls-2" d="m91.52,55.09c0,1.54.5,2.31,1.51,2.31.16,0,.39-.03.71-.08.31-.05.55-.08.71-.08.26,0,.48.1.66.29s.28.43.28.69c0,.72-.44,1.08-1.33,1.08h-.18c-.1-.02-.17-.03-.21-.03l-1.45-.21c-.55-.08-1.17-.12-1.86-.12-.75,0-1.41.04-1.98.12l-1.48.21c-.06,0-.13,0-.21.03h-.21c-.87,0-1.3-.36-1.3-1.08,0-.66.31-.98.94-.98.16,0,.39.03.71.08.31.05.55.08.71.08.98,0,1.48-.77,1.48-2.31v-12.49c0-1.46-.72-2.18-2.15-2.18h-.92c-1.42,0-2.12.72-2.12,2.15,0,.51,0,.86.03,1.04l.12,1.14c.02.18.03.44.03.77,0,1.29-.38,1.94-1.15,1.94-.73,0-1.09-.47-1.09-1.42,0-.27.02-.73.06-1.38.06-.98.09-1.61.09-1.88,0-.51-.02-1.04-.05-1.6-.07-1.09-.1-1.55-.1-1.38,0-.86.37-1.29,1.12-1.29.27,0,.91.03,1.92.09.1,0,.9.04,2.42.12h3.36c.39,0,1.44-.02,3.15-.05.37,0,1.01-.03,1.92-.08.8-.05,1.43-.08,1.89-.08.98,0,1.47.42,1.47,1.26v.06c0,.21-.03.58-.07,1.14s-.1,1.15-.16,1.78v.34c0,.31.03.79.09,1.45.08.86.12,1.39.12,1.6,0,.84-.38,1.26-1.15,1.26s-1.12-.51-1.12-1.54c0-.37.03-.92.09-1.65.06-.73.09-1.28.09-1.65,0-1.42-.78-2.13-2.33-2.13h-.83c-.73,0-1.25.16-1.56.48-.31.32-.49.85-.53,1.58l-.12,2.15v10.46Z"/><path class="cls-2" d="m114.25,55.67l-1.06-3.01c-.12-.33-.24-.53-.37-.62s-.39-.12-.78-.12h-5.25c-.39,0-.66.07-.81.21-.15.14-.34.53-.58,1.17l-.86,2.37c-.08.23-.12.44-.12.65,0,.66.38.98,1.15.98.2,0,.48-.02.84-.06s.63-.06.81-.06c.81,0,1.21.36,1.21,1.08,0,.68-.44,1.01-1.33,1.01-.16,0-.37-.02-.65-.06l-1.48-.19c-.28-.04-.73-.05-1.36-.05-.69,0-1.17.02-1.45.05l-1.24.15c-.55.07-.95.1-1.21.1-.77,0-1.15-.34-1.15-1.01,0-.72.37-1.08,1.12-1.08.16,0,.28.04.35.12h.38c.53,0,.93-.22,1.21-.65.12-.16.31-.65.59-1.45l5.49-15.52c.31-.86.93-1.3,1.86-1.3s1.5.43,1.8,1.29l5.28,15.25c.33.96.64,1.6.92,1.91s.67.46,1.18.46c.16,0,.28-.01.35-.04l.83-.08c.75,0,1.12.34,1.12,1.01,0,.72-.37,1.08-1.12,1.08-.22,0-.5-.02-.86-.07-1.24-.16-2.16-.24-2.77-.24-.73,0-1.91.08-3.54.25-.41.04-.73.06-.94.06-.79,0-1.18-.35-1.18-1.05s.43-1.04,1.3-1.04c.18,0,.44.02.78.06.34.04.6.06.78.06.65,0,.97-.28.97-.83,0-.08-.08-.35-.24-.8Zm-2.12-6.27l-2.66-8.49-2.71,8.49c-.04.12-.06.19-.06.21,0,.18.15.28.44.28h4.69c.24,0,.35-.08.35-.25,0-.04-.02-.12-.06-.25Z"/><path class="cls-2" d="m136.68,47.8c-.57.29-1.3.53-2.18.74,1.15.23,1.94.67,2.38,1.35.44.67.66,1.79.66,3.34v1.78c0,1.47.45,2.21,1.34,2.21s1.37-.87,1.37-2.62v-2.1c0-.59.04-1,.12-1.22.16-.35.46-.52.91-.52.71,0,1.06.43,1.06,1.29,0,.02,0,.25-.03.68v2.24c-.02.12-.03.31-.03.55,0,1.19-.32,2.12-.96,2.78-.64.67-1.53,1-2.67,1-2.32,0-3.48-1.22-3.48-3.66v-2.64c0-1.37-.25-2.28-.75-2.72-.5-.44-1.53-.66-3.1-.66h-2.73c-.63,0-.94.4-.94,1.2v2.37c0,1.52.02,2.38.06,2.58.18,1.03.67,1.54,1.48,1.54.28,0,.48-.01.62-.04.33-.04.59-.06.77-.06.63,0,.94.34.94,1.02,0,.72-.42,1.08-1.27,1.08l-.44-.06-1.59-.21c-.61-.08-1.15-.12-1.62-.12-.59,0-1.28.05-2.07.15l-1.42.18c-.31.04-.46.06-.44.06-.85,0-1.27-.37-1.27-1.11,0-.66.31-.98.92-.98.1,0,.36.02.8.06.22.06.42.09.62.09,1,0,1.51-.77,1.51-2.31v-12.33c0-1.54-.5-2.31-1.51-2.31-.16,0-.39.03-.71.08-.31.05-.55.08-.71.08-.26,0-.47-.1-.65-.29-.18-.2-.27-.43-.27-.69,0-.72.43-1.08,1.3-1.08.08,0,.22.01.41.03l1.5.15c.39.04.89.06,1.48.06s1.29-.02,2.04-.06l2.24-.12c.75-.04,1.44-.06,2.07-.06,4.33,0,6.49,1.72,6.49,5.15,0,2.02-.75,3.4-2.24,4.14Zm-8.18-.25h2.77c1.65,0,2.89-.25,3.72-.74,1-.59,1.51-1.59,1.51-2.98,0-2.34-1.54-3.51-4.62-3.51-1.64,0-2.75.13-3.33.38-.58.26-.88.76-.9,1.52v4.52c0,.35.06.57.18.66.12.09.35.14.68.14Z"/><path class="cls-2" d="m152.26,55.09c0,1.54.5,2.31,1.5,2.31.16,0,.39-.03.71-.08.31-.05.55-.08.71-.08.26,0,.48.1.66.29.19.2.28.43.28.69,0,.72-.44,1.08-1.33,1.08h-.18c-.1-.02-.17-.03-.21-.03l-1.45-.21c-.55-.08-1.17-.12-1.86-.12-.75,0-1.41.04-1.98.12l-1.48.21c-.06,0-.13,0-.21.03h-.21c-.87,0-1.3-.36-1.3-1.08,0-.66.31-.98.94-.98.16,0,.39.03.71.08.31.05.55.08.71.08.98,0,1.48-.77,1.48-2.31v-12.49c0-1.46-.72-2.18-2.15-2.18h-.92c-1.42,0-2.12.72-2.12,2.15,0,.51,0,.86.03,1.04l.12,1.14c.02.18.03.44.03.77,0,1.29-.38,1.94-1.15,1.94-.73,0-1.09-.47-1.09-1.42,0-.27.02-.73.06-1.38.06-.98.09-1.61.09-1.88,0-.51-.02-1.04-.05-1.6-.07-1.09-.1-1.55-.1-1.38,0-.86.37-1.29,1.12-1.29.27,0,.91.03,1.92.09.1,0,.9.04,2.42.12h3.36c.39,0,1.44-.02,3.15-.05.37,0,1.01-.03,1.92-.08.8-.05,1.43-.08,1.89-.08.98,0,1.47.42,1.47,1.26v.06c0,.21-.02.58-.07,1.14-.05.55-.1,1.15-.16,1.78v.34c0,.31.03.79.09,1.45.08.86.12,1.39.12,1.6,0,.84-.38,1.26-1.15,1.26s-1.12-.51-1.12-1.54c0-.37.03-.92.09-1.65.06-.73.09-1.28.09-1.65,0-1.42-.78-2.13-2.33-2.13h-.83c-.73,0-1.25.16-1.56.48-.32.32-.49.85-.53,1.58l-.12,2.15v10.46Z"/></svg>