<?xml version="1.0" encoding="UTF-8"?><svg id="Layer_1" xmlns="http://www.w3.org/2000/svg" width="1366" height="768" viewBox="0 0 1366 768"><defs><style>.cls-1,.cls-2{stroke:#665302;}.cls-1,.cls-2,.cls-3,.cls-4,.cls-5,.cls-6,.cls-7,.cls-8,.cls-9,.cls-10,.cls-11,.cls-12,.cls-13,.cls-14,.cls-15,.cls-16,.cls-17{stroke-miterlimit:10;}.cls-1,.cls-2,.cls-3,.cls-4,.cls-5,.cls-6,.cls-7,.cls-8,.cls-9,.cls-10,.cls-18{opacity:.5;}.cls-1,.cls-17{fill:none;}.cls-2,.cls-19{fill:#665302;}.cls-3{stroke:#87775b;}.cls-3,.cls-20{fill:#87775b;}.cls-4,.cls-14{fill:#fff;stroke:#fff;}.cls-5{fill:#f00d0b;stroke:#f00d0b;}.cls-6{fill:#e8d84c;stroke:#e8d84c;}.cls-7{fill:#9ade35;stroke:#9ade35;}.cls-8{fill:#0a4719;stroke:#0a4719;}.cls-9{fill:#ccc604;stroke:#ccc604;}.cls-10{fill:#e09102;stroke:#e09102;}.cls-11{fill:#ecec68;stroke:#d8d300;}.cls-12{fill:red;}.cls-12,.cls-13{stroke:red;}.cls-13{fill:#ff0016;}.cls-15{fill:#d4a972;}.cls-15,.cls-17{stroke:#775600;}.cls-16{fill:#bd46f1;stroke:#8901d5;}.cls-21{fill:#f9f2e6;}.cls-21,.cls-22,.cls-20,.cls-19{stroke-width:0px;}.cls-22{fill:#6e2995;}</style></defs><rect class="cls-21" x="-3.06" y="-2.03" width="1366" height="771"/><path class="cls-2" d="m339.28,186.53c.76.29.59,1.82.16,2.83-.7,1.62-2.82,3.62-5.77,3.61-3.2,0-5.85-2.38-5.4-3.2.38-.69,2.71.21,5.92-.79,3.07-.96,4.18-2.8,5.08-2.46Z"/><path class="cls-2" d="m280.17,73.15c-.4-.67.74-1.78,1.74-2.32,1.6-.86,4.57-1.18,6.85.56,2.48,1.9,2.98,5.33,2.09,5.71-.75.32-1.96-1.77-5.12-2.88-3.01-1.06-5.08-.27-5.56-1.07Z"/><path class="cls-7" d="m317.49,72.57c4.51,2.29,7.84,7.29,14.5,17.27,6.59,9.87,6.22,11.47,10.43,15.88,6.69,7,10.94,6.46,17.18,11.34,10.16,7.95,16.68,23.3,13.53,37.32-3.1,13.78-14.46,21.45-20.95,25.84-3.84,2.59-18.84,12.4-39.36,10.56-6.12-.55-18.85-1.69-28.99-11.35-10.65-10.14-13.17-24.65-11.12-35.44,1.57-8.28,4.53-7.53,6.03-15.5,3.23-17.17-9.97-23.55-6.13-36.88,3.42-11.89,16.99-17.55,19.6-18.57,2.41-.94,14.79-5.8,25.28-.46Z"/><path class="cls-4" d="m290.19,168.51c-.67.64,5.56,10.34,16.8,10.48,5.12.06,10.34-1.87,10.39-2.64.05-.82-5.86.19-13.1-1.38-9.54-2.07-13.59-6.94-14.09-6.46Z"/><rect class="cls-16" x="812.74" y="260.81" width="26.19" height="31.16" rx="12" ry="12"/><rect class="cls-16" x="694.88" y="184.8" width="26.19" height="31.16" rx="12" ry="12"/><rect class="cls-16" x="694.88" y="208.17" width="26.19" height="31.16" rx="12" ry="12"/><rect class="cls-16" x="694.88" y="229.65" width="26.19" height="31.16" rx="12" ry="12"/><rect class="cls-16" x="693.79" y="247.82" width="26.19" height="31.16" rx="12" ry="12"/><rect class="cls-16" x="737.44" y="260.81" width="26.19" height="31.16" rx="12" ry="12"/><rect class="cls-16" x="737.44" y="236.14" width="26.19" height="31.16" rx="12" ry="12"/><rect class="cls-16" x="737.44" y="210.77" width="26.19" height="31.16" rx="12" ry="12"/><rect class="cls-16" x="677.42" y="259.51" width="26.19" height="31.16" rx="12" ry="12"/><rect class="cls-16" x="737.44" y="187.4" width="26.19" height="31.16" rx="12" ry="12"/><rect class="cls-16" x="575.92" y="254.32" width="26.19" height="31.16" rx="12" ry="12"/><rect class="cls-16" x="661.05" y="259.51" width="26.19" height="31.16" rx="12" ry="12"/><rect class="cls-16" x="644.68" y="253.02" width="26.19" height="31.16" rx="12" ry="12"/><rect class="cls-11" x="1272.94" y="28.47" width="58.22" height="13.3" rx="3.5" ry="3.5"/><rect class="cls-16" x="575.92" y="232.25" width="26.19" height="31.16" rx="12" ry="12"/><rect class="cls-16" x="575.92" y="210.17" width="26.19" height="31.16" rx="12" ry="12"/><rect class="cls-16" x="575.92" y="186.8" width="26.19" height="31.16" rx="12" ry="12"/><rect class="cls-16" x="498.44" y="254.32" width="26.19" height="31.16" rx="12" ry="12"/><rect class="cls-16" x="498.44" y="232.25" width="26.19" height="31.16" rx="12" ry="12"/><rect class="cls-16" x="498.44" y="207.58" width="26.19" height="31.16" rx="12" ry="12"/><rect class="cls-16" x="535.54" y="189.4" width="26.19" height="31.16" rx="12" ry="12"/><rect class="cls-16" x="516.99" y="189.4" width="26.19" height="31.16" rx="12" ry="12"/><rect class="cls-16" x="498.44" y="182.91" width="26.19" height="31.16" rx="12" ry="12"/><rect class="cls-16" x="498.44" y="160.84" width="26.19" height="31.16" rx="12" ry="12"/><rect class="cls-16" x="553" y="137.47" width="26.19" height="31.16" rx="12" ry="12"/><rect class="cls-16" x="534.45" y="137.47" width="26.19" height="31.16" rx="12" ry="12"/><rect class="cls-16" x="516.99" y="137.47" width="26.19" height="31.16" rx="12" ry="12"/><rect class="cls-16" x="499.53" y="137.47" width="26.19" height="31.16" rx="12" ry="12"/><rect class="cls-16" x="644.68" y="232.25" width="26.19" height="31.16" rx="12" ry="12"/><rect class="cls-16" x="644.68" y="208.17" width="26.19" height="31.16" rx="12" ry="12"/><rect class="cls-16" x="611.94" y="188.1" width="26.19" height="31.16" rx="12" ry="12"/><rect class="cls-16" x="595.57" y="206.28" width="26.19" height="31.16" rx="12" ry="12"/><rect class="cls-16" x="644.68" y="184.8" width="26.19" height="31.16" rx="12" ry="12"/><rect class="cls-16" x="737.44" y="135.47" width="26.19" height="31.16" rx="12" ry="12"/><rect class="cls-16" x="776.73" y="180.31" width="26.19" height="31.16" rx="12" ry="12"/><rect class="cls-16" x="807.29" y="180.31" width="26.19" height="31.16" rx="12" ry="12"/><rect class="cls-16" x="792.01" y="260.81" width="26.19" height="31.16" rx="12" ry="12"/><rect class="cls-16" x="792.01" y="236.14" width="26.19" height="31.16" rx="12" ry="12"/><rect class="cls-16" x="792.01" y="210.17" width="26.19" height="31.16" rx="12" ry="12"/><rect class="cls-16" x="792.01" y="185.51" width="26.19" height="31.16" rx="12" ry="12"/><rect class="cls-16" x="792.01" y="160.84" width="26.19" height="31.16" rx="12" ry="12"/><rect class="cls-16" x="792.01" y="137.47" width="26.19" height="31.16" rx="12" ry="12"/><path class="cls-22" d="m490.06,422.74c12.72,1.7,22.93,5.45,30.62,11.25,7.69,5.8,11.54,13.59,11.54,23.35,0,7.64-1.41,14.12-4.23,19.43s-6.7,9.59-11.63,12.84c-4.94,3.26-10.81,5.59-17.63,7.01s-14.14,2.12-21.98,2.12c-13.01,0-25.74-.14-38.2-.42-12.46-.29-26.22-.42-41.3-.42v-6.37c14.92,0,22.38-3.96,22.38-11.89v-101.06c0-9.91-7.77-14.86-23.32-14.86v-6.58h67.97c8.3,0,16.02.6,23.15,1.8,7.13,1.2,13.28,3.11,18.45,5.73,5.17,2.62,9.25,6.02,12.22,10.19,2.97,4.18,4.46,9.31,4.46,15.39,0,4.67-.79,8.67-2.36,12-1.57,3.33-3.81,6.23-6.71,8.71-2.91,2.48-6.36,4.56-10.36,6.26s-8.36,3.26-13.07,4.67v.85Zm-30.69-57.32c-10.95,0-16.42,2.62-16.42,7.86v40.97c0,3.96,2.27,5.95,6.8,5.95,10.79,0,19.43-.49,25.92-1.49,6.49-.99,11.49-2.58,15.01-4.78,3.52-2.19,5.82-5.02,6.92-8.49,1.09-3.47,1.64-7.68,1.64-12.63,0-18.26-10.24-27.39-30.73-27.39h-9.15Zm10.71,125.26c5.3,0,10.21-.53,14.73-1.59s8.46-2.83,11.81-5.31c3.35-2.47,5.96-5.66,7.83-9.55,1.87-3.89,2.81-8.67,2.81-14.33,0-6.65-1.13-12.03-3.39-16.13-2.26-4.1-5.54-7.29-9.82-9.55-4.29-2.26-9.47-3.79-15.55-4.56-6.08-.78-12.86-1.17-20.34-1.17h-8.42c-4.52,0-6.78,2.69-6.78,8.07v45.86c0,5.52,5.61,8.28,16.83,8.28h10.29Z"/><path class="cls-22" d="m647.64,488.97c-2.36,7.5-8.64,11.25-18.84,11.25-8.95,0-14.6-4.6-16.96-13.8-11.31,9.2-23.32,13.8-36.04,13.8-8.33,0-14.45-1.59-18.37-4.78-3.93-3.18-5.89-8.24-5.89-15.18,0-17.41,19.47-29.3,58.42-35.67v-8.28c0-13.87-6.01-20.81-18.02-20.81-5.22,0-9.72.78-13.51,2.33-3.79,1.56-5.69,4.53-5.69,8.92.94.57,1.65,1.45,2.12,2.65.47,1.2.71,2.44.71,3.71,0,5.38-3.62,8.07-10.84,8.07-2.67,0-4.95-.78-6.83-2.33-1.88-1.56-2.83-3.96-2.83-7.22s1.1-6.37,3.31-9.34c2.2-2.97,5.08-5.55,8.62-7.75,3.54-2.19,7.64-3.96,12.29-5.31,4.64-1.34,9.41-2.02,14.29-2.02,13.07,0,22.37,2.2,27.88,6.58,5.51,4.39,8.27,11.68,8.27,21.87v46.07c0,5.24,2.67,7.85,8.01,7.85,2.51,0,4.95-.78,7.3-2.33l2.59,1.7Zm-36.75-37.15c-4.9.42-9.72,1.17-14.46,2.23s-8.97,2.55-12.68,4.46c-3.71,1.91-6.72,4.35-9.01,7.33-2.29,2.97-3.43,6.65-3.43,11.04,0,9.2,4.98,13.8,14.93,13.8,4.42,0,8.1-.6,11.02-1.8,2.92-1.2,5.29-2.79,7.11-4.78,1.82-1.98,3.24-4.17,4.27-6.58,1.03-2.41,1.78-4.81,2.25-7.22v-18.47Z"/><path class="cls-22" d="m715.48,435.47c-7.22-14.58-16.81-21.87-28.74-21.87-4.87,0-9.11,1.07-12.72,3.19-3.61,2.13-5.42,5.68-5.42,10.64,0,2.84,1.45,5.25,4.36,7.24,2.9,1.99,6.52,3.83,10.84,5.53,4.32,1.7,8.99,3.4,14.02,5.11,5.03,1.71,9.7,3.73,14.02,6.07,4.32,2.34,7.93,5.14,10.84,8.41,2.9,3.26,4.36,7.31,4.36,12.13,0,4.26-.87,8.09-2.59,11.49-1.73,3.41-4.12,6.32-7.19,8.73-3.06,2.41-6.6,4.36-10.6,5.85-4,1.49-8.21,2.51-12.6,3.08-7.86,0-14.84-1.84-20.97-5.52-3.46,2.4-8.17,3.96-14.13,4.67-2.51-10.33-3.77-21.37-3.77-33.12h6.36c1.73,5.1,3.61,9.38,5.65,12.84,2.04,3.47,4.32,6.23,6.83,8.28,2.51,2.05,5.34,3.5,8.48,4.35,3.14.85,6.67,1.27,10.6,1.27,13.03,0,19.55-4.6,19.55-13.8,0-2.69-.51-4.99-1.53-6.9-1.02-1.91-2.59-3.54-4.71-4.88-2.12-1.34-4.75-2.62-7.89-3.82-3.14-1.2-6.83-2.44-11.07-3.72-3.3-.99-6.83-2.23-10.6-3.71-3.77-1.49-7.26-3.29-10.48-5.41-3.22-2.12-5.89-4.63-8.01-7.54-2.12-2.9-3.18-6.26-3.18-10.08s.62-7.36,1.88-10.62c1.25-3.25,3.18-6.08,5.77-8.49,2.59-2.41,5.93-4.28,10.01-5.63,4.08-1.34,8.95-2.02,14.6-2.02,6.75,0,13.35,1.7,19.79,5.1,2.51-1.84,5.57-3.25,9.19-4.25,2.83,9.63,4.24,18.76,4.24,27.39h-5.18Z"/><path class="cls-22" d="m807.58,497.89v-6.37c5.49,0,8.24-1.13,8.24-3.4l-26.15-33.97c-1.73,1.13-3.65,2.23-5.77,3.29s-4.75,2.16-7.89,3.29v21.02c0,6.51,5.73,9.77,17.2,9.77v6.37h-52.06v-6.37c10.05,0,15.08-3.54,15.08-10.62v-106.79c0-6.93-5.34-10.4-16.02-10.4v-6.58l35.8-5.52v99.36c2.98-1.56,6.44-3.68,10.36-6.37,3.92-2.69,7.66-5.52,11.19-8.49,3.53-2.97,6.52-5.8,8.95-8.49,2.43-2.69,3.65-4.88,3.65-6.58,0-2.69-4.4-4.03-13.19-4.03v-5.52h50.88v5.52c-2.2,0-5.11.57-8.71,1.7-3.62,1.13-8.17,2.69-13.66,4.67-4.71,4.53-8.99,8.25-12.84,11.15-3.85,2.9-7.34,5.13-10.48,6.69l32.51,39.7c5.5,7.08,11.15,10.62,16.96,10.62h5.42v6.37h-49.47Z"/><path class="cls-22" d="m947.74,476.87c-4.09,7.93-9.58,14.09-16.49,18.47-6.91,4.39-15.08,6.58-24.5,6.58-7.85,0-14.76-1.2-20.73-3.61-5.97-2.41-10.95-5.66-14.96-9.77-4-4.1-7.03-8.99-9.07-14.65-2.04-5.66-3.06-11.68-3.06-18.05s1.1-12.45,3.3-18.26c2.2-5.8,5.3-10.97,9.3-15.5,4-4.53,8.83-8.14,14.49-10.83,5.65-2.69,11.93-4.03,18.84-4.03,4.24,0,8.68.46,13.31,1.38,4.63.92,8.99,2.73,13.07,5.41,4.08,2.69,7.62,6.55,10.6,11.57,2.98,5.03,4.95,11.64,5.89,19.85,0,1.7-.23,3.26-.71,4.67h-62.66c-2.98,0-4.47,1.06-4.47,3.18,0,5.1.78,9.91,2.36,14.44,1.57,4.53,3.77,8.49,6.6,11.89,2.83,3.4,6.28,6.05,10.37,7.96,4.08,1.91,8.63,2.87,13.66,2.87,6.6,0,12.29-1.7,17.08-5.1,4.79-3.4,8.99-7.36,12.6-11.89l5.18,3.4Zm-32.04-33.12c6.44,0,9.66-2.97,9.66-8.92-.47-5.38-2.47-10.08-6.01-14.12-3.53-4.03-8.68-6.05-15.43-6.05-3.62,0-6.91.74-9.89,2.23-2.98,1.49-5.54,3.47-7.65,5.94-2.12,2.48-3.73,5.31-4.83,8.49-1.1,3.18-1.65,6.48-1.65,9.87,0,1.7,1.73,2.55,5.18,2.55h30.62Z"/><path class="cls-22" d="m1025.71,476.24c-.94,3.68-2.12,7.04-3.53,10.08-1.41,3.04-3.3,5.66-5.65,7.86-2.36,2.2-5.3,3.89-8.83,5.09-3.53,1.2-7.74,1.8-12.6,1.8-7.7,0-13.78-1.67-18.26-4.99-4.48-3.32-6.71-8.67-6.71-16.03v-60.51h-15.31l.94-6.37c7.22-1.27,13.03-4.99,17.43-11.15,4.39-6.16,7.54-13.27,9.42-21.34l7.3-.85v31.42h18.61c2.2,0,4.2-.15,6.01-.46,1.8-.31,3.41-.65,4.83-1.02v9.77h-29.45v55.84c0,1.7.08,3.36.24,4.99.15,1.63.59,3.15,1.29,4.56.71,1.42,1.84,2.55,3.42,3.4,1.57.85,3.77,1.27,6.6,1.27,4.55,0,8.63-1.41,12.25-4.25,3.61-2.83,5.81-6.44,6.6-10.83l5.42,1.7Z"/><path class="cls-2" d="m106.22,57.56c-.59-.38.18-1.87.98-2.81,1.29-1.51,4.04-3.23,6.75-2.87,2.94.4,4.43,3.07,3.69,3.82-.63.64-2.41-.55-5.77.05-3.21.57-4.96,2.25-5.66,1.8Z"/><path class="cls-10" d="m75.61,71.22c5.96-4.29,18.32-11.96,35.93-14.31,6.81-.91,33.2-4.42,53.89,12.26,15.37,12.39,25.5,34.25,17.96,55.19-9.49,26.36-40.5,33.27-47.15,34.75-4.54,1.01-33.98,7.1-58.38-10.22-4.66-3.31-19.63-13.93-22.45-32.71-3.86-25.62,18.33-43.51,20.21-44.97Z"/><g class="cls-18"><path class="cls-19" d="m153.45,74.16c.48,0,.48-.75,0-.75s-.48.75,0,.75h0Z"/></g><g class="cls-18"><path class="cls-19" d="m133.54,75.71c.48,0,.48-.75,0-.75s-.48.75,0,.75h0Z"/></g><g class="cls-18"><path class="cls-19" d="m141.22,110.03c.48,0,.48-.75,0-.75s-.48.75,0,.75h0Z"/></g><g class="cls-18"><path class="cls-19" d="m162.55,93.52c.48,0,.48-.75,0-.75s-.48.75,0,.75h0Z"/></g><g class="cls-18"><path class="cls-19" d="m89.74,80.1c.48,0,.48-.75,0-.75s-.48.75,0,.75h0Z"/></g><g class="cls-18"><path class="cls-19" d="m108.51,65.39c.48,0,.48-.75,0-.75s-.48.75,0,.75h0Z"/></g><g class="cls-18"><path class="cls-19" d="m112.78,107.45c.48,0,.48-.75,0-.75s-.48.75,0,.75h0Z"/></g><g class="cls-18"><path class="cls-19" d="m110.79,86.03c.48,0,.48-.75,0-.75s-.48.75,0,.75h0Z"/></g><g class="cls-18"><path class="cls-19" d="m136.1,90.68c.48,0,.48-.75,0-.75s-.48.75,0,.75h0Z"/></g><g class="cls-18"><path class="cls-19" d="m165.97,117c.48,0,.48-.75,0-.75s-.48.75,0,.75h0Z"/></g><g class="cls-18"><path class="cls-19" d="m136.95,153.12c.48,0,.48-.75,0-.75s-.48.75,0,.75h0Z"/></g><g class="cls-18"><path class="cls-19" d="m114.77,121.12c.48,0,.48-.75,0-.75s-.48.75,0,.75h0Z"/></g><g class="cls-18"><path class="cls-19" d="m143.5,127.06c.48,0,.48-.75,0-.75s-.48.75,0,.75h0Z"/></g><g class="cls-18"><path class="cls-19" d="m153.74,141.77c.48,0,.48-.75,0-.75s-.48.75,0,.75h0Z"/></g><g class="cls-18"><path class="cls-19" d="m110.22,146.15c.48,0,.48-.75,0-.75s-.48.75,0,.75h0Z"/></g><g class="cls-18"><path class="cls-19" d="m88.32,118.29c.48,0,.48-.75,0-.75s-.48.75,0,.75h0Z"/></g><g class="cls-18"><path class="cls-19" d="m99.7,98.42c.48,0,.48-.75,0-.75s-.48.75,0,.75h0Z"/></g><g class="cls-18"><path class="cls-19" d="m71.82,93.77c.48,0,.48-.75,0-.75s-.48.75,0,.75h0Z"/></g><g class="cls-18"><path class="cls-19" d="m75.24,112.35c.48,0,.48-.75,0-.75s-.48.75,0,.75h0Z"/></g><g class="cls-18"><path class="cls-19" d="m105.95,134.8c.48,0,.48-.75,0-.75s-.48.75,0,.75h0Z"/></g><g class="cls-18"><path class="cls-19" d="m130.41,96.87c.48,0,.48-.75,0-.75s-.48.75,0,.75h0Z"/></g><g class="cls-18"><path class="cls-19" d="m128.42,138.15c.48,0,.48-.75,0-.75s-.48.75,0,.75h0Z"/></g><g class="cls-18"><path class="cls-19" d="m165.97,130.41c.48,0,.48-.75,0-.75s-.48.75,0,.75h0Z"/></g><g class="cls-18"><path class="cls-19" d="m181.32,99.71c.48,0,.48-.75,0-.75s-.48.75,0,.75h0Z"/></g><g class="cls-18"><path class="cls-19" d="m69.55,123.19c.48,0,.48-.75,0-.75s-.48.75,0,.75h0Z"/></g><g class="cls-18"><path class="cls-19" d="m93.72,143.57c.48,0,.48-.75,0-.75s-.48.75,0,.75h0Z"/></g><g class="cls-18"><path class="cls-19" d="m101.97,114.16c.48,0,.48-.75,0-.75s-.48.75,0,.75h0Z"/></g><g class="cls-18"><path class="cls-19" d="m85.48,100.48c.48,0,.48-.75,0-.75s-.48.75,0,.75h0Z"/></g><g class="cls-18"><path class="cls-19" d="m132.12,64.62c.48,0,.48-.75,0-.75s-.48.75,0,.75h0Z"/></g><g class="cls-18"><path class="cls-19" d="m157.15,106.67c.48,0,.48-.75,0-.75s-.48.75,0,.75h0Z"/></g><g class="cls-18"><path class="cls-19" d="m90.31,68.49c.48,0,.48-.75,0-.75s-.48.75,0,.75h0Z"/></g><g class="cls-18"><path class="cls-19" d="m130.13,118.8c.48,0,.48-.75,0-.75s-.48.75,0,.75h0Z"/></g><g class="cls-18"><path class="cls-19" d="m178.76,115.45c.48,0,.48-.75,0-.75s-.48.75,0,.75h0Z"/></g><path class="cls-4" d="m74.98,131.46c-.92.26-.22,11.62,9.78,16.88,4.55,2.4,10.19,3.08,10.62,2.43.46-.7-5.34-2.51-11.03-7.2-7.49-6.18-8.68-12.3-9.37-12.11Z"/><path class="cls-2" d="m115.35,263.54c-6.46,5.21-16.34,13.17-28.07,13.12-7.53-.03-12.39-3.36-20.34-8.81-10.25-7.03-17.95-16.01-16.29-17.47,1.96-1.73,15.63,8.34,19.08,5.74,3.74-2.82-7.98-17.91-6.25-18.95,1.95-1.16,17.43,17.49,20.23,15.96,2.87-1.56-9.62-23.22-7.04-24.57,2.49-1.3,15.68,17.98,20.23,15.96,4.22-1.86-1.09-21.07.32-21.46,1.22-.34,3.22,14.55,10.67,14.88,6.24.28,12.82-9.82,14.51-9.11,2.31.97-10.42,19.84-8.15,20.9,2.61,1.23,21.76-22.52,24.7-21.32,2.49,1.02-5.3,20.37-23.6,35.12Z"/><path class="cls-2" d="m130.62,351.4c-.35.5.91,1.28,1.98,1.65,1.72.6,4.78.78,6.95-.52,2.36-1.42,2.56-3.91,1.62-4.18-.8-.22-1.84,1.32-4.97,2.17-2.98.82-5.17.28-5.59.87Z"/><path class="cls-8" d="m315.36,279.38c2.71-4.14-3.73-11.88-9.85-19.25-4.16-5-6.24-7.5-7.51-7.13-3.87,1.14-2.13,25.59,8.27,28.75,3.27.99,7.57-.06,9.08-2.38Z"/><path class="cls-5" d="m260.17,278.47c6.71-2.22,20.25-5.72,37.02-3.01,6.49,1.05,31.62,5.12,45.58,25.75,10.37,15.33,13.18,37.71.12,54.44-16.44,21.06-46.79,18.77-53.3,18.27-4.44-.34-33.12-2.93-50.29-25.15-3.28-4.24-13.81-17.87-10.85-35.49,4.03-24.04,29.57-34.02,31.72-34.82Z"/><path class="cls-4" d="m244.93,327.26c-.97.19-1.32,13.98,8.43,21.59,4.44,3.47,10.16,5.01,10.66,4.27.54-.79-5.24-3.7-10.63-10.07-7.1-8.39-7.74-15.93-8.46-15.79Z"/><path class="cls-14" d="m427.94,470.73c-.44.12.51,10.2,5.76,15.96,2.39,2.62,5.23,3.86,5.41,3.34.19-.56-2.79-2.81-5.87-7.58-4.05-6.28-4.97-11.81-5.3-11.72Z"/><path class="cls-9" d="m172.17,336.63l-70.05,26.83c-3.86,1.48-8.27-.36-9.8-4.09l-31-75.58c-1.53-3.73.38-7.99,4.24-9.47l70.05-26.83c3.86-1.48,8.27.36,9.8,4.09l31,75.58c1.53,3.73-.38,7.99-4.24,9.47Z"/><polyline class="cls-1" points="71.52 282.7 77.14 285.29 79.31 279.71"/><polyline class="cls-1" points="130.5 265.87 136.12 268.46 138.3 262.89"/><polyline class="cls-1" points="137.22 282.27 142.85 284.86 145.02 279.28"/><polyline class="cls-1" points="110 267.79 115.63 270.38 117.8 264.81"/><polyline class="cls-1" points="92.4 280.47 98.02 283.06 100.19 277.48"/><polyline class="cls-1" points="116.43 282.86 122.06 285.45 124.23 279.87"/><polyline class="cls-1" points="121.9 296.18 127.52 298.77 129.7 293.19"/><polyline class="cls-1" points="98.41 294.51 104.03 297.1 106.2 291.52"/><polyline class="cls-1" points="109.33 321.15 114.96 323.74 117.13 318.16"/><polyline class="cls-1" points="82.48 311.28 88.1 313.87 90.28 308.29"/><polyline class="cls-1" points="114.84 334.6 120.47 337.19 122.64 331.62"/><polyline class="cls-1" points="142.86 295.42 148.48 298.01 150.66 292.43"/><polyline class="cls-1" points="89.3 324.23 94.93 326.82 97.1 321.24"/><polyline class="cls-1" points="132.45 321.93 138.07 324.52 140.25 318.95"/><polyline class="cls-1" points="96.08 337.05 101.7 339.64 103.88 334.06"/><polyline class="cls-1" points="147.48 306.69 153.11 309.28 155.28 303.7"/><polyline class="cls-1" points="127.41 309.64 133.03 312.23 135.21 306.65"/><polyline class="cls-1" points="153.37 321.04 158.99 323.62 161.17 318.05"/><polyline class="cls-1" points="103.92 307.96 109.54 310.55 111.71 304.98"/><polyline class="cls-1" points="77.48 297.85 83.1 300.44 85.28 294.86"/><polyline class="cls-1" points="138.03 334.5 143.65 337.09 145.83 331.52"/><polyline class="cls-1" points="109.97 347.62 115.59 350.21 117.76 344.64"/><path class="cls-4" d="m92.05,346.53c-.47.33,4.57,6.84,12.92,7.98,3.81.52,7.59-.17,7.6-.64,0-.5-4.34-.43-9.78-2.07-7.17-2.16-10.39-5.52-10.74-5.27Z"/><path class="cls-19" d="m764.52,376.9c.48,0,.48-.75,0-.75s-.48.75,0,.75h0Z"/><path class="cls-19" d="m762.83,388.38c.48,0,.48-.75,0-.75s-.48.75,0,.75h0Z"/><path class="cls-14" d="m508.29,377.56c.33-.32-5.3-8.73-12.65-11.3-3.35-1.17-6.44-.91-6.34-.37.1.59,3.79,1.15,8.76,3.88,6.55,3.6,9.99,8.03,10.23,7.79Z"/><path class="cls-14" d="m627.99,434.93c.41-.21-2.49-9.9-8.77-14.52-2.86-2.11-5.88-2.77-5.96-2.22-.08.59,3.28,2.21,7.23,6.29,5.2,5.37,7.18,10.61,7.49,10.45Z"/><path class="cls-14" d="m560.13,476.79c-.44.12.51,10.2,5.76,15.96,2.39,2.62,5.23,3.86,5.41,3.34.19-.56-2.79-2.81-5.87-7.58-4.05-6.28-4.97-11.81-5.3-11.72Z"/><path class="cls-14" d="m660.54,478.81c-.39.24,3.38,9.64,10.05,13.67,3.04,1.84,6.11,2.22,6.13,1.67.02-.59-3.47-1.9-7.77-5.6-5.67-4.87-8.11-9.92-8.41-9.73Z"/><path class="cls-14" d="m719.17,429.72c.19-.1-1.08-6.27-3.94-9.51-1.3-1.48-2.7-2.07-2.73-1.73-.04.36,1.5,1.57,3.29,4.33,2.36,3.64,3.24,7,3.38,6.92Z"/><path class="cls-14" d="m766.04,363.17c-.46.02-1.9,10.03,1.85,16.86,1.71,3.11,4.18,4.98,4.47,4.51.32-.5-2.05-3.38-3.92-8.74-2.47-7.06-2.06-12.65-2.4-12.63Z"/><path class="cls-14" d="m820.06,494.19c-.07.43,7.83,2.68,14.04-.17,2.83-1.3,4.78-3.42,4.45-3.74-.35-.34-3.11,1.59-7.8,2.84-6.17,1.64-10.64.75-10.69,1.07Z"/><path class="cls-14" d="m882.72,482.25c-.38.25,3.63,9.54,10.4,13.4,3.08,1.76,6.17,2.06,6.17,1.51,0-.6-3.52-1.81-7.92-5.4-5.79-4.72-8.37-9.7-8.66-9.51Z"/><path class="cls-14" d="m939.7,435.71c.42-.18-1.79-10.05-7.72-15.11-2.7-2.3-5.67-3.17-5.78-2.63-.12.58,3.12,2.44,6.77,6.78,4.81,5.72,6.42,11.09,6.73,10.96Z"/><path class="cls-14" d="m996.81,497.25c0,.47,7.81.94,13.16-3.54,2.44-2.04,3.92-4.73,3.55-4.98-.39-.27-2.65,2.41-6.85,4.84-5.52,3.2-9.88,3.33-9.87,3.68Z"/><path class="cls-14" d="m975.91,412.89c.22.31,6.91-3.14,9.32-8.76,1.1-2.56,1.1-5.09.68-5.09-.45,0-1.11,2.92-3.48,6.59-3.13,4.83-6.68,7.03-6.52,7.26Z"/><path class="cls-15" d="m1027.45,559.46c-15.21,8.12-4.88,54.75,1.72,75.83,2.51,8,21.76,69,58.55,77.55,5.73,1.33,18.37,2.94,31,3.45,4.52.18,4.77.05,25.83,0,19-.04,19.91.14,27.55,0,15.67-.28,26.32-.47,32.72-1.72,31.47-6.18,47.78-55.45,53.38-72.38,8.46-25.57,18.93-74.74,3.44-82.72-9.46-4.87-18.87,10.64-46.49,24.13-37.49,18.3-88.3,23-129.15,6.89-35.35-13.94-47.11-37.12-58.55-31.02Z"/><path class="cls-17" d="m1021.93,601c16.29,7.61,46.06,19.32,86.59,23.65,16.86,1.8,62.65,5.21,112.71-9.94,21.83-6.61,37.85-14.75,48.15-20.77"/><path class="cls-17" d="m1035.45,654.45c14.51,7.55,41.03,19.15,77.19,23.33,15.04,1.74,55.89,4.98,100.62-10.36,19.5-6.69,33.83-14.88,43.05-20.95"/><path class="cls-17" d="m1047.78,567.47l1.55,113.31c17.9,7.64,43.32,15.91,74.55,18.26,35.65,2.68,62.45-3.59,68.88-5.17,22.97-5.65,40.95-14.25,53.21-21.23"/><line class="cls-17" x1="1099.96" y1="595.09" x2="1102.57" y2="715.08"/><line class="cls-17" x1="1151.66" y1="599.94" x2="1156.26" y2="715.08"/><line class="cls-17" x1="1203.43" y1="588.69" x2="1210.53" y2="712.91"/><line class="cls-17" x1="1252.11" y1="560.24" x2="1258.19" y2="642.17"/><path class="cls-17" d="m1026.76,629.43c15.67,7.59,44.3,19.26,83.3,23.54,16.23,1.78,60.28,5.13,108.48-10.09,21.01-6.64,36.44-14.8,46.37-20.83"/><path class="cls-17" d="m1027.54,560.65c-1.81-2.52-5.74-7.22-12.37-9.96-2.89-1.19-13.58-5.62-19.63.26-3.34,3.25-4.63,9.03-2.69,13.19,3.19,6.86,14.03,6.96,18.82,7,4.15.04,7.58-.67,9.95-1.34"/><path class="cls-17" d="m1261.79,560.73c1.81-2.52,5.74-7.22,12.37-9.96,2.89-1.19,13.58-5.62,19.63.26,3.34,3.25,4.63,9.03,2.69,13.19-3.19,6.86-14.03,6.96-18.82,7-4.15.04-7.58-.67-9.95-1.34"/><path class="cls-15" d="m92.39,559.36c-15.58,8.05-5,54.3,1.76,75.19,2.57,7.94,22.29,68.42,59.98,76.9,5.87,1.32,18.82,2.92,31.75,3.42,4.63.18,4.89.05,26.46,0,19.47-.04,20.4.13,28.23,0,16.06-.28,26.97-.46,33.52-1.71,32.24-6.13,48.95-54.99,54.69-71.78,8.67-25.35,19.39-74.12,3.53-82.03-9.69-4.83-19.33,10.55-47.63,23.93-38.41,18.15-90.47,22.81-132.31,6.84-36.22-13.83-48.27-36.81-59.98-30.76Z"/><path class="cls-17" d="m86.73,600.56c16.69,7.55,47.19,19.16,88.71,23.45,17.28,1.79,64.18,5.17,115.47-9.86,22.36-6.55,38.78-14.63,49.33-20.6"/><path class="cls-17" d="m100.59,653.56c14.86,7.49,42.04,18.99,79.08,23.13,15.41,1.72,57.26,4.94,103.08-10.27,19.98-6.63,34.66-14.76,44.1-20.77"/><path class="cls-17" d="m113.22,567.31l1.58,112.37c18.33,7.58,44.38,15.77,76.37,18.1,36.53,2.66,63.98-3.56,70.56-5.13,23.53-5.61,41.95-14.13,54.52-21.05"/><line class="cls-17" x1="166.67" y1="594.69" x2="169.35" y2="713.69"/><line class="cls-17" x1="219.63" y1="599.51" x2="224.35" y2="713.69"/><line class="cls-17" x1="272.68" y1="588.35" x2="279.95" y2="711.54"/><line class="cls-17" x1="322.55" y1="560.14" x2="328.78" y2="641.39"/><path class="cls-17" d="m91.68,628.75c16.05,7.53,45.38,19.1,85.34,23.34,16.62,1.76,61.76,5.09,111.13-10.01,21.53-6.58,37.34-14.67,47.5-20.66"/><path class="cls-17" d="m92.48,560.54c-1.86-2.5-5.88-7.16-12.67-9.88-2.96-1.18-13.91-5.57-20.11.26-3.43,3.22-4.74,8.95-2.76,13.08,3.27,6.8,14.37,6.9,19.28,6.95,4.25.04,7.77-.67,10.19-1.33"/><path class="cls-17" d="m332.47,560.62c1.86-2.5,5.88-7.16,12.67-9.88,2.96-1.18,13.91-5.57,20.11.26,3.43,3.22,4.74,8.95,2.76,13.08-3.27,6.8-14.37,6.9-19.28,6.95-4.25.04-7.77-.67-10.19-1.33"/><path class="cls-2" d="m1089.83,183.9c.62.42.02,1.65-.68,2.38-1.12,1.17-3.67,2.33-6.4,1.61-2.97-.77-4.73-3.38-4.08-3.95.56-.48,2.45.83,5.73.77,3.13-.06,4.69-1.31,5.43-.81Z"/><path class="cls-2" d="m1068.01,75.57c-.18-.66,1.2-1.3,2.29-1.51,1.74-.33,4.58.12,6.2,2.12,1.75,2.17,1.21,5.14.28,5.24-.79.09-1.3-1.94-3.91-3.62-2.49-1.61-4.64-1.45-4.85-2.23Z"/><path class="cls-7" d="m1102.82,84.08c3.52,2.99,5.15,7.94,8.43,17.83,3.24,9.78,2.43,11.02,5.06,15.69,4.17,7.42,8.27,7.99,12.64,13.55,7.11,9.04,8.69,23.35,1.69,34.23-6.89,10.69-19.67,14.33-26.97,16.4-4.32,1.23-21.09,5.76-39.61-.71-5.52-1.93-17-5.94-23.6-16.4-6.93-10.98-5.04-23.63,0-32.09,3.87-6.49,6.4-5.16,10.11-11.41,8-13.47-2.39-21.94,5.06-32.09,6.64-9.04,20.89-10.48,23.6-10.7,2.51-.2,15.42-1.25,23.6,5.7Z"/><path class="cls-4" d="m1049.53,157.13c-.81.37,2.14,9.92,12.54,12.75,4.74,1.29,10.14.94,10.41.31.29-.67-5.49-1.25-11.75-4.3-8.25-4.02-10.59-9.03-11.2-8.76Z"/><path class="cls-8" d="m1099.27,261.19c-.35-3.6-7.02-5.66-13.36-7.62-4.31-1.33-6.46-2-6.97-1.26-1.54,2.26,9.78,16.3,16.58,13.99,2.14-.72,3.94-3.1,3.75-5.12Z"/><path class="cls-5" d="m1069.96,283.01c2.57-4.06,8.18-11.66,18.12-16.82,3.85-2,18.75-9.73,34.86-2.94,11.96,5.04,22.97,17.41,23.25,32.79.36,19.37-16.53,30.28-20.15,32.63-2.47,1.6-18.6,11.66-37.06,5.21-3.53-1.23-14.85-5.19-20.8-17.01-8.13-16.14,1.01-32.51,1.79-33.86Z"/><path class="cls-4" d="m1082.75,318.62c-.42.51,5.26,8.97,13.61,9.6,3.81.29,7.46-1.1,7.41-1.74-.05-.69-4.32-.11-9.86-1.77-7.3-2.18-10.84-6.47-11.16-6.09Z"/><path class="cls-6" d="m1120.41,436.76c-6.37,3.23-6.04,44.69,20.24,67.95,25.66,22.71,68.09,20.98,71.16,14.82,2.44-4.9-21.07-10.41-50.19-36.69-29.32-26.46-36.21-48.6-41.21-46.07Z"/><path class="cls-2" d="m1117.31,445.4c-.92,0-1.37-1.96-1.33-3.4.07-2.31,1.47-5.77,4.58-7.15,3.37-1.49,7.14.18,7,1.4-.11,1.03-2.94,1.01-5.91,3.75-2.84,2.62-3.25,5.4-4.34,5.41Z"/><path class="cls-2" d="m1212.46,516.9c.46.03.55,1.34.43,2.29-.19,1.52-1.13,3.73-2.78,4.5-1.79.84-3.56-.42-3.41-1.21.13-.67,1.54-.54,3.21-2.21,1.6-1.6,1.99-3.41,2.54-3.37Z"/><path class="cls-2" d="m1243.35,130.28c-.37-.41.52-1.38,1.33-1.94,1.29-.88,3.74-1.62,5.73-.78,2.16.91,2.74,3.25,2.02,3.67-.61.36-1.72-.91-4.4-1.15-2.56-.23-4.24.68-4.68.2Z"/><path class="cls-10" d="m1217.23,134.33c5.42-2.03,16.41-5.3,30.29-3.45,5.37.72,26.18,3.5,38.48,20.47,9.13,12.6,12.33,31.31,2.27,45.66-12.66,18.08-37.69,16.91-43.06,16.66-3.66-.17-27.33-1.63-42.31-19.84-2.86-3.48-12.06-14.65-10.33-29.5,2.35-20.27,22.94-29.28,24.67-30Z"/><g class="cls-18"><path class="cls-19" d="m1275.93,152.76c.48,0,.48-.75,0-.75s-.48.75,0,.75h0Z"/></g><g class="cls-18"><path class="cls-19" d="m1260.46,149.82c.48,0,.48-.75,0-.75s-.48.75,0,.75h0Z"/></g><g class="cls-18"><path class="cls-19" d="m1259.22,177.49c.48,0,.48-.75,0-.75s-.48.75,0,.75h0Z"/></g><g class="cls-18"><path class="cls-19" d="m1278.86,169.35c.48,0,.48-.75,0-.75s-.48.75,0,.75h0Z"/></g><g class="cls-18"><path class="cls-19" d="m1226.23,144.09c.48,0,.48-.75,0-.75s-.48.75,0,.75h0Z"/></g><g class="cls-18"><path class="cls-19" d="m1243.55,136.79c.48,0,.48-.75,0-.75s-.48.75,0,.75h0Z"/></g><g class="cls-18"><path class="cls-19" d="m1238.11,169.65c.48,0,.48-.75,0-.75s-.48.75,0,.75h0Z"/></g><g class="cls-18"><path class="cls-19" d="m1241.02,152.96c.48,0,.48-.75,0-.75s-.48.75,0,.75h0Z"/></g><g class="cls-18"><path class="cls-19" d="m1259.32,161.72c.48,0,.48-.75,0-.75s-.48.75,0,.75h0Z"/></g><g class="cls-18"><path class="cls-19" d="m1276.61,187.9c.48,0,.48-.75,0-.75s-.48.75,0,.75h0Z"/></g><g class="cls-18"><path class="cls-19" d="m1247.07,209.36c.48,0,.48-.75,0-.75s-.48.75,0,.75h0Z"/></g><g class="cls-18"><path class="cls-19" d="m1236.8,180.45c.48,0,.48-.75,0-.75s-.48.75,0,.75h0Z"/></g><g class="cls-18"><path class="cls-19" d="m1257.43,190.9c.48,0,.48-.75,0-.75s-.48.75,0,.75h0Z"/></g><g class="cls-18"><path class="cls-19" d="m1262.18,204.2c.48,0,.48-.75,0-.75s-.48.75,0,.75h0Z"/></g><g class="cls-18"><path class="cls-19" d="m1228.16,198.53c.48,0,.48-.75,0-.75s-.48.75,0,.75h0Z"/></g><g class="cls-18"><path class="cls-19" d="m1217.26,172.82c.48,0,.48-.75,0-.75s-.48.75,0,.75h0Z"/></g><g class="cls-18"><path class="cls-19" d="m1230.02,160.08c.48,0,.48-.75,0-.75s-.48.75,0,.75h0Z"/></g><g class="cls-18"><path class="cls-19" d="m1209.77,150.78c.48,0,.48-.75,0-.75s-.48.75,0,.75h0Z"/></g><g class="cls-18"><path class="cls-19" d="m1208.53,165.61c.48,0,.48-.75,0-.75s-.48.75,0,.75h0Z"/></g><g class="cls-18"><path class="cls-19" d="m1227.26,189.02c.48,0,.48-.75,0-.75s-.48.75,0,.75h0Z"/></g><g class="cls-18"><path class="cls-19" d="m1253.71,165.25c.48,0,.48-.75,0-.75s-.48.75,0,.75h0Z"/></g><g class="cls-18"><path class="cls-19" d="m1243.67,196.22c.48,0,.48-.75,0-.75s-.48.75,0,.75h0Z"/></g><g class="cls-18"><path class="cls-19" d="m1273.84,198.1c.48,0,.48-.75,0-.75s-.48.75,0,.75h0Z"/></g><g class="cls-18"><path class="cls-19" d="m1291.87,177.94c.48,0,.48-.75,0-.75s-.48.75,0,.75h0Z"/></g><g class="cls-18"><path class="cls-19" d="m1201.96,172.67c.48,0,.48-.75,0-.75s-.48.75,0,.75h0Z"/></g><g class="cls-18"><path class="cls-19" d="m1216.14,193.16c.48,0,.48-.75,0-.75s-.48.75,0,.75h0Z"/></g><g class="cls-18"><path class="cls-19" d="m1228.5,172.51c.48,0,.48-.75,0-.75s-.48.75,0,.75h0Z"/></g><g class="cls-18"><path class="cls-19" d="m1218.77,158.7c.48,0,.48-.75,0-.75s-.48.75,0,.75h0Z"/></g><g class="cls-18"><path class="cls-19" d="m1261.67,141.09c.48,0,.48-.75,0-.75s-.48.75,0,.75h0Z"/></g><g class="cls-18"><path class="cls-19" d="m1272.03,178.23c.48,0,.48-.75,0-.75s-.48.75,0,.75h0Z"/></g><g class="cls-18"><path class="cls-19" d="m1229.06,135.38c.48,0,.48-.75,0-.75s-.48.75,0,.75h0Z"/></g><g class="cls-18"><path class="cls-19" d="m1248.96,181.86c.48,0,.48-.75,0-.75s-.48.75,0,.75h0Z"/></g><g class="cls-18"><path class="cls-19" d="m1286.67,189.37c.48,0,.48-.75,0-.75s-.48.75,0,.75h0Z"/></g><path class="cls-4" d="m1204.31,179.99c-.75,0-2.56,8.79,3.95,14.85,2.97,2.76,7.12,4.45,7.58,4.04.49-.44-3.54-3.01-6.9-7.75-4.43-6.24-4.06-11.15-4.63-11.14Z"/><path class="cls-2" d="m1258.29,318.59c-5.94.02-15.02.04-20.77-5.75-3.69-3.72-4.32-8.14-5.35-15.38-1.33-9.34-.36-18.62,1.23-18.7,1.88-.09,3.28,12.78,6.36,12.88,3.33.11,5.55-14.89,6.96-14.67,1.58.24-.68,19.27,1.51,19.71,2.24.45,7.56-18.94,9.55-18.5,1.92.42-1.8,18.71,1.51,19.71,3.06.93,10.62-13.43,11.52-12.98.78.39-6.12,10.49-2.63,14.35,2.92,3.24,11.52.28,11.97,1.54.63,1.73-15.64,7.03-15.09,8.8.63,2.03,22.65-3.1,23.46-.92.69,1.84-13.4,9.87-30.23,9.91Z"/><path class="cls-2" d="m1219.28,379.88c-.44.13-.23,1.23.1,1.99.53,1.21,1.94,2.82,3.7,3.09,1.91.29,3.33-1.14,3.01-1.76-.28-.53-1.6-.1-3.6-1.11-1.9-.96-2.69-2.37-3.21-2.21Z"/><path class="cls-9" d="m1236.65,387.21l-26.87-9.92c-8.69-3.21-13.06-12.64-9.71-20.96l17.02-42.28c3.35-8.32,13.2-12.5,21.89-9.3l26.87,9.92c8.69,3.21,13.06,12.64,9.71,20.96l-17.02,42.28c-3.35,8.32-13.2,12.5-21.89,9.3Z"/><polyline class="cls-1" points="1226.55 308.79 1227.95 313.14 1231.98 310.79"/><polyline class="cls-1" points="1264.52 327.46 1265.92 331.8 1269.94 329.46"/><polyline class="cls-1" points="1259.15 340.8 1260.55 345.14 1264.57 342.8"/><polyline class="cls-1" points="1253.41 318.57 1254.81 322.91 1258.83 320.57"/><polyline class="cls-1" points="1238.02 317.68 1239.42 322.03 1243.45 319.68"/><polyline class="cls-1" points="1248.59 330.95 1249.99 335.3 1254.02 332.95"/><polyline class="cls-1" points="1233.55 329.23 1234.94 333.57 1238.97 331.23"/><polyline class="cls-1" points="1224.82 350.9 1226.22 355.25 1230.24 352.9"/><polyline class="cls-1" points="1216.82 331.67 1218.22 336.02 1222.24 333.67"/><polyline class="cls-1" points="1220.41 361.85 1221.8 366.19 1225.83 363.85"/><polyline class="cls-1" points="1213.32 342.95 1214.72 347.3 1218.74 344.96"/><polyline class="cls-1" points="1235.79 362.74 1237.19 367.08 1241.21 364.74"/><polyline class="cls-1" points="1209.87 354.13 1211.27 358.48 1215.29 356.13"/><polyline class="cls-1" points="1251.27 360.79 1252.67 365.13 1256.69 362.79"/><polyline class="cls-1" points="1239.82 352.73 1241.22 357.08 1245.24 354.73"/><polyline class="cls-1" points="1246.57 372.46 1247.97 376.81 1251.99 374.46"/><polyline class="cls-1" points="1221.47 320.99 1222.87 325.34 1226.89 323"/><polyline class="cls-1" points="1211.11 367.42 1212.51 371.77 1216.53 369.43"/><path class="cls-4" d="m1202.86,357.96c-.41-.03-1.37,6.43,2.14,11.23,1.6,2.19,3.83,3.62,4.08,3.34.27-.3-1.91-2.39-3.72-6.07-2.39-4.84-2.2-8.48-2.5-8.5Z"/><g class="cls-18"><path class="cls-20" d="m1307.98,284.53c-2.04-.52-4.05-.53-5.89.63-1.57.99-2.76,2.5-3.67,4.1-.86,1.51-1.55,3.2-2.79,4.45-1.33,1.35-3.15,1.84-5,1.6-.8-.11-1.5.77-1.5,1.5,0,.9.69,1.39,1.5,1.5,1.91.26,3.94-.2,5.57-1.23s2.76-2.57,3.68-4.22c.81-1.46,1.5-3.01,2.67-4.22.54-.56,1.17-1.06,1.91-1.31.91-.31,1.8-.13,2.71.1,1.87.48,2.67-2.41.8-2.89h0Z"/></g><g class="cls-18"><path class="cls-20" d="m1308.31,292.86c-1.35.25-2.55,1.1-3.41,2.16-.92,1.13-1.46,2.45-2.18,3.71-1.17,2.05-3.19,3.32-5.59,3.69-.8.13-1.24,1.13-1.05,1.85.23.85,1.04,1.17,1.85,1.05,2.69-.42,5.15-1.94,6.77-4.12.82-1.1,1.3-2.4,2.01-3.57.59-.96,1.32-1.67,2.4-1.87.8-.15,1.25-1.11,1.05-1.85-.23-.84-1.05-1.19-1.85-1.05h0Z"/></g><g class="cls-18"><path class="cls-20" d="m1317.38,296.17c-1.81.81-3.53,1.83-4.98,3.2s-2.4,3.19-3.38,4.96c-.89,1.6-1.92,2.95-3.56,3.83-1.49.8-3.3,1.15-4.97.85-.8-.14-1.62.21-1.85,1.05-.2.72.25,1.71,1.05,1.85,4.12.72,8.32-.88,10.8-4.28,1.22-1.67,1.91-3.71,3.24-5.31s3.24-2.7,5.16-3.56c.74-.33.92-1.41.54-2.05-.44-.76-1.31-.87-2.05-.54h0Z"/></g><g class="cls-18"><path class="cls-20" d="m1127.77,91.25c-1.99.28-3.71,1.02-4.93,2.66-1.02,1.37-1.47,3.05-1.66,4.73-.21,1.81,0,3.8-.83,5.49-.7,1.44-2.07,2.36-3.59,2.75-1.87.47-1.08,3.37.8,2.89,1.75-.44,3.39-1.42,4.52-2.83,1.32-1.65,1.76-3.61,1.91-5.68.12-1.59.08-3.25.76-4.73.75-1.65,2.1-2.13,3.81-2.37.8-.11,1.24-1.14,1.05-1.85-.24-.87-1.04-1.16-1.85-1.05h0Z"/></g><g class="cls-18"><path class="cls-20" d="m1130.08,103.3c-1.15.72-1.9,1.78-2.34,3.04-.47,1.34-.39,2.77-.48,4.16-.15,2.21-1.47,4.06-3.39,5.19-1.66.98-.16,3.57,1.51,2.59,2.19-1.29,3.98-3.4,4.61-5.9.36-1.43.17-2.88.4-4.32.14-.9.48-1.73,1.21-2.18,1.63-1.02.13-3.62-1.51-2.59h0Z"/></g><g class="cls-18"><path class="cls-20" d="m1139.88,103.66c-1.35,1.4-2.57,2.95-3.34,4.75-.84,1.94-.88,3.96-1.06,6.03-.14,1.66-.64,3.15-1.79,4.38s-2.6,2-4.23,2.35c-1.89.41-1.09,3.3.8,2.89,3.56-.77,6.79-3.43,7.8-6.99.58-2.04.31-4.2.81-6.24s1.75-3.61,3.14-5.05-.78-3.51-2.12-2.12h0Z"/></g><g class="cls-18"><path class="cls-20" d="m1148.28,425.79c-1.8,1.07-3.13,2.47-3.74,4.51s-.47,4.14-.13,6.16c.73,4.32,2.64,9.33-1.47,12.59-1.51,1.2.62,3.31,2.12,2.12,3.64-2.89,3.91-7.63,3.03-11.85-.43-2.08-1.03-4.11-.96-6.25s.83-3.6,2.66-4.69c1.66-.99.15-3.58-1.51-2.59h0Z"/></g><g class="cls-18"><path class="cls-20" d="m1152.74,440.72c-1.79,2.8-.79,6.06-.12,9.04s.17,5.87-1.51,8.33c-1.09,1.6,1.51,3.1,2.59,1.51,1.7-2.5,2.48-5.7,2.14-8.7-.3-2.68-2.13-6.12-.51-8.67,1.04-1.63-1.55-3.14-2.59-1.51h0Z"/></g><g class="cls-18"><path class="cls-20" d="m1162.57,434.2c-.91,2.24-1.57,4.57-1.73,7-.15,2.28.33,4.51.71,6.74.67,3.99,0,8.59-3.66,10.99-1.61,1.06-.11,3.66,1.51,2.59,3.68-2.42,5.63-6.92,5.42-11.26-.12-2.52-.9-4.95-1.01-7.46-.11-2.71.63-5.31,1.64-7.8.73-1.79-2.17-2.57-2.89-.8h0Z"/></g><g class="cls-18"><path class="cls-20" d="m1115.43,229.67c-1.77.85-3.09,2.07-3.73,3.95-.59,1.74-.48,3.66-.17,5.44.61,3.5,2.45,8.04-1.31,10.48-1.61,1.05-.11,3.65,1.51,2.59,3.63-2.35,4.28-6.45,3.45-10.43-.38-1.85-.97-3.65-.9-5.56.03-.73.15-1.48.49-2.14.46-.9,1.3-1.34,2.18-1.75,1.74-.83.22-3.42-1.51-2.59h0Z"/></g><g class="cls-18"><path class="cls-20" d="m1121.31,236.37c-1.81,2.39-.84,5.43-.23,8.05.54,2.32.17,4.86-1.36,6.75-.51.63-.61,1.51,0,2.12.53.53,1.61.63,2.12,0,1.74-2.14,2.71-4.9,2.46-7.67-.14-1.52-.63-2.95-.92-4.45-.23-1.15-.2-2.33.52-3.29.49-.65.1-1.68-.54-2.05-.77-.45-1.56-.11-2.05.54h0Z"/></g><g class="cls-18"><path class="cls-20" d="m1130.37,232.91c-.84,1.97-1.48,3.97-1.65,6.12s.34,4.12.8,6.15c.43,1.9.63,3.74-.02,5.62-.57,1.65-1.67,3.06-3.17,3.95-1.66.98-.15,3.58,1.51,2.59,3.35-1.98,5.33-5.9,5.07-9.78-.15-2.22-.96-4.32-1.18-6.53s.34-4.52,1.22-6.6c.32-.75.22-1.6-.54-2.05-.63-.38-1.74-.21-2.05.54h0Z"/></g><g class="cls-18"><path class="cls-20" d="m1303.77,119.32c-2.43-.4-4.73-.32-6.77,1.21-1.75,1.31-2.95,3.17-3.8,5.15s-1.47,4.24-2.87,5.95-3.59,2.58-5.81,2.47c-1.93-.1-1.92,2.9,0,3,2.32.11,4.65-.6,6.5-2.01s2.94-3.42,3.82-5.54c.76-1.83,1.37-3.77,2.63-5.35,1.46-1.83,3.22-2.38,5.5-2,.8.13,1.61-.21,1.85-1.05.2-.72-.24-1.71-1.05-1.85h0Z"/></g><g class="cls-18"><path class="cls-20" d="m1305.55,129.27c-1.63.45-2.9,1.55-3.83,2.93s-1.35,3.01-1.98,4.53c-1.11,2.67-3.47,4.55-6.26,5.24-1.87.46-1.08,3.36.8,2.89,3.07-.76,5.87-2.73,7.48-5.47.87-1.48,1.24-3.18,1.99-4.71.56-1.14,1.36-2.19,2.6-2.53,1.86-.51,1.07-3.41-.8-2.89h0Z"/></g><g class="cls-18"><path class="cls-20" d="m1317.01,132.26c-2.06,1.17-4.06,2.58-5.59,4.4-1.61,1.93-2.44,4.17-3.4,6.46-.87,2.09-2.05,3.9-4.01,5.09-1.85,1.12-3.95,1.59-6.1,1.4-1.92-.17-1.91,2.83,0,3,4.74.42,9.56-2.06,11.87-6.24,1.23-2.23,1.81-4.77,3.24-6.9,1.35-2.01,3.42-3.45,5.5-4.63,1.68-.95.17-3.54-1.51-2.59h0Z"/></g><path class="cls-3" d="m1111.44,261.39c5.58-.86,13,2.62,14.56,3.35.83.39,2.49,1.21,4.45,2.49,2.73,1.79,10.54,6.9,13.76,16.3,1.29,3.77,2.73,7.99,1.05,11.8-4.56,10.28-29.04,10.84-33.06,3.28-3.63-6.82,9.98-19.14,7.12-22.2-3.06-3.28-18.92,10.48-22.35,7.18-3.15-3.02,3.94-20.59,14.47-22.21Z"/><path class="cls-3" d="m1060.21,84.5c-3.78,2.93-5.57,6.08-5.96,6.78-4.87,8.84,1.02,14.49-.99,23.73-2.51,11.55-14.53,15.65-12.92,17.8,2.98,3.98,44.13-9.97,42.72-20.34-.77-5.65-13.89-8.11-12.92-12.71.54-2.57,4.8-2.57,10.93-6.78,4.48-3.07,11.65-9.55,9.93-12.71-2.23-4.1-20.18-4-30.8,4.24Z"/><path class="cls-3" d="m1274.86,140.75c6.42,2.92,11.85,11.06,12.98,12.77.61.91,1.79,2.77,2.99,5.26,1.66,3.47,6.39,13.36,3.43,24.16-1.19,4.33-2.52,9.18-6.85,11.56-11.69,6.44-37.7-9.32-36.82-18.96.79-8.69,23.34-10.99,22.41-15.71-1-5.05-26.86-2.93-28.24-8.25-1.26-4.88,17.99-16.35,30.11-10.84Z"/><path class="cls-3" d="m1245.06,343.59c4.82,3.27,4.15,9.75,9.41,11.38,4.31,1.34,7.22-2.26,9.43-.79,3.48,2.3-.96,13.04-4.74,22.19-4.49,10.86-6.71,12.38-8.45,13.16-5.62,2.53-14.04.9-16.54-3.23-2.42-4,2.7-7.07,2.29-13.52-.73-11.64-18.3-15.54-17.22-22.44,1.03-6.54,18.25-11.89,25.81-6.76Z"/><polyline class="cls-1" points="1229.13 340.17 1230.53 344.52 1234.56 342.17"/><polyline class="cls-1" points="1244.23 341.79 1245.63 346.13 1249.65 343.79"/><polyline class="cls-1" points="1254.96 351.62 1256.36 355.96 1260.38 353.62"/><polyline class="cls-1" points="1231.88 373.17 1233.28 377.52 1237.3 375.18"/><polyline class="cls-1" points="1232.4 352.29 1233.8 356.63 1237.82 354.29"/><polyline class="cls-1" points="1244.09 362.35 1245.49 366.69 1249.51 364.35"/><polyline class="cls-1" points="1249.29 372.88 1250.69 377.23 1254.72 374.89"/><path class="cls-3" d="m1157.98,515.62c-.99.29-3.58-1.23-8.73-4.26-5.76-3.4-7.23-4.6-8.48-6.7-.63-1.07-2.06-3.47-2-6.1.25-9.69,20.67-16.42,21.19-15.27.24.54-4.03,2.56-5.01,7.35-.17.84-.59,2.89.36,4.04,1.64,2,5.34-1.26,7.4.2,3.64,2.58,1.03,19.08-4.73,20.75Z"/><path class="cls-3" d="m1127.37,447.72c1.84.34.95,11.59,3.99,12.2.85.17,1.12-.67,2.33-.62,3.21.14,5.06,6.25,5.34,7.09.54,1.66,1.14,3.51.59,5.21-1.5,4.59-10.49,5.05-12.1,1.74-1.45-2.98,3.34-8.55,2.24-9.88-1.1-1.32-6.22,4.7-8.09,3.38-2.85-2.01,3.35-19.55,5.7-19.11Z"/><path class="cls-4" d="m1166.41,513.63c-.15.48,8.4,5.66,15.92,4.32,3.43-.61,6-2.46,5.68-2.94-.34-.51-3.79.86-9.31.81-7.27-.06-12.18-2.55-12.29-2.19Z"/><path class="cls-6" d="m165.29,413.3c-6.82,1.96-10.87,39.64,13.41,64.73,23.71,24.5,67.05,29.36,70.83,24.23,3-4.07-20.34-12.64-47.19-40.91-27.03-28.45-31.7-49.59-37.05-48.05Z"/><path class="cls-4" d="m199.38,488.03c-.2.41,7.95,6.41,15.74,6.33,3.55-.04,6.37-1.33,6.09-1.81-.29-.52-3.95.21-9.56-.67-7.39-1.16-12.12-4.16-12.27-3.85Z"/><path class="cls-2" d="m161.23,420.67c-.94-.13-1.19-1.99-1-3.29.31-2.09,2.11-5.02,5.41-5.79,3.59-.84,7.24,1.25,6.98,2.33-.23.92-3.1.47-6.41,2.5-3.16,1.95-3.87,4.41-4.98,4.25Z"/><path class="cls-2" d="m250.47,499.97c.46.1.42,1.3.2,2.14-.35,1.35-1.55,3.21-3.3,3.66-1.91.49-3.58-.92-3.34-1.62.2-.59,1.62-.25,3.5-1.52,1.79-1.21,2.39-2.79,2.94-2.67Z"/><line class="cls-12" x1="1013.94" y1="536.97" x2="1264.94" y2="737.97"/><line class="cls-13" x1="1264.94" y1="536.97" x2="1013.94" y2="737.97"/><rect class="cls-11" x="1273.26" y="46.78" width="58.22" height="13.3" rx="3.5" ry="3.5"/><rect class="cls-11" x="1273.26" y="65.78" width="58.22" height="13.3" rx="3.5" ry="3.5"/></svg>