<?xml version="1.0" encoding="UTF-8"?><svg id="Layer_1" xmlns="http://www.w3.org/2000/svg" viewBox="0 0 95 95"><defs><style>.cls-1{fill:#fff;stroke:#fff;}.cls-1,.cls-2,.cls-3{stroke-miterlimit:10;}.cls-2{fill:#f20c0c;stroke:#f20c0c;}.cls-3{fill:#0a4719;stroke:#0a4719;}</style></defs><path class="cls-3" d="m54.7,16.92c.89-3.67-5.04-7.97-10.68-12.06-3.83-2.78-5.74-4.17-6.5-3.61-2.31,1.71,4.15,19.41,11.7,19.45,2.37.01,4.98-1.72,5.48-3.78Z"/><path class="cls-2" d="m18.08,28.49c3.94-3.13,12.13-8.73,23.78-10.44,4.51-.66,21.98-3.23,35.67,8.95,10.17,9.04,16.88,24.99,11.89,40.27-6.28,19.23-26.81,24.27-31.21,25.35-3,.74-22.49,5.18-38.64-7.46-3.08-2.41-12.99-10.17-14.86-23.86-2.56-18.69,12.13-31.74,13.38-32.81Z"/><path class="cls-1" d="m18.61,67.98c-.6.36,2.16,10.64,10.25,14.11,3.68,1.58,7.79,1.45,7.96.8.18-.7-4.26-1.57-9.2-5.1-6.51-4.64-8.56-10.08-9.01-9.81Z"/></svg>